<svg width="204" height="50" viewBox="0 0 204 50" fill="none" xmlns="http://www.w3.org/2000/svg">
<circle opacity="0.23" cx="12.6514" cy="24.8344" r="9.23212" fill="white"/>
<circle opacity="0.23" cx="12.6514" cy="24.8343" r="12.6514" fill="white"/>
<circle opacity="0.8" cx="12.6514" cy="24.8343" r="5.81282" fill="white"/>
<path d="M62.7891 25.3027L26.2405 25.3027" stroke="white" stroke-width="0.937143" stroke-linecap="round"/>
<g clip-path="url(#clip0_212_10)">
<g filter="url(#filter0_b_212_10)">
<rect x="67.4746" width="135.886" height="49.6686" rx="3.74857" fill="#8BD9C7" fill-opacity="0.1"/>
<rect x="67.7089" y="0.234286" width="135.417" height="49.2" rx="3.51429" stroke="#8BD9C7" stroke-width="0.468571"/>
</g>
<path opacity="0.7" d="M116.645 29.2686C116.571 29.2686 116.505 29.2406 116.449 29.1846C116.393 29.1286 116.365 29.0632 116.365 28.9886C116.365 28.9419 116.37 28.8906 116.379 28.8346L119.851 19.7766C119.889 19.6832 119.94 19.6086 120.005 19.5526C120.071 19.4966 120.169 19.4686 120.299 19.4686H121.251C121.373 19.4686 121.466 19.4966 121.531 19.5526C121.606 19.6086 121.662 19.6832 121.699 19.7766L125.157 28.8346C125.176 28.8906 125.185 28.9419 125.185 28.9886C125.185 29.0632 125.157 29.1286 125.101 29.1846C125.045 29.2406 124.98 29.2686 124.905 29.2686H124.191C124.079 29.2686 123.995 29.2406 123.939 29.1846C123.893 29.1286 123.86 29.0772 123.841 29.0306L123.071 27.0426H118.479L117.709 29.0306C117.7 29.0772 117.667 29.1286 117.611 29.1846C117.555 29.2406 117.471 29.2686 117.359 29.2686H116.645ZM118.885 25.8386H122.665L120.775 20.8686L118.885 25.8386ZM127.263 29.2686C127.17 29.2686 127.091 29.2406 127.025 29.1846C126.969 29.1192 126.941 29.0399 126.941 28.9466V23.1086H125.751C125.658 23.1086 125.579 23.0806 125.513 23.0246C125.457 22.9592 125.429 22.8799 125.429 22.7866V22.3106C125.429 22.2172 125.457 22.1426 125.513 22.0866C125.579 22.0212 125.658 21.9886 125.751 21.9886H126.941V21.2886C126.941 20.8126 127.021 20.3972 127.179 20.0426C127.338 19.6786 127.59 19.3986 127.935 19.2026C128.29 19.0066 128.761 18.9086 129.349 18.9086H130.189C130.283 18.9086 130.357 18.9412 130.413 19.0066C130.469 19.0626 130.497 19.1372 130.497 19.2306V19.7066C130.497 19.7999 130.469 19.8792 130.413 19.9446C130.357 20.0006 130.283 20.0286 130.189 20.0286H129.377C128.939 20.0286 128.64 20.1452 128.481 20.3786C128.323 20.6026 128.243 20.9292 128.243 21.3586V21.9886H130.049C130.143 21.9886 130.217 22.0212 130.273 22.0866C130.329 22.1426 130.357 22.2172 130.357 22.3106V22.7866C130.357 22.8799 130.329 22.9592 130.273 23.0246C130.217 23.0806 130.143 23.1086 130.049 23.1086H128.243V28.9466C128.243 29.0399 128.211 29.1192 128.145 29.1846C128.089 29.2406 128.015 29.2686 127.921 29.2686H127.263ZM131.922 29.2686C131.829 29.2686 131.749 29.2406 131.684 29.1846C131.628 29.1192 131.6 29.0399 131.6 28.9466V22.3246C131.6 22.2312 131.628 22.1519 131.684 22.0866C131.749 22.0212 131.829 21.9886 131.922 21.9886H132.566C132.659 21.9886 132.739 22.0212 132.804 22.0866C132.869 22.1519 132.902 22.2312 132.902 22.3246V22.9406C133.089 22.6232 133.345 22.3852 133.672 22.2266C133.999 22.0679 134.391 21.9886 134.848 21.9886H135.408C135.501 21.9886 135.576 22.0212 135.632 22.0866C135.688 22.1426 135.716 22.2172 135.716 22.3106V22.8846C135.716 22.9779 135.688 23.0526 135.632 23.1086C135.576 23.1646 135.501 23.1926 135.408 23.1926H134.568C134.064 23.1926 133.667 23.3419 133.378 23.6406C133.089 23.9299 132.944 24.3266 132.944 24.8306V28.9466C132.944 29.0399 132.911 29.1192 132.846 29.1846C132.781 29.2406 132.701 29.2686 132.608 29.2686H131.922ZM137.24 29.2686C137.147 29.2686 137.068 29.2406 137.002 29.1846C136.946 29.1192 136.918 29.0399 136.918 28.9466V22.3106C136.918 22.2172 136.946 22.1426 137.002 22.0866C137.068 22.0212 137.147 21.9886 137.24 21.9886H137.912C138.006 21.9886 138.08 22.0212 138.136 22.0866C138.192 22.1426 138.22 22.2172 138.22 22.3106V28.9466C138.22 29.0399 138.192 29.1192 138.136 29.1846C138.08 29.2406 138.006 29.2686 137.912 29.2686H137.24ZM137.128 20.6306C137.035 20.6306 136.956 20.6026 136.89 20.5466C136.834 20.4812 136.806 20.4019 136.806 20.3086V19.5526C136.806 19.4592 136.834 19.3846 136.89 19.3286C136.956 19.2632 137.035 19.2306 137.128 19.2306H138.01C138.104 19.2306 138.178 19.2632 138.234 19.3286C138.3 19.3846 138.332 19.4592 138.332 19.5526V20.3086C138.332 20.4019 138.3 20.4812 138.234 20.5466C138.178 20.6026 138.104 20.6306 138.01 20.6306H137.128ZM143.276 29.4086C142.614 29.4086 142.04 29.2826 141.554 29.0306C141.078 28.7692 140.71 28.4006 140.448 27.9246C140.187 27.4392 140.047 26.8606 140.028 26.1886C140.019 26.0486 140.014 25.8619 140.014 25.6286C140.014 25.3952 140.019 25.2086 140.028 25.0686C140.047 24.3966 140.187 23.8226 140.448 23.3466C140.71 22.8612 141.078 22.4926 141.554 22.2406C142.04 21.9792 142.614 21.8486 143.276 21.8486C143.818 21.8486 144.28 21.9232 144.662 22.0726C145.054 22.2219 145.376 22.4132 145.628 22.6466C145.88 22.8799 146.067 23.1319 146.188 23.4026C146.319 23.6732 146.389 23.9299 146.398 24.1726C146.408 24.2659 146.38 24.3406 146.314 24.3966C146.249 24.4526 146.17 24.4806 146.076 24.4806H145.404C145.311 24.4806 145.241 24.4619 145.194 24.4246C145.148 24.3779 145.101 24.3032 145.054 24.2006C144.886 23.7432 144.658 23.4212 144.368 23.2346C144.079 23.0479 143.72 22.9546 143.29 22.9546C142.73 22.9546 142.273 23.1272 141.918 23.4726C141.573 23.8179 141.386 24.3732 141.358 25.1386C141.349 25.4746 141.349 25.8012 141.358 26.1186C141.386 26.8932 141.573 27.4532 141.918 27.7986C142.273 28.1346 142.73 28.3026 143.29 28.3026C143.72 28.3026 144.079 28.2092 144.368 28.0226C144.658 27.8359 144.886 27.5139 145.054 27.0566C145.101 26.9539 145.148 26.8839 145.194 26.8466C145.241 26.7999 145.311 26.7766 145.404 26.7766H146.076C146.17 26.7766 146.249 26.8046 146.314 26.8606C146.38 26.9166 146.408 26.9912 146.398 27.0846C146.389 27.2806 146.347 27.4812 146.272 27.6866C146.198 27.8919 146.076 28.1019 145.908 28.3166C145.75 28.5219 145.549 28.7086 145.306 28.8766C145.064 29.0352 144.77 29.1659 144.424 29.2686C144.088 29.3619 143.706 29.4086 143.276 29.4086ZM150.091 29.4086C149.624 29.4086 149.199 29.3152 148.817 29.1286C148.434 28.9419 148.126 28.6899 147.893 28.3726C147.659 28.0552 147.543 27.6959 147.543 27.2946C147.543 26.6506 147.804 26.1372 148.327 25.7546C148.849 25.3719 149.531 25.1199 150.371 24.9986L152.457 24.7046V24.2986C152.457 23.8506 152.326 23.5006 152.065 23.2486C151.813 22.9966 151.397 22.8706 150.819 22.8706C150.399 22.8706 150.058 22.9546 149.797 23.1226C149.545 23.2906 149.367 23.5052 149.265 23.7666C149.209 23.9066 149.111 23.9766 148.971 23.9766H148.341C148.238 23.9766 148.159 23.9486 148.103 23.8926C148.056 23.8272 148.033 23.7526 148.033 23.6686C148.033 23.5286 148.084 23.3559 148.187 23.1506C148.299 22.9452 148.467 22.7446 148.691 22.5486C148.915 22.3526 149.199 22.1892 149.545 22.0586C149.899 21.9186 150.329 21.8486 150.833 21.8486C151.393 21.8486 151.864 21.9232 152.247 22.0726C152.629 22.2126 152.928 22.4039 153.143 22.6466C153.367 22.8892 153.525 23.1646 153.619 23.4726C153.721 23.7806 153.773 24.0932 153.773 24.4106V28.9466C153.773 29.0399 153.74 29.1192 153.675 29.1846C153.619 29.2406 153.544 29.2686 153.451 29.2686H152.807C152.704 29.2686 152.625 29.2406 152.569 29.1846C152.513 29.1192 152.485 29.0399 152.485 28.9466V28.3446C152.363 28.5126 152.2 28.6806 151.995 28.8486C151.789 29.0072 151.533 29.1426 151.225 29.2546C150.917 29.3572 150.539 29.4086 150.091 29.4086ZM150.385 28.3586C150.767 28.3586 151.117 28.2792 151.435 28.1206C151.752 27.9526 151.999 27.6959 152.177 27.3506C152.363 27.0052 152.457 26.5712 152.457 26.0486V25.6566L150.833 25.8946C150.17 25.9879 149.671 26.1466 149.335 26.3706C148.999 26.5852 148.831 26.8606 148.831 27.1966C148.831 27.4579 148.905 27.6772 149.055 27.8546C149.213 28.0226 149.409 28.1486 149.643 28.2326C149.885 28.3166 150.133 28.3586 150.385 28.3586Z" fill="white"/>
</g>
<defs>
<filter id="filter0_b_212_10" x="48.7318" y="-18.7429" width="173.371" height="87.1542" filterUnits="userSpaceOnUse" color-interpolation-filters="sRGB">
<feFlood flood-opacity="0" result="BackgroundImageFix"/>
<feGaussianBlur in="BackgroundImageFix" stdDeviation="9.37143"/>
<feComposite in2="SourceAlpha" operator="in" result="effect1_backgroundBlur_212_10"/>
<feBlend mode="normal" in="SourceGraphic" in2="effect1_backgroundBlur_212_10" result="shape"/>
</filter>
<clipPath id="clip0_212_10">
<rect width="135.886" height="49.6686" fill="white" transform="translate(67.4746)"/>
</clipPath>
</defs>
</svg>
