<svg width="215" height="50" viewBox="0 0 215 50" fill="none" xmlns="http://www.w3.org/2000/svg">
<g clip-path="url(#clip0_212_11)">
<g filter="url(#filter0_b_212_11)">
<rect x="78.7202" width="135.886" height="49.6686" rx="3.74857" fill="#A5D90A" fill-opacity="0.1"/>
<rect x="78.9545" y="0.234286" width="135.417" height="49.2" rx="3.51429" stroke="#A5D90A" stroke-width="0.468571"/>
</g>
<path opacity="0.7" d="M107.042 21.6001C106.967 21.6001 106.902 21.5721 106.846 21.5161C106.79 21.4601 106.762 21.3948 106.762 21.3201C106.762 21.2734 106.767 21.2221 106.776 21.1661L110.248 12.1081C110.285 12.0148 110.337 11.9401 110.402 11.8841C110.467 11.8281 110.565 11.8001 110.696 11.8001H111.648C111.769 11.8001 111.863 11.8281 111.928 11.8841C112.003 11.9401 112.059 12.0148 112.096 12.1081L115.554 21.1661C115.573 21.2221 115.582 21.2734 115.582 21.3201C115.582 21.3948 115.554 21.4601 115.498 21.5161C115.442 21.5721 115.377 21.6001 115.302 21.6001H114.588C114.476 21.6001 114.392 21.5721 114.336 21.5161C114.289 21.4601 114.257 21.4088 114.238 21.3621L113.468 19.3741H108.876L108.106 21.3621C108.097 21.4088 108.064 21.4601 108.008 21.5161C107.952 21.5721 107.868 21.6001 107.756 21.6001H107.042ZM109.282 18.1701H113.062L111.172 13.2001L109.282 18.1701ZM119.417 21.7401C118.894 21.7401 118.446 21.6748 118.073 21.5441C117.699 21.4134 117.396 21.2548 117.163 21.0681C116.929 20.8814 116.752 20.6948 116.631 20.5081C116.519 20.3214 116.458 20.1721 116.449 20.0601C116.439 19.9574 116.472 19.8781 116.547 19.8221C116.621 19.7661 116.696 19.7381 116.771 19.7381H117.387C117.443 19.7381 117.485 19.7474 117.513 19.7661C117.55 19.7754 117.597 19.8128 117.653 19.8781C117.774 20.0088 117.909 20.1394 118.059 20.2701C118.208 20.4008 118.39 20.5081 118.605 20.5921C118.829 20.6761 119.104 20.7181 119.431 20.7181C119.907 20.7181 120.299 20.6294 120.607 20.4521C120.915 20.2654 121.069 19.9948 121.069 19.6401C121.069 19.4068 121.003 19.2201 120.873 19.0801C120.751 18.9401 120.527 18.8141 120.201 18.7021C119.883 18.5901 119.445 18.4734 118.885 18.3521C118.325 18.2214 117.881 18.0628 117.555 17.8761C117.228 17.6801 116.995 17.4514 116.855 17.1901C116.715 16.9194 116.645 16.6161 116.645 16.2801C116.645 15.9348 116.747 15.6034 116.953 15.2861C117.158 14.9594 117.457 14.6934 117.849 14.4881C118.25 14.2828 118.749 14.1801 119.347 14.1801C119.832 14.1801 120.247 14.2408 120.593 14.3621C120.938 14.4834 121.223 14.6374 121.447 14.8241C121.671 15.0014 121.839 15.1788 121.951 15.3561C122.063 15.5334 122.123 15.6828 122.133 15.8041C122.142 15.8974 122.114 15.9768 122.049 16.0421C121.983 16.0981 121.909 16.1261 121.825 16.1261H121.237C121.171 16.1261 121.115 16.1121 121.069 16.0841C121.031 16.0561 120.994 16.0234 120.957 15.9861C120.863 15.8648 120.751 15.7434 120.621 15.6221C120.499 15.5008 120.336 15.4028 120.131 15.3281C119.935 15.2441 119.673 15.2021 119.347 15.2021C118.88 15.2021 118.53 15.3001 118.297 15.4961C118.063 15.6921 117.947 15.9394 117.947 16.2381C117.947 16.4154 117.998 16.5741 118.101 16.7141C118.203 16.8541 118.399 16.9801 118.689 17.0921C118.978 17.2041 119.407 17.3254 119.977 17.4561C120.593 17.5774 121.078 17.7408 121.433 17.9461C121.787 18.1514 122.039 18.3894 122.189 18.6601C122.338 18.9308 122.413 19.2434 122.413 19.5981C122.413 19.9901 122.296 20.3494 122.063 20.6761C121.839 21.0028 121.503 21.2641 121.055 21.4601C120.616 21.6468 120.07 21.7401 119.417 21.7401ZM124.355 21.6001C124.262 21.6001 124.183 21.5721 124.117 21.5161C124.061 21.4508 124.033 21.3714 124.033 21.2781V14.6421C124.033 14.5488 124.061 14.4741 124.117 14.4181C124.183 14.3528 124.262 14.3201 124.355 14.3201H125.027C125.121 14.3201 125.195 14.3528 125.251 14.4181C125.307 14.4741 125.335 14.5488 125.335 14.6421V21.2781C125.335 21.3714 125.307 21.4508 125.251 21.5161C125.195 21.5721 125.121 21.6001 125.027 21.6001H124.355ZM124.243 12.9621C124.15 12.9621 124.071 12.9341 124.005 12.8781C123.949 12.8128 123.921 12.7334 123.921 12.6401V11.8841C123.921 11.7908 123.949 11.7161 124.005 11.6601C124.071 11.5948 124.15 11.5621 124.243 11.5621H125.125C125.219 11.5621 125.293 11.5948 125.349 11.6601C125.415 11.7161 125.447 11.7908 125.447 11.8841V12.6401C125.447 12.7334 125.415 12.8128 125.349 12.8781C125.293 12.9341 125.219 12.9621 125.125 12.9621H124.243ZM129.454 21.7401C128.987 21.7401 128.563 21.6468 128.18 21.4601C127.797 21.2734 127.489 21.0214 127.256 20.7041C127.023 20.3868 126.906 20.0274 126.906 19.6261C126.906 18.9821 127.167 18.4688 127.69 18.0861C128.213 17.7034 128.894 17.4514 129.734 17.3301L131.82 17.0361V16.6301C131.82 16.1821 131.689 15.8321 131.428 15.5801C131.176 15.3281 130.761 15.2021 130.182 15.2021C129.762 15.2021 129.421 15.2861 129.16 15.4541C128.908 15.6221 128.731 15.8368 128.628 16.0981C128.572 16.2381 128.474 16.3081 128.334 16.3081H127.704C127.601 16.3081 127.522 16.2801 127.466 16.2241C127.419 16.1588 127.396 16.0841 127.396 16.0001C127.396 15.8601 127.447 15.6874 127.55 15.4821C127.662 15.2768 127.83 15.0761 128.054 14.8801C128.278 14.6841 128.563 14.5208 128.908 14.3901C129.263 14.2501 129.692 14.1801 130.196 14.1801C130.756 14.1801 131.227 14.2548 131.61 14.4041C131.993 14.5441 132.291 14.7354 132.506 14.9781C132.73 15.2208 132.889 15.4961 132.982 15.8041C133.085 16.1121 133.136 16.4248 133.136 16.7421V21.2781C133.136 21.3714 133.103 21.4508 133.038 21.5161C132.982 21.5721 132.907 21.6001 132.814 21.6001H132.17C132.067 21.6001 131.988 21.5721 131.932 21.5161C131.876 21.4508 131.848 21.3714 131.848 21.2781V20.6761C131.727 20.8441 131.563 21.0121 131.358 21.1801C131.153 21.3388 130.896 21.4741 130.588 21.5861C130.28 21.6888 129.902 21.7401 129.454 21.7401ZM129.748 20.6901C130.131 20.6901 130.481 20.6108 130.798 20.4521C131.115 20.2841 131.363 20.0274 131.54 19.6821C131.727 19.3368 131.82 18.9028 131.82 18.3801V17.9881L130.196 18.2261C129.533 18.3194 129.034 18.4781 128.698 18.7021C128.362 18.9168 128.194 19.1921 128.194 19.5281C128.194 19.7894 128.269 20.0088 128.418 20.1861C128.577 20.3541 128.773 20.4801 129.006 20.5641C129.249 20.6481 129.496 20.6901 129.748 20.6901ZM140.61 21.7401C140.144 21.7401 139.719 21.6468 139.336 21.4601C138.954 21.2734 138.646 21.0214 138.412 20.7041C138.179 20.3868 138.062 20.0274 138.062 19.6261C138.062 18.9821 138.324 18.4688 138.846 18.0861C139.369 17.7034 140.05 17.4514 140.89 17.3301L142.976 17.0361V16.6301C142.976 16.1821 142.846 15.8321 142.584 15.5801C142.332 15.3281 141.917 15.2021 141.338 15.2021C140.918 15.2021 140.578 15.2861 140.316 15.4541C140.064 15.6221 139.887 15.8368 139.784 16.0981C139.728 16.2381 139.63 16.3081 139.49 16.3081H138.86C138.758 16.3081 138.678 16.2801 138.622 16.2241C138.576 16.1588 138.552 16.0841 138.552 16.0001C138.552 15.8601 138.604 15.6874 138.706 15.4821C138.818 15.2768 138.986 15.0761 139.21 14.8801C139.434 14.6841 139.719 14.5208 140.064 14.3901C140.419 14.2501 140.848 14.1801 141.352 14.1801C141.912 14.1801 142.384 14.2548 142.766 14.4041C143.149 14.5441 143.448 14.7354 143.662 14.9781C143.886 15.2208 144.045 15.4961 144.138 15.8041C144.241 16.1121 144.292 16.4248 144.292 16.7421V21.2781C144.292 21.3714 144.26 21.4508 144.194 21.5161C144.138 21.5721 144.064 21.6001 143.97 21.6001H143.326C143.224 21.6001 143.144 21.5721 143.088 21.5161C143.032 21.4508 143.004 21.3714 143.004 21.2781V20.6761C142.883 20.8441 142.72 21.0121 142.514 21.1801C142.309 21.3388 142.052 21.4741 141.744 21.5861C141.436 21.6888 141.058 21.7401 140.61 21.7401ZM140.904 20.6901C141.287 20.6901 141.637 20.6108 141.954 20.4521C142.272 20.2841 142.519 20.0274 142.696 19.6821C142.883 19.3368 142.976 18.9028 142.976 18.3801V17.9881L141.352 18.2261C140.69 18.3194 140.19 18.4781 139.854 18.7021C139.518 18.9168 139.35 19.1921 139.35 19.5281C139.35 19.7894 139.425 20.0088 139.574 20.1861C139.733 20.3541 139.929 20.4801 140.162 20.5641C140.405 20.6481 140.652 20.6901 140.904 20.6901ZM146.627 21.6001C146.534 21.6001 146.454 21.5721 146.389 21.5161C146.333 21.4508 146.305 21.3714 146.305 21.2781V14.6421C146.305 14.5488 146.333 14.4741 146.389 14.4181C146.454 14.3528 146.534 14.3201 146.627 14.3201H147.285C147.378 14.3201 147.453 14.3528 147.509 14.4181C147.574 14.4741 147.607 14.5488 147.607 14.6421V15.2581C147.85 14.9408 148.153 14.6841 148.517 14.4881C148.89 14.2828 149.366 14.1801 149.945 14.1801C150.552 14.1801 151.065 14.3154 151.485 14.5861C151.914 14.8474 152.236 15.2161 152.451 15.6921C152.666 16.1588 152.773 16.7048 152.773 17.3301V21.2781C152.773 21.3714 152.745 21.4508 152.689 21.5161C152.633 21.5721 152.558 21.6001 152.465 21.6001H151.765C151.672 21.6001 151.592 21.5721 151.527 21.5161C151.471 21.4508 151.443 21.3714 151.443 21.2781V17.4001C151.443 16.7468 151.284 16.2381 150.967 15.8741C150.65 15.5008 150.183 15.3141 149.567 15.3141C148.988 15.3141 148.522 15.5008 148.167 15.8741C147.822 16.2381 147.649 16.7468 147.649 17.4001V21.2781C147.649 21.3714 147.616 21.4508 147.551 21.5161C147.495 21.5721 147.42 21.6001 147.327 21.6001H146.627ZM157.455 21.7401C156.942 21.7401 156.499 21.6514 156.125 21.4741C155.752 21.2874 155.444 21.0401 155.201 20.7321C154.968 20.4148 154.791 20.0554 154.669 19.6541C154.557 19.2528 154.492 18.8281 154.473 18.3801C154.464 18.2308 154.459 18.0908 154.459 17.9601C154.459 17.8294 154.464 17.6894 154.473 17.5401C154.492 17.1014 154.557 16.6814 154.669 16.2801C154.791 15.8788 154.968 15.5194 155.201 15.2021C155.444 14.8848 155.752 14.6374 156.125 14.4601C156.499 14.2734 156.942 14.1801 157.455 14.1801C158.006 14.1801 158.463 14.2781 158.827 14.4741C159.191 14.6701 159.49 14.9128 159.723 15.2021V11.9821C159.723 11.8888 159.751 11.8141 159.807 11.7581C159.873 11.6928 159.952 11.6601 160.045 11.6601H160.717C160.811 11.6601 160.885 11.6928 160.941 11.7581C161.007 11.8141 161.039 11.8888 161.039 11.9821V21.2781C161.039 21.3714 161.007 21.4508 160.941 21.5161C160.885 21.5721 160.811 21.6001 160.717 21.6001H160.087C159.985 21.6001 159.905 21.5721 159.849 21.5161C159.793 21.4508 159.765 21.3714 159.765 21.2781V20.6901C159.532 20.9888 159.229 21.2408 158.855 21.4461C158.482 21.6421 158.015 21.7401 157.455 21.7401ZM157.749 20.6061C158.216 20.6061 158.589 20.4988 158.869 20.2841C159.149 20.0694 159.359 19.7988 159.499 19.4721C159.639 19.1361 159.714 18.7954 159.723 18.4501C159.733 18.3008 159.737 18.1234 159.737 17.9181C159.737 17.7034 159.733 17.5214 159.723 17.3721C159.714 17.0454 159.635 16.7234 159.485 16.4061C159.345 16.0888 159.131 15.8274 158.841 15.6221C158.561 15.4168 158.197 15.3141 157.749 15.3141C157.273 15.3141 156.895 15.4214 156.615 15.6361C156.335 15.8414 156.135 16.1168 156.013 16.4621C155.892 16.7981 155.822 17.1621 155.803 17.5541C155.794 17.8248 155.794 18.0954 155.803 18.3661C155.822 18.7581 155.892 19.1268 156.013 19.4721C156.135 19.8081 156.335 20.0834 156.615 20.2981C156.895 20.5034 157.273 20.6061 157.749 20.6061ZM169.094 21.6001C168.572 21.6001 168.147 21.5021 167.82 21.3061C167.494 21.1008 167.256 20.8161 167.106 20.4521C166.957 20.0788 166.882 19.6401 166.882 19.1361V15.4401H165.79C165.697 15.4401 165.618 15.4121 165.552 15.3561C165.496 15.2908 165.468 15.2114 165.468 15.1181V14.6421C165.468 14.5488 165.496 14.4741 165.552 14.4181C165.618 14.3528 165.697 14.3201 165.79 14.3201H166.882V11.9821C166.882 11.8888 166.91 11.8141 166.966 11.7581C167.032 11.6928 167.111 11.6601 167.204 11.6601H167.862C167.956 11.6601 168.03 11.6928 168.086 11.7581C168.152 11.8141 168.184 11.8888 168.184 11.9821V14.3201H169.92C170.014 14.3201 170.088 14.3528 170.144 14.4181C170.21 14.4741 170.242 14.5488 170.242 14.6421V15.1181C170.242 15.2114 170.21 15.2908 170.144 15.3561C170.088 15.4121 170.014 15.4401 169.92 15.4401H168.184V19.0381C168.184 19.4768 168.259 19.8221 168.408 20.0741C168.558 20.3261 168.824 20.4521 169.206 20.4521H170.06C170.154 20.4521 170.228 20.4848 170.284 20.5501C170.35 20.6061 170.382 20.6808 170.382 20.7741V21.2781C170.382 21.3714 170.35 21.4508 170.284 21.5161C170.228 21.5721 170.154 21.6001 170.06 21.6001H169.094ZM172.057 21.6001C171.964 21.6001 171.884 21.5721 171.819 21.5161C171.763 21.4508 171.735 21.3714 171.735 21.2781V11.9821C171.735 11.8888 171.763 11.8141 171.819 11.7581C171.884 11.6928 171.964 11.6601 172.057 11.6601H172.757C172.86 11.6601 172.939 11.6928 172.995 11.7581C173.051 11.8141 173.079 11.8888 173.079 11.9821V15.2441C173.331 14.9268 173.639 14.6701 174.003 14.4741C174.367 14.2781 174.829 14.1801 175.389 14.1801C175.996 14.1801 176.509 14.3154 176.929 14.5861C177.358 14.8474 177.68 15.2161 177.895 15.6921C178.119 16.1588 178.231 16.7048 178.231 17.3301V21.2781C178.231 21.3714 178.203 21.4508 178.147 21.5161C178.091 21.5721 178.012 21.6001 177.909 21.6001H177.209C177.116 21.6001 177.036 21.5721 176.971 21.5161C176.915 21.4508 176.887 21.3714 176.887 21.2781V17.4001C176.887 16.7468 176.728 16.2381 176.411 15.8741C176.094 15.5008 175.627 15.3141 175.011 15.3141C174.432 15.3141 173.966 15.5008 173.611 15.8741C173.256 16.2381 173.079 16.7468 173.079 17.4001V21.2781C173.079 21.3714 173.051 21.4508 172.995 21.5161C172.939 21.5721 172.86 21.6001 172.757 21.6001H172.057ZM183.15 21.7401C182.189 21.7401 181.424 21.4461 180.854 20.8581C180.285 20.2608 179.972 19.4488 179.916 18.4221C179.907 18.3008 179.902 18.1468 179.902 17.9601C179.902 17.7641 179.907 17.6054 179.916 17.4841C179.954 16.8214 180.108 16.2428 180.378 15.7481C180.649 15.2441 181.018 14.8568 181.484 14.5861C181.96 14.3154 182.516 14.1801 183.15 14.1801C183.86 14.1801 184.452 14.3294 184.928 14.6281C185.414 14.9268 185.782 15.3514 186.034 15.9021C186.286 16.4528 186.412 17.0968 186.412 17.8341V18.0721C186.412 18.1748 186.38 18.2541 186.314 18.3101C186.258 18.3661 186.184 18.3941 186.09 18.3941H181.246C181.246 18.4034 181.246 18.4221 181.246 18.4501C181.246 18.4781 181.246 18.5014 181.246 18.5201C181.265 18.9028 181.349 19.2621 181.498 19.5981C181.648 19.9248 181.862 20.1908 182.142 20.3961C182.422 20.6014 182.758 20.7041 183.15 20.7041C183.486 20.7041 183.766 20.6528 183.99 20.5501C184.214 20.4474 184.396 20.3354 184.536 20.2141C184.676 20.0834 184.77 19.9854 184.816 19.9201C184.9 19.7988 184.966 19.7288 185.012 19.7101C185.059 19.6821 185.134 19.6681 185.236 19.6681H185.908C186.002 19.6681 186.076 19.6961 186.132 19.7521C186.198 19.7988 186.226 19.8688 186.216 19.9621C186.207 20.1021 186.132 20.2748 185.992 20.4801C185.852 20.6761 185.652 20.8721 185.39 21.0681C185.129 21.2641 184.812 21.4274 184.438 21.5581C184.065 21.6794 183.636 21.7401 183.15 21.7401ZM181.246 17.4281H185.082V17.3861C185.082 16.9661 185.003 16.5928 184.844 16.2661C184.695 15.9394 184.476 15.6828 184.186 15.4961C183.897 15.3001 183.552 15.2021 183.15 15.2021C182.749 15.2021 182.404 15.3001 182.114 15.4961C181.834 15.6828 181.62 15.9394 181.47 16.2661C181.321 16.5928 181.246 16.9661 181.246 17.3861V17.4281ZM126.745 38.6001C126.643 38.6001 126.563 38.5721 126.507 38.5161C126.451 38.4508 126.423 38.3714 126.423 38.2781V29.1361C126.423 29.0334 126.451 28.9541 126.507 28.8981C126.563 28.8328 126.643 28.8001 126.745 28.8001H130.301C130.992 28.8001 131.589 28.9121 132.093 29.1361C132.607 29.3601 133.003 29.6961 133.283 30.1441C133.563 30.5828 133.703 31.1334 133.703 31.7961C133.703 32.4588 133.563 33.0094 133.283 33.4481C133.003 33.8868 132.607 34.2181 132.093 34.4421C131.589 34.6661 130.992 34.7781 130.301 34.7781H127.823V38.2781C127.823 38.3714 127.791 38.4508 127.725 38.5161C127.669 38.5721 127.59 38.6001 127.487 38.6001H126.745ZM127.809 33.6021H130.231C130.922 33.6021 131.44 33.4481 131.785 33.1401C132.131 32.8321 132.303 32.3841 132.303 31.7961C132.303 31.2174 132.135 30.7694 131.799 30.4521C131.463 30.1348 130.941 29.9761 130.231 29.9761H127.809V33.6021ZM137.117 38.7401C136.651 38.7401 136.226 38.6468 135.843 38.4601C135.461 38.2734 135.153 38.0214 134.919 37.7041C134.686 37.3868 134.569 37.0274 134.569 36.6261C134.569 35.9821 134.831 35.4688 135.353 35.0861C135.876 34.7034 136.557 34.4514 137.397 34.3301L139.483 34.0361V33.6301C139.483 33.1821 139.353 32.8321 139.091 32.5801C138.839 32.3281 138.424 32.2021 137.845 32.2021C137.425 32.2021 137.085 32.2861 136.823 32.4541C136.571 32.6221 136.394 32.8368 136.291 33.0981C136.235 33.2381 136.137 33.3081 135.997 33.3081H135.367C135.265 33.3081 135.185 33.2801 135.129 33.2241C135.083 33.1588 135.059 33.0841 135.059 33.0001C135.059 32.8601 135.111 32.6874 135.213 32.4821C135.325 32.2768 135.493 32.0761 135.717 31.8801C135.941 31.6841 136.226 31.5208 136.571 31.3901C136.926 31.2501 137.355 31.1801 137.859 31.1801C138.419 31.1801 138.891 31.2548 139.273 31.4041C139.656 31.5441 139.955 31.7354 140.169 31.9781C140.393 32.2208 140.552 32.4961 140.645 32.8041C140.748 33.1121 140.799 33.4248 140.799 33.7421V38.2781C140.799 38.3714 140.767 38.4508 140.701 38.5161C140.645 38.5721 140.571 38.6001 140.477 38.6001H139.833C139.731 38.6001 139.651 38.5721 139.595 38.5161C139.539 38.4508 139.511 38.3714 139.511 38.2781V37.6761C139.39 37.8441 139.227 38.0121 139.021 38.1801C138.816 38.3388 138.559 38.4741 138.251 38.5861C137.943 38.6888 137.565 38.7401 137.117 38.7401ZM137.411 37.6901C137.794 37.6901 138.144 37.6108 138.461 37.4521C138.779 37.2841 139.026 37.0274 139.203 36.6821C139.39 36.3368 139.483 35.9028 139.483 35.3801V34.9881L137.859 35.2261C137.197 35.3194 136.697 35.4781 136.361 35.7021C136.025 35.9168 135.857 36.1921 135.857 36.5281C135.857 36.7894 135.932 37.0088 136.081 37.1861C136.24 37.3541 136.436 37.4801 136.669 37.5641C136.912 37.6481 137.159 37.6901 137.411 37.6901ZM145.752 38.7401C145.089 38.7401 144.515 38.6141 144.03 38.3621C143.554 38.1008 143.185 37.7321 142.924 37.2561C142.662 36.7708 142.522 36.1921 142.504 35.5201C142.494 35.3801 142.49 35.1934 142.49 34.9601C142.49 34.7268 142.494 34.5401 142.504 34.4001C142.522 33.7281 142.662 33.1541 142.924 32.6781C143.185 32.1928 143.554 31.8241 144.03 31.5721C144.515 31.3108 145.089 31.1801 145.752 31.1801C146.293 31.1801 146.755 31.2548 147.138 31.4041C147.53 31.5534 147.852 31.7448 148.104 31.9781C148.356 32.2114 148.542 32.4634 148.664 32.7341C148.794 33.0048 148.864 33.2614 148.874 33.5041C148.883 33.5974 148.855 33.6721 148.79 33.7281C148.724 33.7841 148.645 33.8121 148.552 33.8121H147.88C147.786 33.8121 147.716 33.7934 147.67 33.7561C147.623 33.7094 147.576 33.6348 147.53 33.5321C147.362 33.0748 147.133 32.7528 146.844 32.5661C146.554 32.3794 146.195 32.2861 145.766 32.2861C145.206 32.2861 144.748 32.4588 144.394 32.8041C144.048 33.1494 143.862 33.7048 143.834 34.4701C143.824 34.8061 143.824 35.1328 143.834 35.4501C143.862 36.2248 144.048 36.7848 144.394 37.1301C144.748 37.4661 145.206 37.6341 145.766 37.6341C146.195 37.6341 146.554 37.5408 146.844 37.3541C147.133 37.1674 147.362 36.8454 147.53 36.3881C147.576 36.2854 147.623 36.2154 147.67 36.1781C147.716 36.1314 147.786 36.1081 147.88 36.1081H148.552C148.645 36.1081 148.724 36.1361 148.79 36.1921C148.855 36.2481 148.883 36.3228 148.874 36.4161C148.864 36.6121 148.822 36.8128 148.748 37.0181C148.673 37.2234 148.552 37.4334 148.384 37.6481C148.225 37.8534 148.024 38.0401 147.782 38.2081C147.539 38.3668 147.245 38.4974 146.9 38.6001C146.564 38.6934 146.181 38.7401 145.752 38.7401ZM150.858 38.6001C150.765 38.6001 150.686 38.5721 150.62 38.5161C150.564 38.4508 150.536 38.3714 150.536 38.2781V31.6421C150.536 31.5488 150.564 31.4741 150.62 31.4181C150.686 31.3528 150.765 31.3201 150.858 31.3201H151.53C151.624 31.3201 151.698 31.3528 151.754 31.4181C151.81 31.4741 151.838 31.5488 151.838 31.6421V38.2781C151.838 38.3714 151.81 38.4508 151.754 38.5161C151.698 38.5721 151.624 38.6001 151.53 38.6001H150.858ZM150.746 29.9621C150.653 29.9621 150.574 29.9341 150.508 29.8781C150.452 29.8128 150.424 29.7334 150.424 29.6401V28.8841C150.424 28.7908 150.452 28.7161 150.508 28.6601C150.574 28.5948 150.653 28.5621 150.746 28.5621H151.628C151.722 28.5621 151.796 28.5948 151.852 28.6601C151.918 28.7161 151.95 28.7908 151.95 28.8841V29.6401C151.95 29.7334 151.918 29.8128 151.852 29.8781C151.796 29.9341 151.722 29.9621 151.628 29.9621H150.746ZM154.977 38.6001C154.884 38.6001 154.804 38.5721 154.739 38.5161C154.683 38.4508 154.655 38.3714 154.655 38.2781V32.4401H153.465C153.372 32.4401 153.292 32.4121 153.227 32.3561C153.171 32.2908 153.143 32.2114 153.143 32.1181V31.6421C153.143 31.5488 153.171 31.4741 153.227 31.4181C153.292 31.3528 153.372 31.3201 153.465 31.3201H154.655V30.6201C154.655 30.1441 154.734 29.7288 154.893 29.3741C155.052 29.0101 155.304 28.7301 155.649 28.5341C156.004 28.3381 156.475 28.2401 157.063 28.2401H159.219C159.312 28.2401 159.387 28.2728 159.443 28.3381C159.508 28.3941 159.541 28.4688 159.541 28.5621V29.0381C159.541 29.1314 159.508 29.2108 159.443 29.2761C159.387 29.3321 159.312 29.3601 159.219 29.3601H157.091C156.652 29.3601 156.354 29.4768 156.195 29.7101C156.036 29.9341 155.957 30.2608 155.957 30.6901V31.3201H159.219C159.312 31.3201 159.387 31.3528 159.443 31.4181C159.508 31.4741 159.541 31.5488 159.541 31.6421V38.2781C159.541 38.3714 159.508 38.4508 159.443 38.5161C159.387 38.5721 159.312 38.6001 159.219 38.6001H158.575C158.472 38.6001 158.393 38.5721 158.337 38.5161C158.281 38.4508 158.253 38.3714 158.253 38.2781V32.4401H155.957V38.2781C155.957 38.3714 155.924 38.4508 155.859 38.5161C155.803 38.5721 155.728 38.6001 155.635 38.6001H154.977ZM164.578 38.7401C163.915 38.7401 163.341 38.6141 162.856 38.3621C162.38 38.1008 162.011 37.7321 161.75 37.2561C161.489 36.7708 161.349 36.1921 161.33 35.5201C161.321 35.3801 161.316 35.1934 161.316 34.9601C161.316 34.7268 161.321 34.5401 161.33 34.4001C161.349 33.7281 161.489 33.1541 161.75 32.6781C162.011 32.1928 162.38 31.8241 162.856 31.5721C163.341 31.3108 163.915 31.1801 164.578 31.1801C165.119 31.1801 165.581 31.2548 165.964 31.4041C166.356 31.5534 166.678 31.7448 166.93 31.9781C167.182 32.2114 167.369 32.4634 167.49 32.7341C167.621 33.0048 167.691 33.2614 167.7 33.5041C167.709 33.5974 167.681 33.6721 167.616 33.7281C167.551 33.7841 167.471 33.8121 167.378 33.8121H166.706C166.613 33.8121 166.543 33.7934 166.496 33.7561C166.449 33.7094 166.403 33.6348 166.356 33.5321C166.188 33.0748 165.959 32.7528 165.67 32.5661C165.381 32.3794 165.021 32.2861 164.592 32.2861C164.032 32.2861 163.575 32.4588 163.22 32.8041C162.875 33.1494 162.688 33.7048 162.66 34.4701C162.651 34.8061 162.651 35.1328 162.66 35.4501C162.688 36.2248 162.875 36.7848 163.22 37.1301C163.575 37.4661 164.032 37.6341 164.592 37.6341C165.021 37.6341 165.381 37.5408 165.67 37.3541C165.959 37.1674 166.188 36.8454 166.356 36.3881C166.403 36.2854 166.449 36.2154 166.496 36.1781C166.543 36.1314 166.613 36.1081 166.706 36.1081H167.378C167.471 36.1081 167.551 36.1361 167.616 36.1921C167.681 36.2481 167.709 36.3228 167.7 36.4161C167.691 36.6121 167.649 36.8128 167.574 37.0181C167.499 37.2234 167.378 37.4334 167.21 37.6481C167.051 37.8534 166.851 38.0401 166.608 38.2081C166.365 38.3668 166.071 38.4974 165.726 38.6001C165.39 38.6934 165.007 38.7401 164.578 38.7401Z" fill="white"/>
</g>
<path d="M71.2231 23.4287L25.3031 23.4287" stroke="white" stroke-width="0.937143" stroke-linecap="round"/>
<circle opacity="0.23" cx="12.6514" cy="24.8344" r="9.23212" fill="white"/>
<circle opacity="0.23" cx="12.6514" cy="24.8345" r="12.6514" fill="white"/>
<circle opacity="0.8" cx="12.6514" cy="24.8345" r="5.81282" fill="white"/>
<defs>
<filter id="filter0_b_212_11" x="59.9774" y="-18.7429" width="173.371" height="87.1542" filterUnits="userSpaceOnUse" color-interpolation-filters="sRGB">
<feFlood flood-opacity="0" result="BackgroundImageFix"/>
<feGaussianBlur in="BackgroundImageFix" stdDeviation="9.37143"/>
<feComposite in2="SourceAlpha" operator="in" result="effect1_backgroundBlur_212_11"/>
<feBlend mode="normal" in="SourceGraphic" in2="effect1_backgroundBlur_212_11" result="shape"/>
</filter>
<clipPath id="clip0_212_11">
<rect width="135.886" height="49.6686" fill="white" transform="translate(78.7202)"/>
</clipPath>
</defs>
</svg>
