<svg width="92" height="92" viewBox="0 0 92 92" fill="none" xmlns="http://www.w3.org/2000/svg">
<path fill-rule="evenodd" clip-rule="evenodd" d="M40.5447 8.27464C32.3635 9.55979 24.7685 13.4545 19.028 19.3077C8.37409 30.1716 5.18696 45.4224 10.5735 59.7629C12.4737 64.8221 14.8294 68.4453 18.9088 72.5831C24.2658 78.0164 29.6452 81.1884 36.6903 83.0674C39.7341 83.8794 40.8738 83.9924 46.0954 83.9996C51.384 84.0072 52.4207 83.9049 55.5319 83.0681C70.4258 79.061 81.3199 67.2034 83.7343 52.371C86.9395 32.6807 74.8337 14.1091 55.5319 9.105C51.6048 8.08704 44.3119 7.68302 40.5447 8.27464ZM52.4398 11.3379C60.6905 12.7754 69.159 18.0161 74.3933 24.9237C76.529 27.7421 79.342 33.5568 80.3704 37.2786C81.0329 39.6772 81.1575 41.0682 81.1575 46.0694C81.1575 53.1164 80.6019 55.6744 77.8332 61.3732C73.8071 69.6602 67.4371 75.507 58.5433 79.078C50.3128 82.3828 39.7691 82.0155 31.469 78.1349C22.5435 73.9615 15.8427 66.5537 12.724 57.4122C11.1266 52.73 10.3384 45.6215 11.0319 42.1535L11.257 41.0282H28.2308H45.2042L50.5112 35.7126C55.0137 31.2021 55.8178 30.2313 55.8178 29.3038C55.8178 28.3787 55.0796 27.4799 51.0168 23.4567C47.5765 20.0502 45.9741 18.7028 45.3637 18.7028C44.7343 18.7028 42.4143 20.7927 36.4815 26.7043C27.6201 35.5336 27.4497 35.8026 29.4187 37.8576L30.3863 38.8677H20.9566C15.7703 38.8677 11.527 38.795 11.527 38.7064C11.527 38.0046 13.6285 32.1366 14.4992 30.4056C17.0807 25.2758 21.6768 19.9998 26.2478 16.9196C30.3639 14.1455 36.7371 11.6429 41.2343 11.0347C43.8885 10.6761 49.513 10.828 52.4398 11.3379ZM41.0153 33.9676C43.3699 36.3287 45.0011 38.239 44.8593 38.4687C44.6961 38.7323 42.7603 38.8677 39.1562 38.8677H33.6998L32.1518 37.3485L30.6041 35.8296L33.5705 32.8474C35.2024 31.2075 36.6244 29.8655 36.731 29.8655C36.8376 29.8655 38.7655 31.7113 41.0153 33.9676ZM49.3362 40.4881L46.6536 43.1887H36.6521H26.6507V44.3687C26.6507 45.018 26.9031 45.9092 27.2114 46.3492L27.7717 47.1497H45.4192C56.8955 47.1497 63.3105 47.0194 63.7635 46.777C64.3836 46.445 64.4599 45.9931 64.4599 42.6565C64.4599 37.674 64.6237 37.7874 57.4389 37.7874H52.0189L49.3362 40.4881ZM55.7015 42.3249C56.0198 43.1545 55.1578 43.5733 53.2972 43.493C51.1536 43.4001 50.7766 43.2413 50.7766 42.43C50.7766 41.8309 51.061 41.7484 53.1283 41.7484C54.9529 41.7484 55.5301 41.8777 55.7015 42.3249ZM61.5792 42.43C61.5792 43.2644 60.9004 43.5506 58.939 43.5434C57.1483 43.5366 56.3522 43.112 56.6543 42.3249C56.8257 41.8777 57.4029 41.7484 59.2275 41.7484C61.2947 41.7484 61.5792 41.8309 61.5792 42.43ZM27.0234 49.6466C26.4184 50.7772 26.5542 56.2142 27.2114 57.1519L27.7717 57.9523H45.6839C59.1353 57.9523 63.7034 57.8447 64.0278 57.5202C64.6183 56.9297 64.6183 49.9728 64.0278 49.3822C63.703 49.0574 59.0935 48.9501 45.4959 48.9501C27.9697 48.9501 27.3846 48.9721 27.0234 49.6466ZM55.7015 53.1275C56.0198 53.9568 55.1858 54.3396 53.0484 54.3461C51.1403 54.3515 50.5566 54.0036 50.9134 53.0739C51.2137 52.291 55.3983 52.3378 55.7015 53.1275ZM61.3992 53.4512C61.3992 54.0728 61.128 54.1844 59.4187 54.2647C57.2034 54.3691 56.3198 53.9993 56.6608 53.1102C56.8455 52.6288 57.3161 52.5366 59.1439 52.6238C61.1233 52.7181 61.3992 52.8193 61.3992 53.4512ZM27.0234 60.4492C26.4184 61.5799 26.5542 67.0168 27.2114 67.9545L27.7717 68.755H45.6839C59.1353 68.755 63.7034 68.6473 64.0278 68.3229C64.6183 67.7323 64.6183 60.7754 64.0278 60.1849C63.703 59.8601 59.0935 59.7528 45.4959 59.7528C27.9697 59.7528 27.3846 59.7747 27.0234 60.4492ZM55.6378 64.2539C55.6378 64.8801 55.3612 64.9884 53.5147 65.0835C51.2778 65.1991 50.535 64.8624 50.904 63.9006C51.0834 63.4339 51.5724 63.3403 53.3825 63.4264C55.3619 63.5207 55.6378 63.6219 55.6378 64.2539ZM61.3992 64.2539C61.3992 64.8801 61.1226 64.9884 59.2761 65.0835C57.0392 65.1991 56.2964 64.8624 56.6655 63.9006C56.8448 63.4339 57.3338 63.3403 59.1439 63.4264C61.1233 63.5207 61.3992 63.6219 61.3992 64.2539Z" fill="white"/>
</svg>
