<svg width="12" height="7" viewBox="0 0 12 7" fill="none" xmlns="http://www.w3.org/2000/svg">
<path d="M10.8584 0.447396C10.6903 0.27934 10.4765 0.195312 10.2167 0.195312C9.95701 0.195312 9.74312 0.27934 9.57506 0.447396L6.00006 4.0224L2.42507 0.447396C2.25701 0.27934 2.04312 0.195312 1.7834 0.195312C1.52368 0.195312 1.30979 0.27934 1.14173 0.447396C0.973676 0.615451 0.889648 0.82934 0.889648 1.08906C0.889648 1.34878 0.973676 1.56267 1.14173 1.73073L5.3584 5.9474C5.45007 6.03906 5.54937 6.10415 5.65631 6.14265C5.76326 6.18115 5.87784 6.20009 6.00006 6.19948C6.12229 6.19948 6.23687 6.18023 6.34381 6.14173C6.45076 6.10323 6.55007 6.03845 6.64173 5.9474L10.8584 1.73073C11.0265 1.56267 11.1105 1.34878 11.1105 1.08906C11.1105 0.82934 11.0265 0.615451 10.8584 0.447396Z" fill="white"/>
</svg>
