<svg width="136" height="117" viewBox="0 0 136 117" fill="none" xmlns="http://www.w3.org/2000/svg">
<circle opacity="0.23" cx="68.8804" cy="103.554" r="9.23212" fill="white"/>
<circle opacity="0.23" cx="68.8804" cy="103.554" r="12.6514" fill="white"/>
<circle opacity="0.8" cx="68.8804" cy="103.554" r="5.81282" fill="white"/>
<path d="M69.3486 89.9658L69.3486 59.9772" stroke="white" stroke-width="0.937143" stroke-linecap="round"/>
<g clip-path="url(#clip0_212_9)">
<g filter="url(#filter0_b_212_9)">
<rect width="135.886" height="49.6686" rx="3.74857" fill="#D93228" fill-opacity="0.1"/>
<rect x="0.234286" y="0.234286" width="135.417" height="49.2" rx="3.51429" stroke="#D93228" stroke-width="0.468571"/>
</g>
<path opacity="0.7" d="M20.0848 20.9429C19.9822 20.9429 19.9028 20.9149 19.8468 20.8589C19.7908 20.7935 19.7628 20.7142 19.7628 20.6209V11.4789C19.7628 11.3762 19.7908 11.2969 19.8468 11.2409C19.9028 11.1755 19.9822 11.1429 20.0848 11.1429H25.8668C25.9695 11.1429 26.0488 11.1755 26.1048 11.2409C26.1608 11.2969 26.1888 11.3762 26.1888 11.4789V12.0109C26.1888 12.1135 26.1608 12.1929 26.1048 12.2489C26.0488 12.3049 25.9695 12.3329 25.8668 12.3329H21.1068V15.3989H25.5588C25.6615 15.3989 25.7408 15.4315 25.7968 15.4969C25.8528 15.5529 25.8808 15.6322 25.8808 15.7349V16.2529C25.8808 16.3462 25.8528 16.4255 25.7968 16.4909C25.7408 16.5469 25.6615 16.5749 25.5588 16.5749H21.1068V19.7529H25.9788C26.0815 19.7529 26.1608 19.7809 26.2168 19.8369C26.2728 19.8929 26.3008 19.9722 26.3008 20.0749V20.6209C26.3008 20.7142 26.2728 20.7935 26.2168 20.8589C26.1608 20.9149 26.0815 20.9429 25.9788 20.9429H20.0848ZM30.705 21.0829C30.1077 21.0829 29.599 20.9522 29.179 20.6909C28.7684 20.4202 28.4557 20.0469 28.241 19.5709C28.0264 19.0949 27.919 18.5489 27.919 17.9329V13.9849C27.919 13.8915 27.947 13.8169 28.003 13.7609C28.0684 13.6955 28.1477 13.6629 28.241 13.6629H28.941C29.0344 13.6629 29.109 13.6955 29.165 13.7609C29.2304 13.8169 29.263 13.8915 29.263 13.9849V17.8629C29.263 19.2535 29.8697 19.9489 31.083 19.9489C31.6617 19.9489 32.1237 19.7669 32.469 19.4029C32.8237 19.0295 33.001 18.5162 33.001 17.8629V13.9849C33.001 13.8915 33.029 13.8169 33.085 13.7609C33.1504 13.6955 33.2297 13.6629 33.323 13.6629H34.009C34.1117 13.6629 34.191 13.6955 34.247 13.7609C34.303 13.8169 34.331 13.8915 34.331 13.9849V20.6209C34.331 20.7142 34.303 20.7935 34.247 20.8589C34.191 20.9149 34.1117 20.9429 34.009 20.9429H33.365C33.2717 20.9429 33.1924 20.9149 33.127 20.8589C33.071 20.7935 33.043 20.7142 33.043 20.6209V20.0049C32.791 20.3315 32.483 20.5929 32.119 20.7889C31.7644 20.9849 31.293 21.0829 30.705 21.0829ZM36.7329 20.9429C36.6396 20.9429 36.5603 20.9149 36.4949 20.8589C36.4389 20.7935 36.4109 20.7142 36.4109 20.6209V13.9989C36.4109 13.9055 36.4389 13.8262 36.4949 13.7609C36.5603 13.6955 36.6396 13.6629 36.7329 13.6629H37.3769C37.4703 13.6629 37.5496 13.6955 37.6149 13.7609C37.6803 13.8262 37.7129 13.9055 37.7129 13.9989V14.6149C37.8996 14.2975 38.1563 14.0595 38.4829 13.9009C38.8096 13.7422 39.2016 13.6629 39.6589 13.6629H40.2189C40.3123 13.6629 40.3869 13.6955 40.4429 13.7609C40.4989 13.8169 40.5269 13.8915 40.5269 13.9849V14.5589C40.5269 14.6522 40.4989 14.7269 40.4429 14.7829C40.3869 14.8389 40.3123 14.8669 40.2189 14.8669H39.3789C38.8749 14.8669 38.4783 15.0162 38.1889 15.3149C37.8996 15.6042 37.7549 16.0009 37.7549 16.5049V20.6209C37.7549 20.7142 37.7223 20.7935 37.6569 20.8589C37.5916 20.9149 37.5123 20.9429 37.4189 20.9429H36.7329ZM44.5746 21.0829C43.8652 21.0829 43.2726 20.9475 42.7966 20.6769C42.3206 20.4062 41.9566 20.0329 41.7046 19.5569C41.4526 19.0715 41.3126 18.5209 41.2846 17.9049C41.2752 17.7462 41.2706 17.5455 41.2706 17.3029C41.2706 17.0509 41.2752 16.8502 41.2846 16.7009C41.3126 16.0755 41.4526 15.5249 41.7046 15.0489C41.9659 14.5729 42.3346 14.1995 42.8106 13.9289C43.2866 13.6582 43.8746 13.5229 44.5746 13.5229C45.2746 13.5229 45.8626 13.6582 46.3386 13.9289C46.8146 14.1995 47.1786 14.5729 47.4306 15.0489C47.6919 15.5249 47.8366 16.0755 47.8646 16.7009C47.8739 16.8502 47.8786 17.0509 47.8786 17.3029C47.8786 17.5455 47.8739 17.7462 47.8646 17.9049C47.8366 18.5209 47.6966 19.0715 47.4446 19.5569C47.1926 20.0329 46.8286 20.4062 46.3526 20.6769C45.8766 20.9475 45.2839 21.0829 44.5746 21.0829ZM44.5746 20.0049C45.1532 20.0049 45.6152 19.8229 45.9606 19.4589C46.3059 19.0855 46.4926 18.5442 46.5206 17.8349C46.5299 17.6949 46.5346 17.5175 46.5346 17.3029C46.5346 17.0882 46.5299 16.9109 46.5206 16.7709C46.4926 16.0615 46.3059 15.5249 45.9606 15.1609C45.6152 14.7875 45.1532 14.6009 44.5746 14.6009C43.9959 14.6009 43.5292 14.7875 43.1746 15.1609C42.8292 15.5249 42.6472 16.0615 42.6286 16.7709C42.6192 16.9109 42.6146 17.0882 42.6146 17.3029C42.6146 17.5175 42.6192 17.6949 42.6286 17.8349C42.6472 18.5442 42.8292 19.0855 43.1746 19.4589C43.5292 19.8229 43.9959 20.0049 44.5746 20.0049ZM49.9676 23.6029C49.8743 23.6029 49.795 23.5702 49.7296 23.5049C49.6736 23.4489 49.6456 23.3742 49.6456 23.2809V13.9849C49.6456 13.8915 49.6736 13.8169 49.7296 13.7609C49.795 13.6955 49.8743 13.6629 49.9676 13.6629H50.6116C50.705 13.6629 50.7796 13.6955 50.8356 13.7609C50.901 13.8169 50.9336 13.8915 50.9336 13.9849V14.6009C51.1576 14.2929 51.4563 14.0362 51.8296 13.8309C52.203 13.6255 52.6696 13.5229 53.2296 13.5229C53.7523 13.5229 54.1956 13.6115 54.5596 13.7889C54.933 13.9662 55.2363 14.2089 55.4696 14.5169C55.7123 14.8249 55.8943 15.1749 56.0156 15.5669C56.137 15.9589 56.2023 16.3789 56.2116 16.8269C56.221 16.9762 56.2256 17.1349 56.2256 17.3029C56.2256 17.4709 56.221 17.6295 56.2116 17.7789C56.2023 18.2175 56.137 18.6375 56.0156 19.0389C55.8943 19.4309 55.7123 19.7809 55.4696 20.0889C55.2363 20.3875 54.933 20.6302 54.5596 20.8169C54.1956 20.9942 53.7523 21.0829 53.2296 21.0829C52.6883 21.0829 52.231 20.9849 51.8576 20.7889C51.4936 20.5835 51.195 20.3315 50.9616 20.0329V23.2809C50.9616 23.3742 50.9336 23.4489 50.8776 23.5049C50.8216 23.5702 50.7423 23.6029 50.6396 23.6029H49.9676ZM52.9356 19.9489C53.421 19.9489 53.799 19.8462 54.0696 19.6409C54.3496 19.4262 54.5503 19.1509 54.6716 18.8149C54.793 18.4695 54.863 18.1009 54.8816 17.7089C54.891 17.4382 54.891 17.1675 54.8816 16.8969C54.863 16.5049 54.793 16.1409 54.6716 15.8049C54.5503 15.4595 54.3496 15.1842 54.0696 14.9789C53.799 14.7642 53.421 14.6569 52.9356 14.6569C52.4783 14.6569 52.105 14.7642 51.8156 14.9789C51.5356 15.1935 51.3256 15.4689 51.1856 15.8049C51.055 16.1315 50.9803 16.4675 50.9616 16.8129C50.9523 16.9622 50.9476 17.1395 50.9476 17.3449C50.9476 17.5502 50.9523 17.7322 50.9616 17.8909C50.971 18.2175 51.0456 18.5395 51.1856 18.8569C51.335 19.1742 51.5543 19.4355 51.8436 19.6409C52.133 19.8462 52.497 19.9489 52.9356 19.9489ZM60.8695 21.0829C59.9081 21.0829 59.1428 20.7889 58.5735 20.2009C58.0041 19.6035 57.6915 18.7915 57.6355 17.7649C57.6261 17.6435 57.6215 17.4895 57.6215 17.3029C57.6215 17.1069 57.6261 16.9482 57.6355 16.8269C57.6728 16.1642 57.8268 15.5855 58.0975 15.0909C58.3681 14.5869 58.7368 14.1995 59.2035 13.9289C59.6795 13.6582 60.2348 13.5229 60.8695 13.5229C61.5788 13.5229 62.1715 13.6722 62.6475 13.9709C63.1328 14.2695 63.5015 14.6942 63.7535 15.2449C64.0055 15.7955 64.1315 16.4395 64.1315 17.1769V17.4149C64.1315 17.5175 64.0988 17.5969 64.0335 17.6529C63.9775 17.7089 63.9028 17.7369 63.8095 17.7369H58.9655C58.9655 17.7462 58.9655 17.7649 58.9655 17.7929C58.9655 17.8209 58.9655 17.8442 58.9655 17.8629C58.9841 18.2455 59.0681 18.6049 59.2175 18.9409C59.3668 19.2675 59.5815 19.5335 59.8615 19.7389C60.1415 19.9442 60.4775 20.0469 60.8695 20.0469C61.2055 20.0469 61.4855 19.9955 61.7095 19.8929C61.9335 19.7902 62.1155 19.6782 62.2555 19.5569C62.3955 19.4262 62.4888 19.3282 62.5355 19.2629C62.6195 19.1415 62.6848 19.0715 62.7315 19.0529C62.7781 19.0249 62.8528 19.0109 62.9555 19.0109H63.6275C63.7208 19.0109 63.7955 19.0389 63.8515 19.0949C63.9168 19.1415 63.9448 19.2115 63.9355 19.3049C63.9261 19.4449 63.8515 19.6175 63.7115 19.8229C63.5715 20.0189 63.3708 20.2149 63.1095 20.4109C62.8481 20.6069 62.5308 20.7702 62.1575 20.9009C61.7841 21.0222 61.3548 21.0829 60.8695 21.0829ZM58.9655 16.7709H62.8015V16.7289C62.8015 16.3089 62.7221 15.9355 62.5635 15.6089C62.4141 15.2822 62.1948 15.0255 61.9055 14.8389C61.6161 14.6429 61.2708 14.5449 60.8695 14.5449C60.4681 14.5449 60.1228 14.6429 59.8335 14.8389C59.5535 15.0255 59.3388 15.2822 59.1895 15.6089C59.0401 15.9355 58.9655 16.3089 58.9655 16.7289V16.7709ZM71.2671 21.0829C70.8004 21.0829 70.3758 20.9895 69.9931 20.8029C69.6104 20.6162 69.3024 20.3642 69.0691 20.0469C68.8358 19.7295 68.7191 19.3702 68.7191 18.9689C68.7191 18.3249 68.9804 17.8115 69.5031 17.4289C70.0258 17.0462 70.7071 16.7942 71.5471 16.6729L73.6331 16.3789V15.9729C73.6331 15.5249 73.5024 15.1749 73.2411 14.9229C72.9891 14.6709 72.5738 14.5449 71.9951 14.5449C71.5751 14.5449 71.2344 14.6289 70.9731 14.7969C70.7211 14.9649 70.5438 15.1795 70.4411 15.4409C70.3851 15.5809 70.2871 15.6509 70.1471 15.6509H69.5171C69.4144 15.6509 69.3351 15.6229 69.2791 15.5669C69.2324 15.5015 69.2091 15.4269 69.2091 15.3429C69.2091 15.2029 69.2604 15.0302 69.3631 14.8249C69.4751 14.6195 69.6431 14.4189 69.8671 14.2229C70.0911 14.0269 70.3758 13.8635 70.7211 13.7329C71.0758 13.5929 71.5051 13.5229 72.0091 13.5229C72.5691 13.5229 73.0404 13.5975 73.4231 13.7469C73.8058 13.8869 74.1044 14.0782 74.3191 14.3209C74.5431 14.5635 74.7018 14.8389 74.7951 15.1469C74.8978 15.4549 74.9491 15.7675 74.9491 16.0849V20.6209C74.9491 20.7142 74.9164 20.7935 74.8511 20.8589C74.7951 20.9149 74.7204 20.9429 74.6271 20.9429H73.9831C73.8804 20.9429 73.8011 20.9149 73.7451 20.8589C73.6891 20.7935 73.6611 20.7142 73.6611 20.6209V20.0189C73.5398 20.1869 73.3764 20.3549 73.1711 20.5229C72.9658 20.6815 72.7091 20.8169 72.4011 20.9289C72.0931 21.0315 71.7151 21.0829 71.2671 21.0829ZM71.5611 20.0329C71.9438 20.0329 72.2938 19.9535 72.6111 19.7949C72.9284 19.6269 73.1758 19.3702 73.3531 19.0249C73.5398 18.6795 73.6331 18.2455 73.6331 17.7229V17.3309L72.0091 17.5689C71.3464 17.6622 70.8471 17.8209 70.5111 18.0449C70.1751 18.2595 70.0071 18.5349 70.0071 18.8709C70.0071 19.1322 70.0818 19.3515 70.2311 19.5289C70.3898 19.6969 70.5858 19.8229 70.8191 19.9069C71.0618 19.9909 71.3091 20.0329 71.5611 20.0329ZM77.2837 20.9429C77.1904 20.9429 77.111 20.9149 77.0457 20.8589C76.9897 20.7935 76.9617 20.7142 76.9617 20.6209V13.9849C76.9617 13.8915 76.9897 13.8169 77.0457 13.7609C77.111 13.6955 77.1904 13.6629 77.2837 13.6629H77.9417C78.035 13.6629 78.1097 13.6955 78.1657 13.7609C78.231 13.8169 78.2637 13.8915 78.2637 13.9849V14.6009C78.5064 14.2835 78.8097 14.0269 79.1737 13.8309C79.547 13.6255 80.023 13.5229 80.6017 13.5229C81.2084 13.5229 81.7217 13.6582 82.1417 13.9289C82.571 14.1902 82.893 14.5589 83.1077 15.0349C83.3224 15.5015 83.4297 16.0475 83.4297 16.6729V20.6209C83.4297 20.7142 83.4017 20.7935 83.3457 20.8589C83.2897 20.9149 83.215 20.9429 83.1217 20.9429H82.4217C82.3284 20.9429 82.249 20.9149 82.1837 20.8589C82.1277 20.7935 82.0997 20.7142 82.0997 20.6209V16.7429C82.0997 16.0895 81.941 15.5809 81.6237 15.2169C81.3064 14.8435 80.8397 14.6569 80.2237 14.6569C79.645 14.6569 79.1784 14.8435 78.8237 15.2169C78.4784 15.5809 78.3057 16.0895 78.3057 16.7429V20.6209C78.3057 20.7142 78.273 20.7935 78.2077 20.8589C78.1517 20.9149 78.077 20.9429 77.9837 20.9429H77.2837ZM88.1119 21.0829C87.5986 21.0829 87.1553 20.9942 86.7819 20.8169C86.4086 20.6302 86.1006 20.3829 85.8579 20.0749C85.6246 19.7575 85.4473 19.3982 85.3259 18.9969C85.2139 18.5955 85.1486 18.1709 85.1299 17.7229C85.1206 17.5735 85.1159 17.4335 85.1159 17.3029C85.1159 17.1722 85.1206 17.0322 85.1299 16.8829C85.1486 16.4442 85.2139 16.0242 85.3259 15.6229C85.4473 15.2215 85.6246 14.8622 85.8579 14.5449C86.1006 14.2275 86.4086 13.9802 86.7819 13.8029C87.1553 13.6162 87.5986 13.5229 88.1119 13.5229C88.6626 13.5229 89.1199 13.6209 89.4839 13.8169C89.8479 14.0129 90.1466 14.2555 90.3799 14.5449V11.3249C90.3799 11.2315 90.4079 11.1569 90.4639 11.1009C90.5293 11.0355 90.6086 11.0029 90.7019 11.0029H91.3739C91.4673 11.0029 91.5419 11.0355 91.5979 11.1009C91.6633 11.1569 91.6959 11.2315 91.6959 11.3249V20.6209C91.6959 20.7142 91.6633 20.7935 91.5979 20.8589C91.5419 20.9149 91.4673 20.9429 91.3739 20.9429H90.7439C90.6413 20.9429 90.5619 20.9149 90.5059 20.8589C90.4499 20.7935 90.4219 20.7142 90.4219 20.6209V20.0329C90.1886 20.3315 89.8853 20.5835 89.5119 20.7889C89.1386 20.9849 88.6719 21.0829 88.1119 21.0829ZM88.4059 19.9489C88.8726 19.9489 89.2459 19.8415 89.5259 19.6269C89.8059 19.4122 90.0159 19.1415 90.1559 18.8149C90.2959 18.4789 90.3706 18.1382 90.3799 17.7929C90.3893 17.6435 90.3939 17.4662 90.3939 17.2609C90.3939 17.0462 90.3893 16.8642 90.3799 16.7149C90.3706 16.3882 90.2913 16.0662 90.1419 15.7489C90.0019 15.4315 89.7873 15.1702 89.4979 14.9649C89.2179 14.7595 88.8539 14.6569 88.4059 14.6569C87.9299 14.6569 87.5519 14.7642 87.2719 14.9789C86.9919 15.1842 86.7913 15.4595 86.6699 15.8049C86.5486 16.1409 86.4786 16.5049 86.4599 16.8969C86.4506 17.1675 86.4506 17.4382 86.4599 17.7089C86.4786 18.1009 86.5486 18.4695 86.6699 18.8149C86.7913 19.1509 86.9919 19.4262 87.2719 19.6409C87.5519 19.8462 87.9299 19.9489 88.4059 19.9489ZM99.751 20.9429C99.2283 20.9429 98.8036 20.8449 98.477 20.6489C98.1503 20.4435 97.9123 20.1589 97.763 19.7949C97.6136 19.4215 97.539 18.9829 97.539 18.4789V14.7829H96.447C96.3536 14.7829 96.2743 14.7549 96.209 14.6989C96.153 14.6335 96.125 14.5542 96.125 14.4609V13.9849C96.125 13.8915 96.153 13.8169 96.209 13.7609C96.2743 13.6955 96.3536 13.6629 96.447 13.6629H97.539V11.3249C97.539 11.2315 97.567 11.1569 97.623 11.1009C97.6883 11.0355 97.7676 11.0029 97.861 11.0029H98.519C98.6123 11.0029 98.687 11.0355 98.743 11.1009C98.8083 11.1569 98.841 11.2315 98.841 11.3249V13.6629H100.577C100.67 13.6629 100.745 13.6955 100.801 13.7609C100.866 13.8169 100.899 13.8915 100.899 13.9849V14.4609C100.899 14.5542 100.866 14.6335 100.801 14.6989C100.745 14.7549 100.67 14.7829 100.577 14.7829H98.841V18.3809C98.841 18.8195 98.9156 19.1649 99.065 19.4169C99.2143 19.6689 99.4803 19.7949 99.863 19.7949H100.717C100.81 19.7949 100.885 19.8275 100.941 19.8929C101.006 19.9489 101.039 20.0235 101.039 20.1169V20.6209C101.039 20.7142 101.006 20.7935 100.941 20.8589C100.885 20.9149 100.81 20.9429 100.717 20.9429H99.751ZM102.714 20.9429C102.62 20.9429 102.541 20.9149 102.476 20.8589C102.42 20.7935 102.392 20.7142 102.392 20.6209V11.3249C102.392 11.2315 102.42 11.1569 102.476 11.1009C102.541 11.0355 102.62 11.0029 102.714 11.0029H103.414C103.516 11.0029 103.596 11.0355 103.652 11.1009C103.708 11.1569 103.736 11.2315 103.736 11.3249V14.5869C103.988 14.2695 104.296 14.0129 104.66 13.8169C105.024 13.6209 105.486 13.5229 106.046 13.5229C106.652 13.5229 107.166 13.6582 107.586 13.9289C108.015 14.1902 108.337 14.5589 108.552 15.0349C108.776 15.5015 108.888 16.0475 108.888 16.6729V20.6209C108.888 20.7142 108.86 20.7935 108.804 20.8589C108.748 20.9149 108.668 20.9429 108.566 20.9429H107.866C107.772 20.9429 107.693 20.9149 107.628 20.8589C107.572 20.7935 107.544 20.7142 107.544 20.6209V16.7429C107.544 16.0895 107.385 15.5809 107.068 15.2169C106.75 14.8435 106.284 14.6569 105.668 14.6569C105.089 14.6569 104.622 14.8435 104.268 15.2169C103.913 15.5809 103.736 16.0895 103.736 16.7429V20.6209C103.736 20.7142 103.708 20.7935 103.652 20.8589C103.596 20.9149 103.516 20.9429 103.414 20.9429H102.714ZM113.807 21.0829C112.846 21.0829 112.08 20.7889 111.511 20.2009C110.942 19.6035 110.629 18.7915 110.573 17.7649C110.564 17.6435 110.559 17.4895 110.559 17.3029C110.559 17.1069 110.564 16.9482 110.573 16.8269C110.61 16.1642 110.764 15.5855 111.035 15.0909C111.306 14.5869 111.674 14.1995 112.141 13.9289C112.617 13.6582 113.172 13.5229 113.807 13.5229C114.516 13.5229 115.109 13.6722 115.585 13.9709C116.07 14.2695 116.439 14.6942 116.691 15.2449C116.943 15.7955 117.069 16.4395 117.069 17.1769V17.4149C117.069 17.5175 117.036 17.5969 116.971 17.6529C116.915 17.7089 116.84 17.7369 116.747 17.7369H111.903C111.903 17.7462 111.903 17.7649 111.903 17.7929C111.903 17.8209 111.903 17.8442 111.903 17.8629C111.922 18.2455 112.006 18.6049 112.155 18.9409C112.304 19.2675 112.519 19.5335 112.799 19.7389C113.079 19.9442 113.415 20.0469 113.807 20.0469C114.143 20.0469 114.423 19.9955 114.647 19.8929C114.871 19.7902 115.053 19.6782 115.193 19.5569C115.333 19.4262 115.426 19.3282 115.473 19.2629C115.557 19.1415 115.622 19.0715 115.669 19.0529C115.716 19.0249 115.79 19.0109 115.893 19.0109H116.565C116.658 19.0109 116.733 19.0389 116.789 19.0949C116.854 19.1415 116.882 19.2115 116.873 19.3049C116.864 19.4449 116.789 19.6175 116.649 19.8229C116.509 20.0189 116.308 20.2149 116.047 20.4109C115.786 20.6069 115.468 20.7702 115.095 20.9009C114.722 21.0222 114.292 21.0829 113.807 21.0829ZM111.903 16.7709H115.739V16.7289C115.739 16.3089 115.66 15.9355 115.501 15.6089C115.352 15.2822 115.132 15.0255 114.843 14.8389C114.554 14.6429 114.208 14.5449 113.807 14.5449C113.406 14.5449 113.06 14.6429 112.771 14.8389C112.491 15.0255 112.276 15.2822 112.127 15.6089C111.978 15.9355 111.903 16.3089 111.903 16.7289V16.7709ZM32.3485 37.9429C32.2552 37.9429 32.1759 37.9149 32.1105 37.8589C32.0545 37.7935 32.0265 37.7142 32.0265 37.6209V28.4789C32.0265 28.3762 32.0545 28.2969 32.1105 28.2409C32.1759 28.1755 32.2552 28.1429 32.3485 28.1429H33.0485C33.1605 28.1429 33.2445 28.1709 33.3005 28.2269C33.3565 28.2829 33.3892 28.3295 33.3985 28.3669L36.3665 34.0229L39.3485 28.3669C39.3672 28.3295 39.3999 28.2829 39.4465 28.2269C39.5025 28.1709 39.5865 28.1429 39.6985 28.1429H40.3845C40.4872 28.1429 40.5665 28.1755 40.6225 28.2409C40.6879 28.2969 40.7205 28.3762 40.7205 28.4789V37.6209C40.7205 37.7142 40.6879 37.7935 40.6225 37.8589C40.5665 37.9149 40.4872 37.9429 40.3845 37.9429H39.6985C39.6052 37.9429 39.5259 37.9149 39.4605 37.8589C39.4045 37.7935 39.3765 37.7142 39.3765 37.6209V30.7329L37.0385 35.2969C37.0012 35.3902 36.9452 35.4649 36.8705 35.5209C36.7959 35.5675 36.7025 35.5909 36.5905 35.5909H36.1565C36.0352 35.5909 35.9372 35.5675 35.8625 35.5209C35.7972 35.4649 35.7412 35.3902 35.6945 35.2969L33.3565 30.7329V37.6209C33.3565 37.7142 33.3239 37.7935 33.2585 37.8589C33.2025 37.9149 33.1279 37.9429 33.0345 37.9429H32.3485ZM43.2818 37.9429C43.1884 37.9429 43.1091 37.9149 43.0438 37.8589C42.9878 37.7935 42.9598 37.7142 42.9598 37.6209V30.9849C42.9598 30.8915 42.9878 30.8169 43.0438 30.7609C43.1091 30.6955 43.1884 30.6629 43.2818 30.6629H43.9538C44.0471 30.6629 44.1218 30.6955 44.1778 30.7609C44.2338 30.8169 44.2618 30.8915 44.2618 30.9849V37.6209C44.2618 37.7142 44.2338 37.7935 44.1778 37.8589C44.1218 37.9149 44.0471 37.9429 43.9538 37.9429H43.2818ZM43.1698 29.3049C43.0764 29.3049 42.9971 29.2769 42.9318 29.2209C42.8758 29.1555 42.8478 29.0762 42.8478 28.9829V28.2269C42.8478 28.1335 42.8758 28.0589 42.9318 28.0029C42.9971 27.9375 43.0764 27.9049 43.1698 27.9049H44.0518C44.1451 27.9049 44.2198 27.9375 44.2758 28.0029C44.3411 28.0589 44.3738 28.1335 44.3738 28.2269V28.9829C44.3738 29.0762 44.3411 29.1555 44.2758 29.2209C44.2198 29.2769 44.1451 29.3049 44.0518 29.3049H43.1698ZM49.0104 38.0829C48.497 38.0829 48.0537 37.9942 47.6804 37.8169C47.307 37.6302 46.999 37.3829 46.7564 37.0749C46.523 36.7575 46.3457 36.3982 46.2244 35.9969C46.1124 35.5955 46.047 35.1709 46.0284 34.7229C46.019 34.5735 46.0144 34.4335 46.0144 34.3029C46.0144 34.1722 46.019 34.0322 46.0284 33.8829C46.047 33.4442 46.1124 33.0242 46.2244 32.6229C46.3457 32.2215 46.523 31.8622 46.7564 31.5449C46.999 31.2275 47.307 30.9802 47.6804 30.8029C48.0537 30.6162 48.497 30.5229 49.0104 30.5229C49.561 30.5229 50.0184 30.6209 50.3824 30.8169C50.7464 31.0129 51.045 31.2555 51.2784 31.5449V28.3249C51.2784 28.2315 51.3064 28.1569 51.3624 28.1009C51.4277 28.0355 51.507 28.0029 51.6004 28.0029H52.2724C52.3657 28.0029 52.4404 28.0355 52.4964 28.1009C52.5617 28.1569 52.5944 28.2315 52.5944 28.3249V37.6209C52.5944 37.7142 52.5617 37.7935 52.4964 37.8589C52.4404 37.9149 52.3657 37.9429 52.2724 37.9429H51.6424C51.5397 37.9429 51.4604 37.9149 51.4044 37.8589C51.3484 37.7935 51.3204 37.7142 51.3204 37.6209V37.0329C51.087 37.3315 50.7837 37.5835 50.4104 37.7889C50.037 37.9849 49.5704 38.0829 49.0104 38.0829ZM49.3044 36.9489C49.771 36.9489 50.1444 36.8415 50.4244 36.6269C50.7044 36.4122 50.9144 36.1415 51.0544 35.8149C51.1944 35.4789 51.269 35.1382 51.2784 34.7929C51.2877 34.6435 51.2924 34.4662 51.2924 34.2609C51.2924 34.0462 51.2877 33.8642 51.2784 33.7149C51.269 33.3882 51.1897 33.0662 51.0404 32.7489C50.9004 32.4315 50.6857 32.1702 50.3964 31.9649C50.1164 31.7595 49.7524 31.6569 49.3044 31.6569C48.8284 31.6569 48.4504 31.7642 48.1704 31.9789C47.8904 32.1842 47.6897 32.4595 47.5684 32.8049C47.447 33.1409 47.377 33.5049 47.3584 33.8969C47.349 34.1675 47.349 34.4382 47.3584 34.7089C47.377 35.1009 47.447 35.4695 47.5684 35.8149C47.6897 36.1509 47.8904 36.4262 48.1704 36.6409C48.4504 36.8462 48.8284 36.9489 49.3044 36.9489ZM57.3365 38.0829C56.8232 38.0829 56.3799 37.9942 56.0065 37.8169C55.6332 37.6302 55.3252 37.3829 55.0825 37.0749C54.8492 36.7575 54.6719 36.3982 54.5505 35.9969C54.4385 35.5955 54.3732 35.1709 54.3545 34.7229C54.3452 34.5735 54.3405 34.4335 54.3405 34.3029C54.3405 34.1722 54.3452 34.0322 54.3545 33.8829C54.3732 33.4442 54.4385 33.0242 54.5505 32.6229C54.6719 32.2215 54.8492 31.8622 55.0825 31.5449C55.3252 31.2275 55.6332 30.9802 56.0065 30.8029C56.3799 30.6162 56.8232 30.5229 57.3365 30.5229C57.8872 30.5229 58.3445 30.6209 58.7085 30.8169C59.0725 31.0129 59.3712 31.2555 59.6045 31.5449V28.3249C59.6045 28.2315 59.6325 28.1569 59.6885 28.1009C59.7539 28.0355 59.8332 28.0029 59.9265 28.0029H60.5985C60.6919 28.0029 60.7665 28.0355 60.8225 28.1009C60.8879 28.1569 60.9205 28.2315 60.9205 28.3249V37.6209C60.9205 37.7142 60.8879 37.7935 60.8225 37.8589C60.7665 37.9149 60.6919 37.9429 60.5985 37.9429H59.9685C59.8659 37.9429 59.7865 37.9149 59.7305 37.8589C59.6745 37.7935 59.6465 37.7142 59.6465 37.6209V37.0329C59.4132 37.3315 59.1099 37.5835 58.7365 37.7889C58.3632 37.9849 57.8965 38.0829 57.3365 38.0829ZM57.6305 36.9489C58.0972 36.9489 58.4705 36.8415 58.7505 36.6269C59.0305 36.4122 59.2405 36.1415 59.3805 35.8149C59.5205 35.4789 59.5952 35.1382 59.6045 34.7929C59.6139 34.6435 59.6185 34.4662 59.6185 34.2609C59.6185 34.0462 59.6139 33.8642 59.6045 33.7149C59.5952 33.3882 59.5159 33.0662 59.3665 32.7489C59.2265 32.4315 59.0119 32.1702 58.7225 31.9649C58.4425 31.7595 58.0785 31.6569 57.6305 31.6569C57.1545 31.6569 56.7765 31.7642 56.4965 31.9789C56.2165 32.1842 56.0159 32.4595 55.8945 32.8049C55.7732 33.1409 55.7032 33.5049 55.6845 33.8969C55.6752 34.1675 55.6752 34.4382 55.6845 34.7089C55.7032 35.1009 55.7732 35.4695 55.8945 35.8149C56.0159 36.1509 56.2165 36.4262 56.4965 36.6409C56.7765 36.8462 57.1545 36.9489 57.6305 36.9489ZM63.3387 37.9429C63.2454 37.9429 63.1661 37.9149 63.1007 37.8589C63.0447 37.7935 63.0167 37.7142 63.0167 37.6209V28.3249C63.0167 28.2315 63.0447 28.1569 63.1007 28.1009C63.1661 28.0355 63.2454 28.0029 63.3387 28.0029H63.9967C64.0994 28.0029 64.1787 28.0355 64.2347 28.1009C64.2907 28.1569 64.3187 28.2315 64.3187 28.3249V37.6209C64.3187 37.7142 64.2907 37.7935 64.2347 37.8589C64.1787 37.9149 64.0994 37.9429 63.9967 37.9429H63.3387ZM69.305 38.0829C68.3437 38.0829 67.5784 37.7889 67.009 37.2009C66.4397 36.6035 66.127 35.7915 66.071 34.7649C66.0617 34.6435 66.057 34.4895 66.057 34.3029C66.057 34.1069 66.0617 33.9482 66.071 33.8269C66.1084 33.1642 66.2624 32.5855 66.533 32.0909C66.8037 31.5869 67.1724 31.1995 67.639 30.9289C68.115 30.6582 68.6704 30.5229 69.305 30.5229C70.0144 30.5229 70.607 30.6722 71.083 30.9709C71.5684 31.2695 71.937 31.6942 72.189 32.2449C72.441 32.7955 72.567 33.4395 72.567 34.1769V34.4149C72.567 34.5175 72.5344 34.5969 72.469 34.6529C72.413 34.7089 72.3384 34.7369 72.245 34.7369H67.401C67.401 34.7462 67.401 34.7649 67.401 34.7929C67.401 34.8209 67.401 34.8442 67.401 34.8629C67.4197 35.2455 67.5037 35.6049 67.653 35.9409C67.8024 36.2675 68.017 36.5335 68.297 36.7389C68.577 36.9442 68.913 37.0469 69.305 37.0469C69.641 37.0469 69.921 36.9955 70.145 36.8929C70.369 36.7902 70.551 36.6782 70.691 36.5569C70.831 36.4262 70.9244 36.3282 70.971 36.2629C71.055 36.1415 71.1204 36.0715 71.167 36.0529C71.2137 36.0249 71.2884 36.0109 71.391 36.0109H72.063C72.1564 36.0109 72.231 36.0389 72.287 36.0949C72.3524 36.1415 72.3804 36.2115 72.371 36.3049C72.3617 36.4449 72.287 36.6175 72.147 36.8229C72.007 37.0189 71.8064 37.2149 71.545 37.4109C71.2837 37.6069 70.9664 37.7702 70.593 37.9009C70.2197 38.0222 69.7904 38.0829 69.305 38.0829ZM67.401 33.7709H71.237V33.7289C71.237 33.3089 71.1577 32.9355 70.999 32.6089C70.8497 32.2822 70.6304 32.0255 70.341 31.8389C70.0517 31.6429 69.7064 31.5449 69.305 31.5449C68.9037 31.5449 68.5584 31.6429 68.269 31.8389C67.989 32.0255 67.7744 32.2822 67.625 32.6089C67.4757 32.9355 67.401 33.3089 67.401 33.7289V33.7709ZM78.1766 37.9429C78.074 37.9429 77.9946 37.9149 77.9386 37.8589C77.8826 37.7935 77.8546 37.7142 77.8546 37.6209V28.4789C77.8546 28.3762 77.8826 28.2969 77.9386 28.2409C77.9946 28.1755 78.074 28.1429 78.1766 28.1429H83.9586C84.0613 28.1429 84.1406 28.1755 84.1966 28.2409C84.2526 28.2969 84.2806 28.3762 84.2806 28.4789V29.0109C84.2806 29.1135 84.2526 29.1929 84.1966 29.2489C84.1406 29.3049 84.0613 29.3329 83.9586 29.3329H79.1986V32.3989H83.6506C83.7533 32.3989 83.8326 32.4315 83.8886 32.4969C83.9446 32.5529 83.9726 32.6322 83.9726 32.7349V33.2529C83.9726 33.3462 83.9446 33.4255 83.8886 33.4909C83.8326 33.5469 83.7533 33.5749 83.6506 33.5749H79.1986V36.7529H84.0706C84.1733 36.7529 84.2526 36.7809 84.3086 36.8369C84.3646 36.8929 84.3926 36.9722 84.3926 37.0749V37.6209C84.3926 37.7142 84.3646 37.7935 84.3086 37.8589C84.2526 37.9149 84.1733 37.9429 84.0706 37.9429H78.1766ZM88.1929 38.0829C87.7262 38.0829 87.3015 37.9895 86.9189 37.8029C86.5362 37.6162 86.2282 37.3642 85.9949 37.0469C85.7615 36.7295 85.6449 36.3702 85.6449 35.9689C85.6449 35.3249 85.9062 34.8115 86.4289 34.4289C86.9515 34.0462 87.6329 33.7942 88.4729 33.6729L90.5589 33.3789V32.9729C90.5589 32.5249 90.4282 32.1749 90.1669 31.9229C89.9149 31.6709 89.4995 31.5449 88.9209 31.5449C88.5009 31.5449 88.1602 31.6289 87.8989 31.7969C87.6469 31.9649 87.4695 32.1795 87.3669 32.4409C87.3109 32.5809 87.2129 32.6509 87.0729 32.6509H86.4429C86.3402 32.6509 86.2609 32.6229 86.2049 32.5669C86.1582 32.5015 86.1349 32.4269 86.1349 32.3429C86.1349 32.2029 86.1862 32.0302 86.2889 31.8249C86.4009 31.6195 86.5689 31.4189 86.7929 31.2229C87.0169 31.0269 87.3015 30.8635 87.6469 30.7329C88.0015 30.5929 88.4309 30.5229 88.9349 30.5229C89.4949 30.5229 89.9662 30.5975 90.3489 30.7469C90.7315 30.8869 91.0302 31.0782 91.2449 31.3209C91.4689 31.5635 91.6275 31.8389 91.7209 32.1469C91.8235 32.4549 91.8749 32.7675 91.8749 33.0849V37.6209C91.8749 37.7142 91.8422 37.7935 91.7769 37.8589C91.7209 37.9149 91.6462 37.9429 91.5529 37.9429H90.9089C90.8062 37.9429 90.7269 37.9149 90.6709 37.8589C90.6149 37.7935 90.5869 37.7142 90.5869 37.6209V37.0189C90.4655 37.1869 90.3022 37.3549 90.0969 37.5229C89.8915 37.6815 89.6349 37.8169 89.3269 37.9289C89.0189 38.0315 88.6409 38.0829 88.1929 38.0829ZM88.4869 37.0329C88.8695 37.0329 89.2195 36.9535 89.5369 36.7949C89.8542 36.6269 90.1015 36.3702 90.2789 36.0249C90.4655 35.6795 90.5589 35.2455 90.5589 34.7229V34.3309L88.9349 34.5689C88.2722 34.6622 87.7729 34.8209 87.4369 35.0449C87.1009 35.2595 86.9329 35.5349 86.9329 35.8709C86.9329 36.1322 87.0075 36.3515 87.1569 36.5289C87.3155 36.6969 87.5115 36.8229 87.7449 36.9069C87.9875 36.9909 88.2349 37.0329 88.4869 37.0329ZM96.4075 38.0829C95.8848 38.0829 95.4368 38.0175 95.0635 37.8869C94.6902 37.7562 94.3868 37.5975 94.1535 37.4109C93.9202 37.2242 93.7428 37.0375 93.6215 36.8509C93.5095 36.6642 93.4488 36.5149 93.4395 36.4029C93.4302 36.3002 93.4628 36.2209 93.5375 36.1649C93.6122 36.1089 93.6868 36.0809 93.7615 36.0809H94.3775C94.4335 36.0809 94.4755 36.0902 94.5035 36.1089C94.5408 36.1182 94.5875 36.1555 94.6435 36.2209C94.7648 36.3515 94.9002 36.4822 95.0495 36.6129C95.1988 36.7435 95.3808 36.8509 95.5955 36.9349C95.8195 37.0189 96.0948 37.0609 96.4215 37.0609C96.8975 37.0609 97.2895 36.9722 97.5975 36.7949C97.9055 36.6082 98.0595 36.3375 98.0595 35.9829C98.0595 35.7495 97.9942 35.5629 97.8635 35.4229C97.7422 35.2829 97.5182 35.1569 97.1915 35.0449C96.8742 34.9329 96.4355 34.8162 95.8755 34.6949C95.3155 34.5642 94.8722 34.4055 94.5455 34.2189C94.2188 34.0229 93.9855 33.7942 93.8455 33.5329C93.7055 33.2622 93.6355 32.9589 93.6355 32.6229C93.6355 32.2775 93.7382 31.9462 93.9435 31.6289C94.1488 31.3022 94.4475 31.0362 94.8395 30.8309C95.2408 30.6255 95.7402 30.5229 96.3375 30.5229C96.8228 30.5229 97.2382 30.5835 97.5835 30.7049C97.9288 30.8262 98.2135 30.9802 98.4375 31.1669C98.6615 31.3442 98.8295 31.5215 98.9415 31.6989C99.0535 31.8762 99.1142 32.0255 99.1235 32.1469C99.1328 32.2402 99.1048 32.3195 99.0395 32.3849C98.9742 32.4409 98.8995 32.4689 98.8155 32.4689H98.2275C98.1622 32.4689 98.1062 32.4549 98.0595 32.4269C98.0222 32.3989 97.9848 32.3662 97.9475 32.3289C97.8542 32.2075 97.7422 32.0862 97.6115 31.9649C97.4902 31.8435 97.3268 31.7455 97.1215 31.6709C96.9255 31.5869 96.6642 31.5449 96.3375 31.5449C95.8708 31.5449 95.5208 31.6429 95.2875 31.8389C95.0542 32.0349 94.9375 32.2822 94.9375 32.5809C94.9375 32.7582 94.9888 32.9169 95.0915 33.0569C95.1942 33.1969 95.3902 33.3229 95.6795 33.4349C95.9688 33.5469 96.3982 33.6682 96.9675 33.7989C97.5835 33.9202 98.0688 34.0835 98.4235 34.2889C98.7782 34.4942 99.0302 34.7322 99.1795 35.0029C99.3288 35.2735 99.4035 35.5862 99.4035 35.9409C99.4035 36.3329 99.2868 36.6922 99.0535 37.0189C98.8295 37.3455 98.4935 37.6069 98.0455 37.8029C97.6068 37.9895 97.0608 38.0829 96.4075 38.0829ZM103.853 37.9429C103.33 37.9429 102.905 37.8449 102.579 37.6489C102.252 37.4435 102.014 37.1589 101.865 36.7949C101.715 36.4215 101.641 35.9829 101.641 35.4789V31.7829H100.549C100.455 31.7829 100.376 31.7549 100.311 31.6989C100.255 31.6335 100.227 31.5542 100.227 31.4609V30.9849C100.227 30.8915 100.255 30.8169 100.311 30.7609C100.376 30.6955 100.455 30.6629 100.549 30.6629H101.641V28.3249C101.641 28.2315 101.669 28.1569 101.725 28.1009C101.79 28.0355 101.869 28.0029 101.963 28.0029H102.621C102.714 28.0029 102.789 28.0355 102.845 28.1009C102.91 28.1569 102.943 28.2315 102.943 28.3249V30.6629H104.679C104.772 30.6629 104.847 30.6955 104.903 30.7609C104.968 30.8169 105.001 30.8915 105.001 30.9849V31.4609C105.001 31.5542 104.968 31.6335 104.903 31.6989C104.847 31.7549 104.772 31.7829 104.679 31.7829H102.943V35.3809C102.943 35.8195 103.017 36.1649 103.167 36.4169C103.316 36.6689 103.582 36.7949 103.965 36.7949H104.819C104.912 36.7949 104.987 36.8275 105.043 36.8929C105.108 36.9489 105.141 37.0235 105.141 37.1169V37.6209C105.141 37.7142 105.108 37.7935 105.043 37.8589C104.987 37.9149 104.912 37.9429 104.819 37.9429H103.853Z" fill="white"/>
</g>
<defs>
<filter id="filter0_b_212_9" x="-18.7429" y="-18.7429" width="173.371" height="87.1542" filterUnits="userSpaceOnUse" color-interpolation-filters="sRGB">
<feFlood flood-opacity="0" result="BackgroundImageFix"/>
<feGaussianBlur in="BackgroundImageFix" stdDeviation="9.37143"/>
<feComposite in2="SourceAlpha" operator="in" result="effect1_backgroundBlur_212_9"/>
<feBlend mode="normal" in="SourceGraphic" in2="effect1_backgroundBlur_212_9" result="shape"/>
</filter>
<clipPath id="clip0_212_9">
<rect width="135.886" height="49.6686" fill="white"/>
</clipPath>
</defs>
</svg>
