<svg width="92" height="92" viewBox="0 0 92 92" fill="none" xmlns="http://www.w3.org/2000/svg">
<path fill-rule="evenodd" clip-rule="evenodd" d="M3.43302 12.8814C3.21412 13.4491 3.13255 28.6207 3.2524 46.5967L3.47047 79.28L35.3058 79.4968C54.5352 79.6275 67.1412 79.4083 67.1412 78.9441C67.1412 75.9056 66.1874 75.5564 57.8969 75.5564H49.663V45.7675V15.9787H67.5574H85.4518V45.7675C85.4518 75.0045 85.421 75.5564 83.7872 75.5564C81.8521 75.5564 81.6948 76.3135 83.2037 78.3657C83.9237 79.3437 85.1072 79.7426 86.741 79.558L89.1971 79.28V45.7675V12.2551L46.5144 12.0523C13.0444 11.8943 3.74513 12.073 3.43302 12.8814ZM52.9922 25.9083C52.9922 27.502 53.5473 27.5632 67.9735 27.5632C82.3997 27.5632 82.9549 27.502 82.9549 25.9083C82.9549 24.3146 82.3997 24.2534 67.9735 24.2534C53.5473 24.2534 52.9922 24.3146 52.9922 25.9083ZM39.4673 26.1152C38.968 27.6046 10.4202 27.6046 9.92077 26.1152C9.65194 25.3133 12.9678 25.0808 24.694 25.0808C36.4203 25.0808 39.7362 25.3133 39.4673 26.1152ZM55.7221 34.6099C53.9959 35.8123 53.9743 35.9935 55.2086 38.9542C55.9169 40.6538 56.6318 42.1871 56.7983 42.3625C57.1303 42.7117 62.1474 40.7829 62.1474 40.3054C62.1474 40.1424 61.5448 38.5115 60.8083 36.6819C59.3509 33.0593 58.4662 32.6993 55.7221 34.6099ZM65.4766 40.7349C65.4766 43.7262 66.4687 44.1126 74.1383 44.1126C82.0884 44.1126 84.6303 43.2231 82.8334 41.0708C81.7663 39.7924 65.4766 39.4779 65.4766 40.7349ZM39.4682 42.2508C39.7362 43.0526 36.4336 43.2851 24.7631 43.2851C11.8384 43.2851 9.7127 43.1072 9.7127 42.0249C9.7127 40.9351 11.7027 40.7953 24.4177 40.9906C35.2759 41.1577 39.2126 41.487 39.4682 42.2508ZM59.8586 43.4705C58.8291 43.9628 57.9859 44.6893 57.9859 45.0857C57.9859 45.4812 59.172 48.614 60.6218 52.0472C63.1012 57.9214 63.3842 58.259 65.4075 57.7625C66.5894 57.4721 67.8703 56.9309 68.254 56.5602C69.0222 55.8147 63.6955 43.0733 62.487 42.7671C62.0717 42.662 60.8882 42.979 59.8586 43.4705ZM39.2593 58.1796C39.2593 59.2247 37.087 59.453 25.5263 59.626C12.163 59.8254 8.88206 59.3579 10.0831 57.4257C10.4917 56.7687 14.9728 56.5544 24.9629 56.7125C37.0145 56.9028 39.2593 57.1328 39.2593 58.1796ZM52.9922 58.1796C52.9922 59.6152 53.5473 59.8345 57.1828 59.8345C61.1154 59.8345 61.3185 59.7327 60.4828 58.1796C59.822 56.9516 58.74 56.5246 56.2922 56.5246C53.5473 56.5246 52.9922 56.8027 52.9922 58.1796ZM74.6319 58.1796C75.3185 59.4555 76.3747 59.8345 79.2387 59.8345C82.3997 59.8345 82.9549 59.5871 82.9549 58.1796C82.9549 56.724 82.3997 56.5246 78.3481 56.5246C73.9993 56.5246 73.7913 56.6173 74.6319 58.1796ZM65.6847 59.8254C64.1974 60.7273 62.9797 61.6285 62.9797 61.8279C62.9797 62.7257 72.3672 84.2415 73.5258 85.9999C75.2786 88.6594 79.1263 88.6685 80.8741 86.0164C82.3681 83.7484 82.5179 84.3077 76.4738 69.5573C71.3427 57.0352 70.9182 56.6529 65.6847 59.8254Z" fill="url(#paint0_linear_2_10379)"/>
<defs>
<linearGradient id="paint0_linear_2_10379" x1="12.1554" y1="22.2917" x2="80.0181" y2="96.4049" gradientUnits="userSpaceOnUse">
<stop stop-color="#0076BE"/>
<stop offset="1" stop-color="#95D8EB"/>
</linearGradient>
</defs>
</svg>
