<svg width="92" height="92" viewBox="0 0 92 92" fill="none" xmlns="http://www.w3.org/2000/svg">
<path fill-rule="evenodd" clip-rule="evenodd" d="M26.3551 1.00268C25.5116 1.84645 25.3519 3.9884 25.3519 14.4518C25.3519 26.8804 25.3545 26.9027 27.1079 29.8839L28.8639 32.8697L29.0369 20.2643L29.21 7.65895H47.3949H65.5799V35.7418V63.8246H47.3815H29.1832L29.1532 50.9001L29.1231 37.9756L27.2675 41.486L25.412 44.9963L25.3819 59.0984C25.3545 71.9718 25.4535 73.2923 26.5198 74.2567C27.553 75.1911 29.9443 75.313 47.2723 75.313C66.0058 75.313 66.9125 75.2575 68.134 74.0365C69.3798 72.7913 69.4111 71.9092 69.4111 37.7988C69.4111 7.18856 69.2872 2.66021 68.4169 1.41882C67.4259 0.00382948 67.3678 0 47.3911 0C30.0311 0 27.2248 0.134032 26.3551 1.00268ZM36.2071 4.1486C36.2071 4.67515 35.7761 5.10597 35.2493 5.10597C34.7225 5.10597 34.2915 4.67515 34.2915 4.1486C34.2915 3.62205 34.7225 3.19123 35.2493 3.19123C35.7761 3.19123 36.2071 3.62205 36.2071 4.1486ZM50.4146 4.29986C48.5711 4.42879 45.5534 4.42879 43.7099 4.29986C41.8658 4.17094 43.3747 4.06563 47.0622 4.06563C50.7498 4.06563 52.258 4.17094 50.4146 4.29986ZM70.4756 11.2759C70.2412 11.5095 70.0643 16.4642 70.0829 22.2856L70.1154 32.8697L73.8809 25.5298C78.1374 17.2326 78.5531 14.8239 76.1445 12.4171C74.6567 10.9293 71.4647 10.2866 70.4756 11.2759ZM15.8083 37.975C12.6214 44.4685 9.69751 51.2556 9.31119 53.0574C8.92424 54.8591 8.72118 59.0958 8.85847 62.4721C9.07238 67.7045 9.40378 69.2395 11.1036 72.8615C13.9808 78.9925 17.1716 81.735 27.5772 87.0223L36.5264 91.5698L42.2732 91.5787C47.4166 91.587 48.3674 91.3962 51.3277 89.7559C53.1462 88.7487 55.4807 86.8716 56.5152 85.5856C58.1869 83.5055 61.7486 77.1812 61.7486 76.2914C61.7486 76.1044 53.8914 75.9513 44.2878 75.9513C28.1832 75.9513 26.7446 75.8606 25.7702 74.7839C24.8622 73.7812 24.7134 71.8486 24.7134 61.0616C24.7134 50.2861 24.5767 48.5067 23.7486 48.5067C23.0213 48.5067 23.414 47.2538 25.3449 43.4148C28.3377 37.4644 28.7055 33.6751 26.6175 30.2988C25.5071 28.5028 22.8431 26.1681 21.9032 26.1681C21.7378 26.1681 18.9953 31.4808 15.8083 37.975ZM74.6497 27.8084C73.863 28.3592 72.4997 30.2292 71.6205 31.9634C70.0611 35.0391 70.026 35.4112 70.1952 47.077L70.3689 59.0377L76.951 45.985C84.0541 31.8983 84.2648 31.0111 81.1647 28.2424C79.2868 26.5657 76.6732 26.3915 74.6497 27.8084ZM49.2518 67.3802C49.8035 67.9323 50.2549 68.7735 50.2549 69.2497C50.2549 70.2568 48.5398 72.1218 47.6133 72.1218C46.114 72.1218 44.5081 70.6908 44.5081 69.355C44.5081 66.5703 47.2845 65.4145 49.2518 67.3802Z" fill="url(#paint0_linear_2_10371)"/>
<defs>
<linearGradient id="paint0_linear_2_10371" x1="16.5503" y1="12.4013" x2="96.2335" y2="74.7556" gradientUnits="userSpaceOnUse">
<stop stop-color="#0076BE"/>
<stop offset="1" stop-color="#95D8EB"/>
</linearGradient>
</defs>
</svg>
