<svg width="265" height="50" viewBox="0 0 265 50" fill="none" xmlns="http://www.w3.org/2000/svg">
<circle opacity="0.23" cx="246.937" cy="24.8343" r="12.6514" fill="white"/>
<circle opacity="0.23" cx="246.937" cy="24.8342" r="17.3371" fill="white"/>
<circle opacity="0.8" cx="246.937" cy="24.8344" r="7.96571" fill="white"/>
<path d="M229.6 24.8342L144.32 24.8342" stroke="white" stroke-width="0.937143" stroke-linecap="round"/>
<g clip-path="url(#clip0_212_8)">
<g filter="url(#filter0_b_212_8)">
<rect width="135.886" height="49.6686" rx="3.74857" fill="#FF9817" fill-opacity="0.1"/>
<rect x="0.234286" y="0.234286" width="135.417" height="49.2" rx="3.51429" stroke="#FF9817" stroke-width="0.468571"/>
</g>
<path opacity="0.7" d="M13.6174 21.1428C13.5147 21.1428 13.4354 21.1148 13.3794 21.0588C13.3234 20.9935 13.2954 20.9142 13.2954 20.8208V11.6648C13.2954 11.5715 13.3234 11.4968 13.3794 11.4408C13.4354 11.3755 13.5147 11.3428 13.6174 11.3428H14.3594C14.4527 11.3428 14.5274 11.3755 14.5834 11.4408C14.6394 11.4968 14.6674 11.5715 14.6674 11.6648V19.9248H19.3294C19.4321 19.9248 19.5114 19.9575 19.5674 20.0228C19.6234 20.0788 19.6514 20.1582 19.6514 20.2608V20.8208C19.6514 20.9142 19.6234 20.9935 19.5674 21.0588C19.5114 21.1148 19.4321 21.1428 19.3294 21.1428H13.6174ZM23.0321 21.2828C22.5654 21.2828 22.1407 21.1895 21.7581 21.0028C21.3754 20.8162 21.0674 20.5642 20.8341 20.2468C20.6007 19.9295 20.4841 19.5702 20.4841 19.1688C20.4841 18.5248 20.7454 18.0115 21.2681 17.6288C21.7907 17.2462 22.4721 16.9942 23.3121 16.8728L25.3981 16.5788V16.1728C25.3981 15.7248 25.2674 15.3748 25.0061 15.1228C24.7541 14.8708 24.3387 14.7448 23.7601 14.7448C23.3401 14.7448 22.9994 14.8288 22.7381 14.9968C22.4861 15.1648 22.3087 15.3795 22.2061 15.6408C22.1501 15.7808 22.0521 15.8508 21.9121 15.8508H21.2821C21.1794 15.8508 21.1001 15.8228 21.0441 15.7668C20.9974 15.7015 20.9741 15.6268 20.9741 15.5428C20.9741 15.4028 21.0254 15.2302 21.1281 15.0248C21.2401 14.8195 21.4081 14.6188 21.6321 14.4228C21.8561 14.2268 22.1407 14.0635 22.4861 13.9328C22.8407 13.7928 23.2701 13.7228 23.7741 13.7228C24.3341 13.7228 24.8054 13.7975 25.1881 13.9468C25.5707 14.0868 25.8694 14.2782 26.0841 14.5208C26.3081 14.7635 26.4667 15.0388 26.5601 15.3468C26.6627 15.6548 26.7141 15.9675 26.7141 16.2848V20.8208C26.7141 20.9142 26.6814 20.9935 26.6161 21.0588C26.5601 21.1148 26.4854 21.1428 26.3921 21.1428H25.7481C25.6454 21.1428 25.5661 21.1148 25.5101 21.0588C25.4541 20.9935 25.4261 20.9142 25.4261 20.8208V20.2188C25.3047 20.3868 25.1414 20.5548 24.9361 20.7228C24.7307 20.8815 24.4741 21.0168 24.1661 21.1288C23.8581 21.2315 23.4801 21.2828 23.0321 21.2828ZM23.3261 20.2328C23.7087 20.2328 24.0587 20.1535 24.3761 19.9948C24.6934 19.8268 24.9407 19.5702 25.1181 19.2248C25.3047 18.8795 25.3981 18.4455 25.3981 17.9228V17.5308L23.7741 17.7688C23.1114 17.8622 22.6121 18.0208 22.2761 18.2448C21.9401 18.4595 21.7721 18.7348 21.7721 19.0708C21.7721 19.3322 21.8467 19.5515 21.9961 19.7288C22.1547 19.8968 22.3507 20.0228 22.5841 20.1068C22.8267 20.1908 23.0741 20.2328 23.3261 20.2328ZM31.5003 21.1428C30.9776 21.1428 30.553 21.0448 30.2263 20.8488C29.8996 20.6435 29.6616 20.3588 29.5123 19.9948C29.363 19.6215 29.2883 19.1828 29.2883 18.6788V14.9828H28.1963C28.103 14.9828 28.0236 14.9548 27.9583 14.8988C27.9023 14.8335 27.8743 14.7542 27.8743 14.6608V14.1848C27.8743 14.0915 27.9023 14.0168 27.9583 13.9608C28.0236 13.8955 28.103 13.8628 28.1963 13.8628H29.2883V11.5248C29.2883 11.4315 29.3163 11.3568 29.3723 11.3008C29.4376 11.2355 29.517 11.2028 29.6103 11.2028H30.2683C30.3616 11.2028 30.4363 11.2355 30.4923 11.3008C30.5576 11.3568 30.5903 11.4315 30.5903 11.5248V13.8628H32.3263C32.4196 13.8628 32.4943 13.8955 32.5503 13.9608C32.6156 14.0168 32.6483 14.0915 32.6483 14.1848V14.6608C32.6483 14.7542 32.6156 14.8335 32.5503 14.8988C32.4943 14.9548 32.4196 14.9828 32.3263 14.9828H30.5903V18.5808C30.5903 19.0195 30.665 19.3648 30.8143 19.6168C30.9636 19.8688 31.2296 19.9948 31.6123 19.9948H32.4663C32.5596 19.9948 32.6343 20.0275 32.6903 20.0928C32.7556 20.1488 32.7883 20.2235 32.7883 20.3168V20.8208C32.7883 20.9142 32.7556 20.9935 32.6903 21.0588C32.6343 21.1148 32.5596 21.1428 32.4663 21.1428H31.5003ZM34.4491 21.1428C34.3557 21.1428 34.2764 21.1148 34.2111 21.0588C34.1551 20.9935 34.1271 20.9142 34.1271 20.8208V14.1848C34.1271 14.0915 34.1551 14.0168 34.2111 13.9608C34.2764 13.8955 34.3557 13.8628 34.4491 13.8628H35.1211C35.2144 13.8628 35.2891 13.8955 35.3451 13.9608C35.4011 14.0168 35.4291 14.0915 35.4291 14.1848V20.8208C35.4291 20.9142 35.4011 20.9935 35.3451 21.0588C35.2891 21.1148 35.2144 21.1428 35.1211 21.1428H34.4491ZM34.3371 12.5048C34.2437 12.5048 34.1644 12.4768 34.0991 12.4208C34.0431 12.3555 34.0151 12.2762 34.0151 12.1828V11.4268C34.0151 11.3335 34.0431 11.2588 34.0991 11.2028C34.1644 11.1375 34.2437 11.1048 34.3371 11.1048H35.2191C35.3124 11.1048 35.3871 11.1375 35.4431 11.2028C35.5084 11.2588 35.5411 11.3335 35.5411 11.4268V12.1828C35.5411 12.2762 35.5084 12.3555 35.4431 12.4208C35.3871 12.4768 35.3124 12.5048 35.2191 12.5048H34.3371ZM37.9764 21.1428C37.8831 21.1428 37.8037 21.1148 37.7384 21.0588C37.6824 20.9935 37.6544 20.9142 37.6544 20.8208V14.1848C37.6544 14.0915 37.6824 14.0168 37.7384 13.9608C37.8037 13.8955 37.8831 13.8628 37.9764 13.8628H38.6344C38.7277 13.8628 38.8024 13.8955 38.8584 13.9608C38.9237 14.0168 38.9564 14.0915 38.9564 14.1848V14.8008C39.1991 14.4835 39.5024 14.2268 39.8664 14.0308C40.2397 13.8255 40.7157 13.7228 41.2944 13.7228C41.9011 13.7228 42.4144 13.8582 42.8344 14.1288C43.2637 14.3902 43.5857 14.7588 43.8004 15.2348C44.0151 15.7015 44.1224 16.2475 44.1224 16.8728V20.8208C44.1224 20.9142 44.0944 20.9935 44.0384 21.0588C43.9824 21.1148 43.9077 21.1428 43.8144 21.1428H43.1144C43.0211 21.1428 42.9417 21.1148 42.8764 21.0588C42.8204 20.9935 42.7924 20.9142 42.7924 20.8208V16.9428C42.7924 16.2895 42.6337 15.7808 42.3164 15.4168C41.9991 15.0435 41.5324 14.8568 40.9164 14.8568C40.3377 14.8568 39.8711 15.0435 39.5164 15.4168C39.1711 15.7808 38.9984 16.2895 38.9984 16.9428V20.8208C38.9984 20.9142 38.9657 20.9935 38.9004 21.0588C38.8444 21.1148 38.7697 21.1428 38.6764 21.1428H37.9764ZM48.7311 21.1428C48.6565 21.1428 48.5911 21.1148 48.5351 21.0588C48.4791 21.0028 48.4511 20.9375 48.4511 20.8628C48.4511 20.8162 48.4558 20.7648 48.4651 20.7088L51.9371 11.6508C51.9745 11.5575 52.0258 11.4828 52.0911 11.4268C52.1565 11.3708 52.2545 11.3428 52.3851 11.3428H53.3371C53.4585 11.3428 53.5518 11.3708 53.6171 11.4268C53.6918 11.4828 53.7478 11.5575 53.7851 11.6508L57.2431 20.7088C57.2618 20.7648 57.2711 20.8162 57.2711 20.8628C57.2711 20.9375 57.2431 21.0028 57.1871 21.0588C57.1311 21.1148 57.0658 21.1428 56.9911 21.1428H56.2771C56.1651 21.1428 56.0811 21.1148 56.0251 21.0588C55.9785 21.0028 55.9458 20.9515 55.9271 20.9048L55.1571 18.9168H50.5651L49.7951 20.9048C49.7858 20.9515 49.7531 21.0028 49.6971 21.0588C49.6411 21.1148 49.5571 21.1428 49.4451 21.1428H48.7311ZM50.9711 17.7128H54.7511L52.8611 12.7428L50.9711 17.7128ZM58.908 21.1428C58.8147 21.1428 58.7354 21.1148 58.67 21.0588C58.614 20.9935 58.586 20.9142 58.586 20.8208V14.1848C58.586 14.0915 58.614 14.0168 58.67 13.9608C58.7354 13.8955 58.8147 13.8628 58.908 13.8628H59.538C59.6314 13.8628 59.706 13.8955 59.762 13.9608C59.8274 14.0168 59.86 14.0915 59.86 14.1848V14.6748C60.0747 14.3855 60.3454 14.1568 60.672 13.9888C60.9987 13.8115 61.3907 13.7228 61.848 13.7228C62.9027 13.7135 63.6494 14.1428 64.088 15.0108C64.3027 14.6188 64.6154 14.3062 65.026 14.0728C65.4367 13.8395 65.9034 13.7228 66.426 13.7228C66.9114 13.7228 67.35 13.8348 67.742 14.0588C68.1434 14.2828 68.456 14.6235 68.68 15.0808C68.9134 15.5288 69.03 16.0935 69.03 16.7748V20.8208C69.03 20.9142 68.9974 20.9935 68.932 21.0588C68.876 21.1148 68.8014 21.1428 68.708 21.1428H68.05C67.9567 21.1428 67.8774 21.1148 67.812 21.0588C67.756 20.9935 67.728 20.9142 67.728 20.8208V16.9008C67.728 16.3782 67.6534 15.9675 67.504 15.6688C67.3547 15.3702 67.154 15.1602 66.902 15.0388C66.65 14.9175 66.3747 14.8568 66.076 14.8568C65.8334 14.8568 65.586 14.9175 65.334 15.0388C65.082 15.1602 64.872 15.3702 64.704 15.6688C64.5454 15.9675 64.466 16.3782 64.466 16.9008V20.8208C64.466 20.9142 64.4334 20.9935 64.368 21.0588C64.312 21.1148 64.2374 21.1428 64.144 21.1428H63.486C63.3927 21.1428 63.3134 21.1148 63.248 21.0588C63.192 20.9935 63.164 20.9142 63.164 20.8208V16.9008C63.164 16.3782 63.0847 15.9675 62.926 15.6688C62.7674 15.3702 62.562 15.1602 62.31 15.0388C62.058 14.9175 61.792 14.8568 61.512 14.8568C61.2694 14.8568 61.022 14.9175 60.77 15.0388C60.518 15.1602 60.308 15.3702 60.14 15.6688C59.9814 15.9675 59.902 16.3735 59.902 16.8868V20.8208C59.902 20.9142 59.8694 20.9935 59.804 21.0588C59.748 21.1148 59.6734 21.1428 59.58 21.1428H58.908ZM71.3495 21.1428C71.2561 21.1428 71.1768 21.1148 71.1115 21.0588C71.0555 20.9935 71.0275 20.9142 71.0275 20.8208V14.1848C71.0275 14.0915 71.0555 14.0168 71.1115 13.9608C71.1768 13.8955 71.2561 13.8628 71.3495 13.8628H72.0215C72.1148 13.8628 72.1895 13.8955 72.2455 13.9608C72.3015 14.0168 72.3295 14.0915 72.3295 14.1848V20.8208C72.3295 20.9142 72.3015 20.9935 72.2455 21.0588C72.1895 21.1148 72.1148 21.1428 72.0215 21.1428H71.3495ZM71.2375 12.5048C71.1441 12.5048 71.0648 12.4768 70.9995 12.4208C70.9435 12.3555 70.9155 12.2762 70.9155 12.1828V11.4268C70.9155 11.3335 70.9435 11.2588 70.9995 11.2028C71.0648 11.1375 71.1441 11.1048 71.2375 11.1048H72.1195C72.2128 11.1048 72.2875 11.1375 72.3435 11.2028C72.4088 11.2588 72.4415 11.3335 72.4415 11.4268V12.1828C72.4415 12.2762 72.4088 12.3555 72.3435 12.4208C72.2875 12.4768 72.2128 12.5048 72.1195 12.5048H71.2375ZM74.8768 21.1428C74.7835 21.1428 74.7041 21.1148 74.6388 21.0588C74.5828 20.9935 74.5548 20.9142 74.5548 20.8208V14.1988C74.5548 14.1055 74.5828 14.0262 74.6388 13.9608C74.7041 13.8955 74.7835 13.8628 74.8768 13.8628H75.5208C75.6141 13.8628 75.6935 13.8955 75.7588 13.9608C75.8241 14.0262 75.8568 14.1055 75.8568 14.1988V14.8148C76.0435 14.4975 76.3001 14.2595 76.6268 14.1008C76.9535 13.9422 77.3455 13.8628 77.8028 13.8628H78.3628C78.4561 13.8628 78.5308 13.8955 78.5868 13.9608C78.6428 14.0168 78.6708 14.0915 78.6708 14.1848V14.7588C78.6708 14.8522 78.6428 14.9268 78.5868 14.9828C78.5308 15.0388 78.4561 15.0668 78.3628 15.0668H77.5228C77.0188 15.0668 76.6221 15.2162 76.3328 15.5148C76.0435 15.8042 75.8988 16.2008 75.8988 16.7048V20.8208C75.8988 20.9142 75.8661 20.9935 75.8008 21.0588C75.7355 21.1148 75.6561 21.1428 75.5628 21.1428H74.8768ZM80.1952 21.1428C80.1018 21.1428 80.0225 21.1148 79.9572 21.0588C79.9012 20.9935 79.8732 20.9142 79.8732 20.8208V14.1848C79.8732 14.0915 79.9012 14.0168 79.9572 13.9608C80.0225 13.8955 80.1018 13.8628 80.1952 13.8628H80.8672C80.9605 13.8628 81.0352 13.8955 81.0912 13.9608C81.1472 14.0168 81.1752 14.0915 81.1752 14.1848V20.8208C81.1752 20.9142 81.1472 20.9935 81.0912 21.0588C81.0352 21.1148 80.9605 21.1428 80.8672 21.1428H80.1952ZM80.0832 12.5048C79.9898 12.5048 79.9105 12.4768 79.8452 12.4208C79.7892 12.3555 79.7612 12.2762 79.7612 12.1828V11.4268C79.7612 11.3335 79.7892 11.2588 79.8452 11.2028C79.9105 11.1375 79.9898 11.1048 80.0832 11.1048H80.9652C81.0585 11.1048 81.1332 11.1375 81.1892 11.2028C81.2545 11.2588 81.2872 11.3335 81.2872 11.4268V12.1828C81.2872 12.2762 81.2545 12.3555 81.1892 12.4208C81.1332 12.4768 81.0585 12.5048 80.9652 12.5048H80.0832ZM86.2311 21.2828C85.5685 21.2828 84.9945 21.1568 84.5091 20.9048C84.0331 20.6435 83.6645 20.2748 83.4031 19.7988C83.1418 19.3135 83.0018 18.7348 82.9831 18.0628C82.9738 17.9228 82.9691 17.7362 82.9691 17.5028C82.9691 17.2695 82.9738 17.0828 82.9831 16.9428C83.0018 16.2708 83.1418 15.6968 83.4031 15.2208C83.6645 14.7355 84.0331 14.3668 84.5091 14.1148C84.9945 13.8535 85.5685 13.7228 86.2311 13.7228C86.7725 13.7228 87.2345 13.7975 87.6171 13.9468C88.0091 14.0962 88.3311 14.2875 88.5831 14.5208C88.8351 14.7542 89.0218 15.0062 89.1431 15.2768C89.2738 15.5475 89.3438 15.8042 89.3531 16.0468C89.3625 16.1402 89.3345 16.2148 89.2691 16.2708C89.2038 16.3268 89.1245 16.3548 89.0311 16.3548H88.3591C88.2658 16.3548 88.1958 16.3362 88.1491 16.2988C88.1025 16.2522 88.0558 16.1775 88.0091 16.0748C87.8411 15.6175 87.6125 15.2955 87.3231 15.1088C87.0338 14.9222 86.6745 14.8288 86.2451 14.8288C85.6851 14.8288 85.2278 15.0015 84.8731 15.3468C84.5278 15.6922 84.3411 16.2475 84.3131 17.0128C84.3038 17.3488 84.3038 17.6755 84.3131 17.9928C84.3411 18.7675 84.5278 19.3275 84.8731 19.6728C85.2278 20.0088 85.6851 20.1768 86.2451 20.1768C86.6745 20.1768 87.0338 20.0835 87.3231 19.8968C87.6125 19.7102 87.8411 19.3882 88.0091 18.9308C88.0558 18.8282 88.1025 18.7582 88.1491 18.7208C88.1958 18.6742 88.2658 18.6508 88.3591 18.6508H89.0311C89.1245 18.6508 89.2038 18.6788 89.2691 18.7348C89.3345 18.7908 89.3625 18.8655 89.3531 18.9588C89.3438 19.1548 89.3018 19.3555 89.2271 19.5608C89.1525 19.7662 89.0311 19.9762 88.8631 20.1908C88.7045 20.3962 88.5038 20.5828 88.2611 20.7508C88.0185 20.9095 87.7245 21.0402 87.3791 21.1428C87.0431 21.2362 86.6605 21.2828 86.2311 21.2828ZM93.0457 21.2828C92.5791 21.2828 92.1544 21.1895 91.7717 21.0028C91.3891 20.8162 91.0811 20.5642 90.8477 20.2468C90.6144 19.9295 90.4977 19.5702 90.4977 19.1688C90.4977 18.5248 90.7591 18.0115 91.2817 17.6288C91.8044 17.2462 92.4857 16.9942 93.3257 16.8728L95.4117 16.5788V16.1728C95.4117 15.7248 95.2811 15.3748 95.0197 15.1228C94.7677 14.8708 94.3524 14.7448 93.7737 14.7448C93.3537 14.7448 93.0131 14.8288 92.7517 14.9968C92.4997 15.1648 92.3224 15.3795 92.2197 15.6408C92.1637 15.7808 92.0657 15.8508 91.9257 15.8508H91.2957C91.1931 15.8508 91.1137 15.8228 91.0577 15.7668C91.0111 15.7015 90.9877 15.6268 90.9877 15.5428C90.9877 15.4028 91.0391 15.2302 91.1417 15.0248C91.2537 14.8195 91.4217 14.6188 91.6457 14.4228C91.8697 14.2268 92.1544 14.0635 92.4997 13.9328C92.8544 13.7928 93.2837 13.7228 93.7877 13.7228C94.3477 13.7228 94.8191 13.7975 95.2017 13.9468C95.5844 14.0868 95.8831 14.2782 96.0977 14.5208C96.3217 14.7635 96.4804 15.0388 96.5737 15.3468C96.6764 15.6548 96.7277 15.9675 96.7277 16.2848V20.8208C96.7277 20.9142 96.6951 20.9935 96.6297 21.0588C96.5737 21.1148 96.4991 21.1428 96.4057 21.1428H95.7617C95.6591 21.1428 95.5797 21.1148 95.5237 21.0588C95.4677 20.9935 95.4397 20.9142 95.4397 20.8208V20.2188C95.3184 20.3868 95.1551 20.5548 94.9497 20.7228C94.7444 20.8815 94.4877 21.0168 94.1797 21.1288C93.8717 21.2315 93.4937 21.2828 93.0457 21.2828ZM93.3397 20.2328C93.7224 20.2328 94.0724 20.1535 94.3897 19.9948C94.7071 19.8268 94.9544 19.5702 95.1317 19.2248C95.3184 18.8795 95.4117 18.4455 95.4117 17.9228V17.5308L93.7877 17.7688C93.1251 17.8622 92.6257 18.0208 92.2897 18.2448C91.9537 18.4595 91.7857 18.7348 91.7857 19.0708C91.7857 19.3322 91.8604 19.5515 92.0097 19.7288C92.1684 19.8968 92.3644 20.0228 92.5977 20.1068C92.8404 20.1908 93.0877 20.2328 93.3397 20.2328ZM104.202 21.2828C103.735 21.2828 103.311 21.1895 102.928 21.0028C102.545 20.8162 102.237 20.5642 102.004 20.2468C101.771 19.9295 101.654 19.5702 101.654 19.1688C101.654 18.5248 101.915 18.0115 102.438 17.6288C102.961 17.2462 103.642 16.9942 104.482 16.8728L106.568 16.5788V16.1728C106.568 15.7248 106.437 15.3748 106.176 15.1228C105.924 14.8708 105.509 14.7448 104.93 14.7448C104.51 14.7448 104.169 14.8288 103.908 14.9968C103.656 15.1648 103.479 15.3795 103.376 15.6408C103.32 15.7808 103.222 15.8508 103.082 15.8508H102.452C102.349 15.8508 102.27 15.8228 102.214 15.7668C102.167 15.7015 102.144 15.6268 102.144 15.5428C102.144 15.4028 102.195 15.2302 102.298 15.0248C102.41 14.8195 102.578 14.6188 102.802 14.4228C103.026 14.2268 103.311 14.0635 103.656 13.9328C104.011 13.7928 104.44 13.7228 104.944 13.7228C105.504 13.7228 105.975 13.7975 106.358 13.9468C106.741 14.0868 107.039 14.2782 107.254 14.5208C107.478 14.7635 107.637 15.0388 107.73 15.3468C107.833 15.6548 107.884 15.9675 107.884 16.2848V20.8208C107.884 20.9142 107.851 20.9935 107.786 21.0588C107.73 21.1148 107.655 21.1428 107.562 21.1428H106.918C106.815 21.1428 106.736 21.1148 106.68 21.0588C106.624 20.9935 106.596 20.9142 106.596 20.8208V20.2188C106.475 20.3868 106.311 20.5548 106.106 20.7228C105.901 20.8815 105.644 21.0168 105.336 21.1288C105.028 21.2315 104.65 21.2828 104.202 21.2828ZM104.496 20.2328C104.879 20.2328 105.229 20.1535 105.546 19.9948C105.863 19.8268 106.111 19.5702 106.288 19.2248C106.475 18.8795 106.568 18.4455 106.568 17.9228V17.5308L104.944 17.7688C104.281 17.8622 103.782 18.0208 103.446 18.2448C103.11 18.4595 102.942 18.7348 102.942 19.0708C102.942 19.3322 103.017 19.5515 103.166 19.7288C103.325 19.8968 103.521 20.0228 103.754 20.1068C103.997 20.1908 104.244 20.2328 104.496 20.2328ZM110.219 21.1428C110.125 21.1428 110.046 21.1148 109.981 21.0588C109.925 20.9935 109.897 20.9142 109.897 20.8208V14.1848C109.897 14.0915 109.925 14.0168 109.981 13.9608C110.046 13.8955 110.125 13.8628 110.219 13.8628H110.877C110.97 13.8628 111.045 13.8955 111.101 13.9608C111.166 14.0168 111.199 14.0915 111.199 14.1848V14.8008C111.441 14.4835 111.745 14.2268 112.109 14.0308C112.482 13.8255 112.958 13.7228 113.537 13.7228C114.143 13.7228 114.657 13.8582 115.077 14.1288C115.506 14.3902 115.828 14.7588 116.043 15.2348C116.257 15.7015 116.365 16.2475 116.365 16.8728V20.8208C116.365 20.9142 116.337 20.9935 116.281 21.0588C116.225 21.1148 116.15 21.1428 116.057 21.1428H115.357C115.263 21.1428 115.184 21.1148 115.119 21.0588C115.063 20.9935 115.035 20.9142 115.035 20.8208V16.9428C115.035 16.2895 114.876 15.7808 114.559 15.4168C114.241 15.0435 113.775 14.8568 113.159 14.8568C112.58 14.8568 112.113 15.0435 111.759 15.4168C111.413 15.7808 111.241 16.2895 111.241 16.9428V20.8208C111.241 20.9142 111.208 20.9935 111.143 21.0588C111.087 21.1148 111.012 21.1428 110.919 21.1428H110.219ZM121.047 21.2828C120.533 21.2828 120.09 21.1942 119.717 21.0168C119.343 20.8302 119.035 20.5828 118.793 20.2748C118.559 19.9575 118.382 19.5982 118.261 19.1968C118.149 18.7955 118.083 18.3708 118.065 17.9228C118.055 17.7735 118.051 17.6335 118.051 17.5028C118.051 17.3722 118.055 17.2322 118.065 17.0828C118.083 16.6442 118.149 16.2242 118.261 15.8228C118.382 15.4215 118.559 15.0622 118.793 14.7448C119.035 14.4275 119.343 14.1802 119.717 14.0028C120.09 13.8162 120.533 13.7228 121.047 13.7228C121.597 13.7228 122.055 13.8208 122.419 14.0168C122.783 14.2128 123.081 14.4555 123.315 14.7448V11.5248C123.315 11.4315 123.343 11.3568 123.399 11.3008C123.464 11.2355 123.543 11.2028 123.637 11.2028H124.309C124.402 11.2028 124.477 11.2355 124.533 11.3008C124.598 11.3568 124.631 11.4315 124.631 11.5248V20.8208C124.631 20.9142 124.598 20.9935 124.533 21.0588C124.477 21.1148 124.402 21.1428 124.309 21.1428H123.679C123.576 21.1428 123.497 21.1148 123.441 21.0588C123.385 20.9935 123.357 20.9142 123.357 20.8208V20.2328C123.123 20.5315 122.82 20.7835 122.447 20.9888C122.073 21.1848 121.607 21.2828 121.047 21.2828ZM121.341 20.1488C121.807 20.1488 122.181 20.0415 122.461 19.8268C122.741 19.6122 122.951 19.3415 123.091 19.0148C123.231 18.6788 123.305 18.3382 123.315 17.9928C123.324 17.8435 123.329 17.6662 123.329 17.4608C123.329 17.2462 123.324 17.0642 123.315 16.9148C123.305 16.5882 123.226 16.2662 123.077 15.9488C122.937 15.6315 122.722 15.3702 122.433 15.1648C122.153 14.9595 121.789 14.8568 121.341 14.8568C120.865 14.8568 120.487 14.9642 120.207 15.1788C119.927 15.3842 119.726 15.6595 119.605 16.0048C119.483 16.3408 119.413 16.7048 119.395 17.0968C119.385 17.3675 119.385 17.6382 119.395 17.9088C119.413 18.3008 119.483 18.6695 119.605 19.0148C119.726 19.3508 119.927 19.6262 120.207 19.8408C120.487 20.0462 120.865 20.1488 121.341 20.1488ZM30.7552 38.1428C30.2325 38.1428 29.8079 38.0448 29.4812 37.8488C29.1545 37.6435 28.9165 37.3588 28.7672 36.9948C28.6179 36.6215 28.5432 36.1828 28.5432 35.6788V31.9828H27.4512C27.3579 31.9828 27.2785 31.9548 27.2132 31.8988C27.1572 31.8335 27.1292 31.7542 27.1292 31.6608V31.1848C27.1292 31.0915 27.1572 31.0168 27.2132 30.9608C27.2785 30.8955 27.3579 30.8628 27.4512 30.8628H28.5432V28.5248C28.5432 28.4315 28.5712 28.3568 28.6272 28.3008C28.6925 28.2355 28.7719 28.2028 28.8652 28.2028H29.5232C29.6165 28.2028 29.6912 28.2355 29.7472 28.3008C29.8125 28.3568 29.8452 28.4315 29.8452 28.5248V30.8628H31.5812C31.6745 30.8628 31.7492 30.8955 31.8052 30.9608C31.8705 31.0168 31.9032 31.0915 31.9032 31.1848V31.6608C31.9032 31.7542 31.8705 31.8335 31.8052 31.8988C31.7492 31.9548 31.6745 31.9828 31.5812 31.9828H29.8452V35.5808C29.8452 36.0195 29.9199 36.3648 30.0692 36.6168C30.2185 36.8688 30.4845 36.9948 30.8672 36.9948H31.7212C31.8145 36.9948 31.8892 37.0275 31.9452 37.0928C32.0105 37.1488 32.0432 37.2235 32.0432 37.3168V37.8208C32.0432 37.9142 32.0105 37.9935 31.9452 38.0588C31.8892 38.1148 31.8145 38.1428 31.7212 38.1428H30.7552ZM33.7179 38.1428C33.6246 38.1428 33.5453 38.1148 33.4799 38.0588C33.4239 37.9935 33.3959 37.9142 33.3959 37.8208V28.5248C33.3959 28.4315 33.4239 28.3568 33.4799 28.3008C33.5453 28.2355 33.6246 28.2028 33.7179 28.2028H34.4179C34.5206 28.2028 34.5999 28.2355 34.6559 28.3008C34.7119 28.3568 34.7399 28.4315 34.7399 28.5248V31.7868C34.9919 31.4695 35.2999 31.2128 35.6639 31.0168C36.0279 30.8208 36.4899 30.7228 37.0499 30.7228C37.6566 30.7228 38.1699 30.8582 38.5899 31.1288C39.0193 31.3902 39.3413 31.7588 39.5559 32.2348C39.7799 32.7015 39.8919 33.2475 39.8919 33.8728V37.8208C39.8919 37.9142 39.8639 37.9935 39.8079 38.0588C39.7519 38.1148 39.6726 38.1428 39.5699 38.1428H38.8699C38.7766 38.1428 38.6973 38.1148 38.6319 38.0588C38.5759 37.9935 38.5479 37.9142 38.5479 37.8208V33.9428C38.5479 33.2895 38.3893 32.7808 38.0719 32.4168C37.7546 32.0435 37.2879 31.8568 36.6719 31.8568C36.0933 31.8568 35.6266 32.0435 35.2719 32.4168C34.9173 32.7808 34.7399 33.2895 34.7399 33.9428V37.8208C34.7399 37.9142 34.7119 37.9935 34.6559 38.0588C34.5999 38.1148 34.5206 38.1428 34.4179 38.1428H33.7179ZM44.8112 38.2828C43.8499 38.2828 43.0845 37.9888 42.5152 37.4008C41.9459 36.8035 41.6332 35.9915 41.5772 34.9648C41.5679 34.8435 41.5632 34.6895 41.5632 34.5028C41.5632 34.3068 41.5679 34.1482 41.5772 34.0268C41.6145 33.3642 41.7685 32.7855 42.0392 32.2908C42.3099 31.7868 42.6785 31.3995 43.1452 31.1288C43.6212 30.8582 44.1765 30.7228 44.8112 30.7228C45.5205 30.7228 46.1132 30.8722 46.5892 31.1708C47.0745 31.4695 47.4432 31.8942 47.6952 32.4448C47.9472 32.9955 48.0732 33.6395 48.0732 34.3768V34.6148C48.0732 34.7175 48.0405 34.7968 47.9752 34.8528C47.9192 34.9088 47.8445 34.9368 47.7512 34.9368H42.9072C42.9072 34.9462 42.9072 34.9648 42.9072 34.9928C42.9072 35.0208 42.9072 35.0442 42.9072 35.0628C42.9259 35.4455 43.0099 35.8048 43.1592 36.1408C43.3085 36.4675 43.5232 36.7335 43.8032 36.9388C44.0832 37.1442 44.4192 37.2468 44.8112 37.2468C45.1472 37.2468 45.4272 37.1955 45.6512 37.0928C45.8752 36.9902 46.0572 36.8782 46.1972 36.7568C46.3372 36.6262 46.4305 36.5282 46.4772 36.4628C46.5612 36.3415 46.6265 36.2715 46.6732 36.2528C46.7199 36.2248 46.7945 36.2108 46.8972 36.2108H47.5692C47.6625 36.2108 47.7372 36.2388 47.7932 36.2948C47.8585 36.3415 47.8865 36.4115 47.8772 36.5048C47.8679 36.6448 47.7932 36.8175 47.6532 37.0228C47.5132 37.2188 47.3125 37.4148 47.0512 37.6108C46.7899 37.8068 46.4725 37.9702 46.0992 38.1008C45.7259 38.2222 45.2965 38.2828 44.8112 38.2828ZM42.9072 33.9708H46.7432V33.9288C46.7432 33.5088 46.6639 33.1355 46.5052 32.8088C46.3559 32.4822 46.1365 32.2255 45.8472 32.0388C45.5579 31.8428 45.2125 31.7448 44.8112 31.7448C44.4099 31.7448 44.0645 31.8428 43.7752 32.0388C43.4952 32.2255 43.2805 32.4822 43.1312 32.8088C42.9819 33.1355 42.9072 33.5088 42.9072 33.9288V33.9708ZM56.8888 38.2828C56.0302 38.2828 55.3162 38.1242 54.7468 37.8068C54.1868 37.4895 53.7622 37.0462 53.4728 36.4768C53.1835 35.9075 53.0248 35.2448 52.9968 34.4888C52.9875 34.1062 52.9828 33.6955 52.9828 33.2568C52.9828 32.8182 52.9875 32.3982 52.9968 31.9968C53.0248 31.2408 53.1835 30.5782 53.4728 30.0088C53.7622 29.4395 54.1868 28.9962 54.7468 28.6788C55.3162 28.3615 56.0302 28.2028 56.8888 28.2028C57.5328 28.2028 58.0975 28.2915 58.5828 28.4688C59.0682 28.6462 59.4695 28.8842 59.7868 29.1828C60.1135 29.4815 60.3608 29.8175 60.5288 30.1908C60.6968 30.5548 60.7902 30.9328 60.8088 31.3248C60.8182 31.4088 60.7902 31.4788 60.7248 31.5348C60.6688 31.5908 60.5988 31.6188 60.5148 31.6188H59.7448C59.6608 31.6188 59.5862 31.5955 59.5208 31.5488C59.4648 31.5022 59.4228 31.4182 59.3948 31.2968C59.2362 30.5688 58.9375 30.0695 58.4988 29.7988C58.0695 29.5282 57.5282 29.3928 56.8748 29.3928C56.1282 29.3928 55.5355 29.6075 55.0968 30.0368C54.6582 30.4568 54.4202 31.1335 54.3828 32.0668C54.3548 32.8322 54.3548 33.6162 54.3828 34.4188C54.4202 35.3522 54.6582 36.0335 55.0968 36.4628C55.5355 36.8828 56.1282 37.0928 56.8748 37.0928C57.5282 37.0928 58.0695 36.9575 58.4988 36.6868C58.9375 36.4162 59.2362 35.9168 59.3948 35.1888C59.4228 35.0675 59.4648 34.9835 59.5208 34.9368C59.5862 34.8902 59.6608 34.8668 59.7448 34.8668H60.5148C60.5988 34.8668 60.6688 34.8948 60.7248 34.9508C60.7902 35.0068 60.8182 35.0768 60.8088 35.1608C60.7902 35.5528 60.6968 35.9355 60.5288 36.3088C60.3608 36.6728 60.1135 37.0042 59.7868 37.3028C59.4695 37.6015 59.0682 37.8395 58.5828 38.0168C58.0975 38.1942 57.5328 38.2828 56.8888 38.2828ZM64.533 38.2828C64.0664 38.2828 63.6417 38.1895 63.259 38.0028C62.8764 37.8162 62.5684 37.5642 62.335 37.2468C62.1017 36.9295 61.985 36.5702 61.985 36.1688C61.985 35.5248 62.2464 35.0115 62.769 34.6288C63.2917 34.2462 63.973 33.9942 64.813 33.8728L66.899 33.5788V33.1728C66.899 32.7248 66.7684 32.3748 66.507 32.1228C66.255 31.8708 65.8397 31.7448 65.261 31.7448C64.841 31.7448 64.5004 31.8288 64.239 31.9968C63.987 32.1648 63.8097 32.3795 63.707 32.6408C63.651 32.7808 63.553 32.8508 63.413 32.8508H62.783C62.6804 32.8508 62.601 32.8228 62.545 32.7668C62.4984 32.7015 62.475 32.6268 62.475 32.5428C62.475 32.4028 62.5264 32.2302 62.629 32.0248C62.741 31.8195 62.909 31.6188 63.133 31.4228C63.357 31.2268 63.6417 31.0635 63.987 30.9328C64.3417 30.7928 64.771 30.7228 65.275 30.7228C65.835 30.7228 66.3064 30.7975 66.689 30.9468C67.0717 31.0868 67.3704 31.2782 67.585 31.5208C67.809 31.7635 67.9677 32.0388 68.061 32.3468C68.1637 32.6548 68.215 32.9675 68.215 33.2848V37.8208C68.215 37.9142 68.1824 37.9935 68.117 38.0588C68.061 38.1148 67.9864 38.1428 67.893 38.1428H67.249C67.1464 38.1428 67.067 38.1148 67.011 38.0588C66.955 37.9935 66.927 37.9142 66.927 37.8208V37.2188C66.8057 37.3868 66.6424 37.5548 66.437 37.7228C66.2317 37.8815 65.975 38.0168 65.667 38.1288C65.359 38.2315 64.981 38.2828 64.533 38.2828ZM64.827 37.2328C65.2097 37.2328 65.5597 37.1535 65.877 36.9948C66.1944 36.8268 66.4417 36.5702 66.619 36.2248C66.8057 35.8795 66.899 35.4455 66.899 34.9228V34.5308L65.275 34.7688C64.6124 34.8622 64.113 35.0208 63.777 35.2448C63.441 35.4595 63.273 35.7348 63.273 36.0708C63.273 36.3322 63.3477 36.5515 63.497 36.7288C63.6557 36.8968 63.8517 37.0228 64.085 37.1068C64.3277 37.1908 64.575 37.2328 64.827 37.2328ZM70.5497 38.1428C70.4563 38.1428 70.377 38.1148 70.3117 38.0588C70.2557 37.9935 70.2277 37.9142 70.2277 37.8208V31.1988C70.2277 31.1055 70.2557 31.0262 70.3117 30.9608C70.377 30.8955 70.4563 30.8628 70.5497 30.8628H71.1937C71.287 30.8628 71.3663 30.8955 71.4317 30.9608C71.497 31.0262 71.5297 31.1055 71.5297 31.1988V31.8148C71.7163 31.4975 71.973 31.2595 72.2997 31.1008C72.6263 30.9422 73.0183 30.8628 73.4757 30.8628H74.0357C74.129 30.8628 74.2037 30.8955 74.2597 30.9608C74.3157 31.0168 74.3437 31.0915 74.3437 31.1848V31.7588C74.3437 31.8522 74.3157 31.9268 74.2597 31.9828C74.2037 32.0388 74.129 32.0668 74.0357 32.0668H73.1957C72.6917 32.0668 72.295 32.2162 72.0057 32.5148C71.7163 32.8042 71.5717 33.2008 71.5717 33.7048V37.8208C71.5717 37.9142 71.539 37.9935 71.4737 38.0588C71.4083 38.1148 71.329 38.1428 71.2357 38.1428H70.5497ZM75.868 38.1428C75.7747 38.1428 75.6953 38.1148 75.63 38.0588C75.574 37.9935 75.546 37.9142 75.546 37.8208V31.1848C75.546 31.0915 75.574 31.0168 75.63 30.9608C75.6953 30.8955 75.7747 30.8628 75.868 30.8628H76.54C76.6333 30.8628 76.708 30.8955 76.764 30.9608C76.82 31.0168 76.848 31.0915 76.848 31.1848V37.8208C76.848 37.9142 76.82 37.9935 76.764 38.0588C76.708 38.1148 76.6333 38.1428 76.54 38.1428H75.868ZM75.756 29.5048C75.6627 29.5048 75.5833 29.4768 75.518 29.4208C75.462 29.3555 75.434 29.2762 75.434 29.1828V28.4268C75.434 28.3335 75.462 28.2588 75.518 28.2028C75.5833 28.1375 75.6627 28.1048 75.756 28.1048H76.638C76.7313 28.1048 76.806 28.1375 76.862 28.2028C76.9273 28.2588 76.96 28.3335 76.96 28.4268V29.1828C76.96 29.2762 76.9273 29.3555 76.862 29.4208C76.806 29.4768 76.7313 29.5048 76.638 29.5048H75.756ZM82.5346 38.2828C81.9746 38.2828 81.508 38.1848 81.1346 37.9888C80.7613 37.7835 80.4626 37.5315 80.2386 37.2328V37.8208C80.2386 37.9142 80.206 37.9935 80.1406 38.0588C80.0846 38.1148 80.01 38.1428 79.9166 38.1428H79.2726C79.1793 38.1428 79.1 38.1148 79.0346 38.0588C78.9786 37.9935 78.9506 37.9142 78.9506 37.8208V28.5248C78.9506 28.4315 78.9786 28.3568 79.0346 28.3008C79.1 28.2355 79.1793 28.2028 79.2726 28.2028H79.9446C80.0473 28.2028 80.1266 28.2355 80.1826 28.3008C80.2386 28.3568 80.2666 28.4315 80.2666 28.5248V31.7448C80.5 31.4555 80.7986 31.2128 81.1626 31.0168C81.536 30.8208 81.9933 30.7228 82.5346 30.7228C83.0573 30.7228 83.5006 30.8162 83.8646 31.0028C84.238 31.1802 84.5413 31.4275 84.7746 31.7448C85.0173 32.0622 85.1993 32.4215 85.3206 32.8228C85.442 33.2242 85.5073 33.6442 85.5166 34.0828C85.526 34.2322 85.5306 34.3722 85.5306 34.5028C85.5306 34.6335 85.526 34.7735 85.5166 34.9228C85.5073 35.3708 85.442 35.7955 85.3206 36.1968C85.1993 36.5982 85.0173 36.9575 84.7746 37.2748C84.5413 37.5828 84.238 37.8302 83.8646 38.0168C83.5006 38.1942 83.0573 38.2828 82.5346 38.2828ZM82.2406 37.1488C82.726 37.1488 83.104 37.0462 83.3746 36.8408C83.6546 36.6262 83.8553 36.3508 83.9766 36.0148C84.098 35.6695 84.168 35.3008 84.1866 34.9088C84.196 34.6382 84.196 34.3675 84.1866 34.0968C84.168 33.7048 84.098 33.3408 83.9766 33.0048C83.8553 32.6595 83.6546 32.3842 83.3746 32.1788C83.104 31.9642 82.726 31.8568 82.2406 31.8568C81.802 31.8568 81.438 31.9595 81.1486 32.1648C80.8593 32.3702 80.64 32.6315 80.4906 32.9488C80.3506 33.2662 80.276 33.5882 80.2666 33.9148C80.2573 34.0642 80.2526 34.2462 80.2526 34.4608C80.2526 34.6662 80.2573 34.8435 80.2666 34.9928C80.2853 35.3382 80.36 35.6788 80.4906 36.0148C80.6306 36.3415 80.8406 36.6122 81.1206 36.8268C81.41 37.0415 81.7833 37.1488 82.2406 37.1488ZM90.8608 38.2828C90.3008 38.2828 89.8341 38.1848 89.4608 37.9888C89.0875 37.7835 88.7888 37.5315 88.5648 37.2328V37.8208C88.5648 37.9142 88.5321 37.9935 88.4668 38.0588C88.4108 38.1148 88.3361 38.1428 88.2428 38.1428H87.5988C87.5055 38.1428 87.4261 38.1148 87.3608 38.0588C87.3048 37.9935 87.2768 37.9142 87.2768 37.8208V28.5248C87.2768 28.4315 87.3048 28.3568 87.3608 28.3008C87.4261 28.2355 87.5055 28.2028 87.5988 28.2028H88.2708C88.3735 28.2028 88.4528 28.2355 88.5088 28.3008C88.5648 28.3568 88.5928 28.4315 88.5928 28.5248V31.7448C88.8261 31.4555 89.1248 31.2128 89.4888 31.0168C89.8621 30.8208 90.3195 30.7228 90.8608 30.7228C91.3835 30.7228 91.8268 30.8162 92.1908 31.0028C92.5641 31.1802 92.8675 31.4275 93.1008 31.7448C93.3435 32.0622 93.5255 32.4215 93.6468 32.8228C93.7681 33.2242 93.8335 33.6442 93.8428 34.0828C93.8521 34.2322 93.8568 34.3722 93.8568 34.5028C93.8568 34.6335 93.8521 34.7735 93.8428 34.9228C93.8335 35.3708 93.7681 35.7955 93.6468 36.1968C93.5255 36.5982 93.3435 36.9575 93.1008 37.2748C92.8675 37.5828 92.5641 37.8302 92.1908 38.0168C91.8268 38.1942 91.3835 38.2828 90.8608 38.2828ZM90.5668 37.1488C91.0521 37.1488 91.4301 37.0462 91.7008 36.8408C91.9808 36.6262 92.1815 36.3508 92.3028 36.0148C92.4241 35.6695 92.4941 35.3008 92.5128 34.9088C92.5221 34.6382 92.5221 34.3675 92.5128 34.0968C92.4941 33.7048 92.4241 33.3408 92.3028 33.0048C92.1815 32.6595 91.9808 32.3842 91.7008 32.1788C91.4301 31.9642 91.0521 31.8568 90.5668 31.8568C90.1281 31.8568 89.7641 31.9595 89.4748 32.1648C89.1855 32.3702 88.9661 32.6315 88.8168 32.9488C88.6768 33.2662 88.6021 33.5882 88.5928 33.9148C88.5835 34.0642 88.5788 34.2462 88.5788 34.4608C88.5788 34.6662 88.5835 34.8435 88.5928 34.9928C88.6115 35.3382 88.6861 35.6788 88.8168 36.0148C88.9568 36.3415 89.1668 36.6122 89.4468 36.8268C89.7361 37.0415 90.1095 37.1488 90.5668 37.1488ZM98.487 38.2828C97.5256 38.2828 96.7603 37.9888 96.191 37.4008C95.6216 36.8035 95.309 35.9915 95.253 34.9648C95.2436 34.8435 95.239 34.6895 95.239 34.5028C95.239 34.3068 95.2436 34.1482 95.253 34.0268C95.2903 33.3642 95.4443 32.7855 95.715 32.2908C95.9856 31.7868 96.3543 31.3995 96.821 31.1288C97.297 30.8582 97.8523 30.7228 98.487 30.7228C99.1963 30.7228 99.789 30.8722 100.265 31.1708C100.75 31.4695 101.119 31.8942 101.371 32.4448C101.623 32.9955 101.749 33.6395 101.749 34.3768V34.6148C101.749 34.7175 101.716 34.7968 101.651 34.8528C101.595 34.9088 101.52 34.9368 101.427 34.9368H96.583C96.583 34.9462 96.583 34.9648 96.583 34.9928C96.583 35.0208 96.583 35.0442 96.583 35.0628C96.6016 35.4455 96.6856 35.8048 96.835 36.1408C96.9843 36.4675 97.199 36.7335 97.479 36.9388C97.759 37.1442 98.095 37.2468 98.487 37.2468C98.823 37.2468 99.103 37.1955 99.327 37.0928C99.551 36.9902 99.733 36.8782 99.873 36.7568C100.013 36.6262 100.106 36.5282 100.153 36.4628C100.237 36.3415 100.302 36.2715 100.349 36.2528C100.396 36.2248 100.47 36.2108 100.573 36.2108H101.245C101.338 36.2108 101.413 36.2388 101.469 36.2948C101.534 36.3415 101.562 36.4115 101.553 36.5048C101.544 36.6448 101.469 36.8175 101.329 37.0228C101.189 37.2188 100.988 37.4148 100.727 37.6108C100.466 37.8068 100.148 37.9702 99.775 38.1008C99.4016 38.2222 98.9723 38.2828 98.487 38.2828ZM96.583 33.9708H100.419V33.9288C100.419 33.5088 100.34 33.1355 100.181 32.8088C100.032 32.4822 99.8123 32.2255 99.523 32.0388C99.2336 31.8428 98.8883 31.7448 98.487 31.7448C98.0856 31.7448 97.7403 31.8428 97.451 32.0388C97.171 32.2255 96.9563 32.4822 96.807 32.8088C96.6576 33.1355 96.583 33.5088 96.583 33.9288V33.9708ZM103.745 38.1428C103.652 38.1428 103.572 38.1148 103.507 38.0588C103.451 37.9935 103.423 37.9142 103.423 37.8208V31.1848C103.423 31.0915 103.451 31.0168 103.507 30.9608C103.572 30.8955 103.652 30.8628 103.745 30.8628H104.403C104.496 30.8628 104.571 30.8955 104.627 30.9608C104.692 31.0168 104.725 31.0915 104.725 31.1848V31.8008C104.968 31.4835 105.271 31.2268 105.635 31.0308C106.008 30.8255 106.484 30.7228 107.063 30.7228C107.67 30.7228 108.183 30.8582 108.603 31.1288C109.032 31.3902 109.354 31.7588 109.569 32.2348C109.784 32.7015 109.891 33.2475 109.891 33.8728V37.8208C109.891 37.9142 109.863 37.9935 109.807 38.0588C109.751 38.1148 109.676 38.1428 109.583 38.1428H108.883C108.79 38.1428 108.71 38.1148 108.645 38.0588C108.589 37.9935 108.561 37.9142 108.561 37.8208V33.9428C108.561 33.2895 108.402 32.7808 108.085 32.4168C107.768 32.0435 107.301 31.8568 106.685 31.8568C106.106 31.8568 105.64 32.0435 105.285 32.4168C104.94 32.7808 104.767 33.2895 104.767 33.9428V37.8208C104.767 37.9142 104.734 37.9935 104.669 38.0588C104.613 38.1148 104.538 38.1428 104.445 38.1428H103.745Z" fill="white"/>
</g>
<defs>
<filter id="filter0_b_212_8" x="-18.7429" y="-18.7429" width="173.371" height="87.1542" filterUnits="userSpaceOnUse" color-interpolation-filters="sRGB">
<feFlood flood-opacity="0" result="BackgroundImageFix"/>
<feGaussianBlur in="BackgroundImageFix" stdDeviation="9.37143"/>
<feComposite in2="SourceAlpha" operator="in" result="effect1_backgroundBlur_212_8"/>
<feBlend mode="normal" in="SourceGraphic" in2="effect1_backgroundBlur_212_8" result="shape"/>
</filter>
<clipPath id="clip0_212_8">
<rect width="135.886" height="49.6686" fill="white"/>
</clipPath>
</defs>
</svg>
