<svg width="30" height="31" viewBox="0 0 30 31" fill="none" xmlns="http://www.w3.org/2000/svg">
<path d="M11.6266 10.833C11.6265 11.1866 11.4858 11.5257 11.2356 11.7756C10.9855 12.0256 10.6462 12.1659 10.2926 12.1657C9.93901 12.1655 9.59994 12.0249 9.35001 11.7747C9.10009 11.5245 8.95978 11.1853 8.95996 10.8317C8.96014 10.4781 9.10078 10.139 9.35096 9.88908C9.60113 9.63915 9.94034 9.49885 10.294 9.49902C10.6476 9.4992 10.9867 9.63985 11.2366 9.89002C11.4865 10.1402 11.6268 10.4794 11.6266 10.833ZM11.6666 13.153H8.99996V21.4997H11.6666V13.153ZM15.88 13.153H13.2266V21.4997H15.8533V17.1197C15.8533 14.6797 19.0333 14.453 19.0333 17.1197V21.4997H21.6666V16.213C21.6666 12.0997 16.96 12.253 15.8533 14.273L15.88 13.153Z" fill="white"/>
<rect x="0.5" y="1" width="29" height="29" rx="14.5" stroke="white"/>
</svg>
