<svg width="92" height="92" viewBox="0 0 92 92" fill="none" xmlns="http://www.w3.org/2000/svg">
<path fill-rule="evenodd" clip-rule="evenodd" d="M38.851 8.40398C38.3586 8.7488 38.3362 8.91298 38.3362 12.1812V15.5979L37.1438 15.9035C35.7099 16.2708 33.6947 17.076 31.5249 18.1484L29.923 18.9402L27.5633 16.6179C25.8814 14.9631 25.0421 14.2959 24.6417 14.2959C23.9111 14.2959 14.2524 23.9082 14.2524 24.6353C14.2524 24.922 15.1634 26.0382 16.5681 27.4728C17.8418 28.7735 18.8839 29.8717 18.8839 29.9131C18.8839 29.9546 18.377 31.0465 17.7573 32.3398C17.1376 33.6329 16.3822 35.5203 16.0783 36.5341L15.526 38.3774L12.1235 38.3786C8.87057 38.3797 8.70499 38.4024 8.36041 38.8945C8.05404 39.3317 7.99985 40.4259 7.99985 46.1722V52.9354L8.61005 53.4152C9.16004 53.848 9.5338 53.8953 12.4009 53.8953H15.5816L15.8861 54.9952C16.2995 56.4882 17.8307 60.2351 18.4115 61.175C18.6713 61.5954 18.8839 61.9999 18.8839 62.0743C18.8839 62.1484 17.8418 63.2666 16.5681 64.5591C14.8195 66.3336 14.2524 67.058 14.2524 67.5172C14.2524 68 15.2664 69.1391 19.1794 73.0521C22.0879 75.9606 24.284 77.979 24.5401 77.979C24.7788 77.979 26.0787 76.8988 27.4288 75.5785L29.8837 73.178L32.154 74.2748C33.4029 74.8783 35.3046 75.6522 36.3803 75.9947L38.3362 76.6179V79.9257C38.3362 82.8361 38.3871 83.2796 38.7597 83.6167C39.1335 83.9551 39.9824 84 46.0101 84C51.5355 84 52.9226 83.9375 53.2864 83.6719C53.6903 83.3768 53.7433 82.9926 53.8098 79.8905L53.8839 76.4375L55.0786 76.1311C56.4826 75.7712 58.7344 74.8611 60.6831 73.8661L62.0726 73.1565L64.5275 75.5677C65.8811 76.8976 67.177 77.979 67.4162 77.979C67.9956 77.979 77.9355 68.0392 77.9355 67.4598C77.9355 67.221 76.854 65.9223 75.5296 64.5711L73.1236 62.1162L74.1328 60.1478C74.6879 59.0652 75.4271 57.2936 75.7751 56.211C76.1234 55.1284 76.5634 54.1125 76.7531 53.9532C76.9907 53.7535 78.0496 53.6637 80.1665 53.6637C83.0753 53.6637 83.2543 53.6368 83.5959 53.1489C83.9022 52.7117 83.9564 51.6193 83.9564 45.8902C83.9564 39.6509 83.9247 39.1175 83.5329 38.763C83.1802 38.4439 82.5512 38.3795 79.7698 38.3786L76.4302 38.3774L75.8779 36.5341C75.5741 35.5203 74.8162 33.6276 74.1935 32.328L73.0613 29.965L75.3826 27.6062C77.037 25.9249 77.7039 25.0857 77.7039 24.6853C77.7039 23.9313 68.0901 14.2959 67.3377 14.2959C67.0082 14.2959 66.0404 15.1153 64.4956 16.7029L62.153 19.1097L60.164 18.0947C59.07 17.5366 57.15 16.7439 55.8974 16.3333L53.6201 15.587V12.1756C53.6201 8.91298 53.5976 8.7488 53.1053 8.40398C52.3367 7.86534 39.6196 7.86534 38.851 8.40398ZM51.0728 13.8328C51.0728 17.5806 51.1668 17.7842 53.0863 18.1959C54.995 18.6053 58.0793 19.8151 59.99 20.9039C60.9879 21.4727 62.023 21.9379 62.2903 21.9379C62.5962 21.9379 63.5887 21.1223 64.9673 19.738C66.1722 18.528 67.2532 17.538 67.3696 17.538C67.4859 17.538 69.1806 19.122 71.1357 21.0579L74.6904 24.5776L72.3761 26.9295C71.1033 28.2229 70.0619 29.4426 70.0619 29.6399C70.0619 29.8372 70.4044 30.6079 70.8233 31.3524C72.2482 33.886 73.9987 38.3272 73.9987 39.4086C73.9987 39.6184 74.2546 40.0459 74.5672 40.3585C75.1147 40.9062 75.2506 40.9271 78.2724 40.9271H81.4091V45.9888V51.0504L79.9856 51.1993C79.2029 51.281 77.7046 51.3479 76.6563 51.3479C74.6031 51.3479 74.4016 51.4498 74.1374 52.6216C73.5369 55.2847 72.1375 58.8385 70.9459 60.7267C69.7991 62.5437 69.7757 62.4714 72.3527 65.0901L74.683 67.4581L71.0373 71.0985L67.3916 74.7389L65.2174 72.5556C64.0215 71.3548 62.8576 70.3239 62.6307 70.2646C62.4037 70.2051 61.9249 70.3135 61.5664 70.5054C58.6992 72.0396 56.5421 72.9807 54.3947 73.634C53.0134 74.0541 51.7532 74.4802 51.5938 74.5812C51.384 74.7138 51.3044 75.6853 51.3044 78.1085V81.4527H46.0939H40.8835V78.3521C40.8835 74.7472 40.7728 74.5052 38.9151 74.0448C36.2698 73.3895 34.0284 72.4692 30.8447 70.7308C29.8212 70.172 29.6672 70.1463 29.1079 70.4422C28.7705 70.6208 27.6103 71.6608 26.5298 72.7531L24.5651 74.7395L20.9192 71.099L17.2733 67.4581L19.5837 65.1102C20.8546 63.8189 21.8943 62.6328 21.8943 62.4749C21.8943 62.3167 21.4328 61.3378 20.8685 60.2992C19.646 58.0488 19.0307 56.5392 18.2584 53.8953C17.9421 52.8126 17.5759 51.7967 17.4446 51.6374C17.274 51.4304 16.2585 51.3479 13.8768 51.3479H10.5472V46.1375V40.9271H13.5426C17.2429 40.9271 17.6271 40.8015 17.9397 39.4899C18.6189 36.6395 19.752 33.7649 21.1311 31.3936C21.5509 30.6715 21.8943 29.8879 21.8943 29.6521C21.8943 29.4164 20.9044 28.2374 19.6944 27.0326C18.4844 25.8277 17.4944 24.7518 17.4944 24.6416C17.4944 24.5316 19.0775 22.836 21.0123 20.8736L24.5301 17.3055L26.8839 19.6217C28.1784 20.8956 29.411 21.9379 29.6232 21.9379C29.8353 21.9379 30.3973 21.6968 30.8725 21.4025C32.9085 20.1402 38.2496 18.0011 39.365 18.0011C39.5749 18.0011 40.0023 17.7453 40.315 17.4326C40.8626 16.8852 40.8835 16.7492 40.8835 13.7274V10.5907H45.9781H51.0728V13.8328ZM42.8519 20.457C31.7356 22.0996 23.3134 29.7918 20.8198 40.5797C20.2208 43.1722 20.2208 48.8712 20.8198 51.4637C23.0925 61.2955 30.3545 68.6612 40.1582 71.0783C43.0652 71.7953 48.959 71.8036 51.7833 71.095C56.8487 69.8244 60.7373 67.6038 64.3193 63.9366C67.8011 60.3722 69.8278 56.7228 71.0373 51.8417C71.7177 49.0949 71.7693 43.3046 71.1376 40.5797C68.8721 30.8084 61.5756 23.376 51.9039 20.9873C50.0768 20.5362 44.5199 20.2106 42.8519 20.457ZM49.8839 23.2195C58.1152 24.781 64.6058 30.0759 67.5165 37.6044C69.9311 43.8502 69.602 50.4705 66.5756 56.5266C62.0091 65.6644 51.6531 70.7247 41.631 68.7156C31.9991 66.7847 25.0273 59.6869 23.1759 49.9275C21.4472 40.8147 26.056 30.857 34.2125 26.0822C38.8438 23.3711 44.8751 22.2693 49.8839 23.2195ZM44.8795 25.1952C43.8104 25.5208 42.5724 26.8515 42.2565 28.0144C42.109 28.557 41.9557 29.1204 41.9156 29.2663C41.8756 29.4125 41.2883 29.6051 40.6105 29.6945C39.0339 29.9025 37.5219 30.5588 37.1899 31.1791C36.9625 31.6041 36.7191 31.6641 35.2182 31.6641C32.8212 31.6641 32.7784 31.7254 32.7784 35.1541C32.7784 37.6079 32.8302 37.9685 33.2415 38.3797C33.8184 38.9566 34.4432 38.9712 34.9424 38.4193C35.237 38.094 35.3257 37.5315 35.3257 35.9878V33.9798H36.1962C36.8161 33.9798 37.1503 34.1132 37.3561 34.443C37.6368 34.8925 37.8962 34.9061 46.2097 34.9061C54.5233 34.9061 54.7826 34.8925 55.0633 34.443C55.2564 34.1338 55.6033 33.9798 56.1075 33.9798H56.8622V38.5597C56.8622 43.5408 57.0043 44.1691 58.1323 44.1691C59.3527 44.1691 59.4095 43.8954 59.4095 38.0007C59.4095 34.6931 59.3155 32.3843 59.1698 32.1119C58.9656 31.7303 58.6733 31.6641 57.194 31.6641C55.8752 31.6641 55.4266 31.5816 55.3266 31.3213C55.0941 30.7155 53.7074 30.0407 52.0945 29.7482L50.524 29.4636L50.2553 28.4104C49.9098 27.0557 49.3608 26.2309 48.4157 25.6468C47.507 25.0853 45.9105 24.8812 44.8795 25.1952ZM47.2949 27.9992C47.614 28.299 47.8307 28.7719 47.8307 29.1686C47.8307 29.9259 48.3115 30.9668 48.8791 31.4376C49.0903 31.6129 49.8526 31.8831 50.5733 32.0383C51.73 32.287 51.2194 32.3192 46.2097 32.3134C42.0562 32.3088 40.8367 32.2495 41.6581 32.0922C42.275 31.9741 43.0216 31.7192 43.3171 31.5256C43.9343 31.1213 44.5887 29.8712 44.5887 29.0966C44.5887 28.3789 45.4652 27.4957 46.1773 27.4957C46.4971 27.4957 47.0001 27.7222 47.2949 27.9992ZM31.9843 39.9014C31.7842 40.1017 31.6205 40.4602 31.6205 40.6983C31.6205 41.2487 31.1951 41.5206 30.8593 41.1848C30.7176 41.0431 30.295 40.9271 29.92 40.9271C28.5227 40.9271 26.2667 43.9269 27.2206 44.5165C27.6133 44.7592 27.4762 45.327 27.0249 45.327C26.1715 45.327 25.8311 46.0618 25.8311 47.9042C25.8311 49.7691 26.0365 50.1901 26.9466 50.1901C27.4204 50.1901 27.4813 50.27 27.3447 50.7111C26.8741 52.2288 26.8864 52.2717 28.1661 53.5673C29.4562 54.8737 30.0134 55.064 30.8438 54.4823C31.4017 54.0916 31.6205 54.2227 31.6205 54.9475C31.6205 55.8032 32.1269 56.0051 34.0879 55.9317L35.9046 55.8636L36.3351 54.9823C36.732 54.1699 36.7969 54.1292 37.1639 54.4612C37.8374 55.0707 38.4191 54.8709 39.6756 53.5986C40.8582 52.4011 41.2464 51.3681 40.6519 51.0006C40.2251 50.7368 40.4143 50.4598 41.129 50.3028C41.9728 50.1176 42.2729 49.4803 42.2729 47.8743C42.2729 46.2556 41.9548 45.5759 41.119 45.4087C40.4361 45.2723 40.1902 44.802 40.6519 44.5165C41.6542 43.897 39.4074 40.9271 37.9367 40.9271C37.5347 40.9271 37.1412 41.0313 37.0625 41.1586C36.8011 41.5815 36.4836 41.3983 36.4836 40.8245C36.4836 39.9387 35.6786 39.5376 33.9013 39.5376C32.7983 39.5376 32.243 39.643 31.9843 39.9014ZM35.3857 43.5978C35.7372 43.6856 36.082 43.85 36.1519 43.9632C36.2221 44.0765 36.5824 44.1691 36.9532 44.1691C37.4159 44.1691 37.5903 44.2648 37.5097 44.4746C37.3862 44.7962 38.2757 46.8961 38.806 47.5351C39.0226 47.796 39.0404 47.957 38.8649 48.0656C38.5027 48.29 37.3751 50.9235 37.5009 51.2514C37.5673 51.4244 37.4467 51.4853 37.1774 51.4149C36.9412 51.353 36.4539 51.451 36.0947 51.6323C33.801 52.7909 34.1231 52.7575 32.5347 52.001C31.7393 51.6221 30.9031 51.3604 30.6771 51.4195C30.3943 51.4934 30.3047 51.4253 30.3906 51.2013C30.5337 50.8285 29.6628 48.6543 29.1276 48.048C28.9307 47.825 28.8745 47.6427 29.0025 47.6427C29.3189 47.6427 30.5427 44.7177 30.3542 44.4125C30.2632 44.2654 30.4608 44.1638 30.8542 44.1557C31.212 44.1483 32.0779 43.8574 32.7784 43.5094C33.8049 42.9994 34.1194 42.9311 34.3994 43.1574C34.5904 43.3118 35.0344 43.51 35.3857 43.5978ZM55.014 49.6116L49.5541 55.0541L48.1971 53.6827C47.4505 52.9284 46.6344 52.2576 46.3834 52.192C45.9054 52.067 44.8203 52.9421 44.8203 53.4527C44.8203 53.9756 49.0463 58.0636 49.587 58.0636C50.3357 58.0636 62.1884 46.1887 62.1884 45.4386C62.1884 44.7629 61.6171 44.1691 60.9671 44.1691C60.6324 44.1691 58.7168 45.9205 55.014 49.6116ZM57.2227 52.5574C56.9302 52.975 56.8622 53.8265 56.8622 57.0732V61.0741H46.0939H35.3257V59.6131C35.3257 58.7641 35.1969 57.9761 35.0182 57.7315C34.6198 57.1869 33.4842 57.1869 33.0859 57.7315C32.6258 58.3607 32.6661 62.4316 33.1389 63.1066L33.4993 63.6214H46.0905C57.2283 63.6214 58.7238 63.5795 59.0457 63.2576C59.3541 62.9489 59.4095 62.1264 59.4095 57.8515C59.4095 53.2607 59.3715 52.7749 58.9859 52.4259C58.3963 51.8921 57.6495 51.9479 57.2227 52.5574Z" fill="white"/>
</svg>
