<svg width="30" height="31" viewBox="0 0 30 31" fill="none" xmlns="http://www.w3.org/2000/svg">
<path d="M21.6666 11.3668C21.1655 11.5842 20.6356 11.7279 20.0933 11.7935C20.6654 11.4517 21.0942 10.914 21.3 10.2801C20.7623 10.6002 20.1738 10.8257 19.56 10.9468C19.1497 10.5019 18.6033 10.2057 18.0065 10.1047C17.4097 10.0037 16.7963 10.1037 16.2625 10.3889C15.7287 10.6742 15.3046 11.1285 15.0568 11.6807C14.809 12.2329 14.7515 12.8517 14.8933 13.4401C13.8063 13.3852 12.7429 13.1021 11.7724 12.6094C10.8019 12.1167 9.94588 11.4253 9.25998 10.5801C9.0194 11.0003 8.89299 11.476 8.89331 11.9601C8.89246 12.4097 9.00279 12.8526 9.21448 13.2492C9.42618 13.6458 9.73266 13.9839 10.1066 14.2335C9.67196 14.2216 9.24657 14.105 8.86665 13.8935V13.9268C8.8699 14.5567 9.09064 15.1662 9.49152 15.6521C9.8924 16.138 10.4488 16.4706 11.0666 16.5935C10.8288 16.6659 10.5819 16.704 10.3333 16.7068C10.1612 16.7048 9.98959 16.6892 9.81998 16.6601C9.99592 17.202 10.3364 17.6756 10.794 18.0149C11.2517 18.3543 11.8037 18.5425 12.3733 18.5535C11.4114 19.3103 10.2239 19.7234 8.99998 19.7268C8.77714 19.7275 8.55447 19.7142 8.33331 19.6868C9.58293 20.4936 11.0392 20.922 12.5266 20.9201C13.5531 20.9308 14.5714 20.7368 15.5221 20.3495C16.4727 19.9622 17.3367 19.3894 18.0634 18.6645C18.7902 17.9395 19.3653 17.0771 19.755 16.1274C20.1447 15.1778 20.3413 14.16 20.3333 13.1335V12.7801C20.8564 12.39 21.3076 11.9118 21.6666 11.3668Z" fill="white"/>
<rect x="0.5" y="1" width="29" height="29" rx="14.5" stroke="white"/>
</svg>
