<svg width="244" height="50" viewBox="0 0 244 50" fill="none" xmlns="http://www.w3.org/2000/svg">
<circle opacity="0.23" cx="226.32" cy="23.8968" r="12.6514" fill="white"/>
<circle opacity="0.23" cx="226.32" cy="23.8967" r="17.3371" fill="white"/>
<circle opacity="0.8" cx="226.32" cy="23.8969" r="7.96571" fill="white"/>
<path d="M208.046 23.4282L148.069 23.4282" stroke="white" stroke-width="0.937143" stroke-linecap="round"/>
<g clip-path="url(#clip0_212_7)">
<g filter="url(#filter0_b_212_7)">
<rect width="135.886" height="49.6686" rx="3.74857" fill="#48BF91" fill-opacity="0.1"/>
<rect x="0.468571" y="0.468571" width="134.949" height="48.7314" rx="3.28" stroke="#48BF91" stroke-width="0.937143"/>
</g>
<path opacity="0.7" d="M18.3119 21.0143C17.5279 21.0143 16.8513 20.8743 16.2819 20.5943C15.7219 20.3143 15.2879 19.8896 14.9799 19.3203C14.6813 18.7416 14.5319 17.9996 14.5319 17.0943V11.4103C14.5319 11.3076 14.5599 11.2283 14.6159 11.1723C14.6719 11.1069 14.7513 11.0743 14.8539 11.0743H15.5679C15.6706 11.0743 15.7499 11.1069 15.8059 11.1723C15.8713 11.2283 15.9039 11.3076 15.9039 11.4103V17.1223C15.9039 18.0369 16.1186 18.7136 16.5479 19.1523C16.9773 19.5909 17.5653 19.8103 18.3119 19.8103C19.0493 19.8103 19.6326 19.5909 20.0619 19.1523C20.5006 18.7136 20.7199 18.0369 20.7199 17.1223V11.4103C20.7199 11.3076 20.7479 11.2283 20.8039 11.1723C20.8693 11.1069 20.9486 11.0743 21.0419 11.0743H21.7699C21.8633 11.0743 21.9379 11.1069 21.9939 11.1723C22.0593 11.2283 22.0919 11.3076 22.0919 11.4103V17.0943C22.0919 17.9996 21.9379 18.7416 21.6299 19.3203C21.3313 19.8896 20.9019 20.3143 20.3419 20.5943C19.7819 20.8743 19.1053 21.0143 18.3119 21.0143ZM24.5723 20.8743C24.479 20.8743 24.3997 20.8463 24.3343 20.7903C24.2783 20.7249 24.2503 20.6456 24.2503 20.5523V13.9163C24.2503 13.8229 24.2783 13.7483 24.3343 13.6923C24.3997 13.6269 24.479 13.5943 24.5723 13.5943H25.2303C25.3237 13.5943 25.3983 13.6269 25.4543 13.6923C25.5197 13.7483 25.5523 13.8229 25.5523 13.9163V14.5323C25.795 14.2149 26.0983 13.9583 26.4623 13.7623C26.8357 13.5569 27.3117 13.4543 27.8903 13.4543C28.497 13.4543 29.0103 13.5896 29.4303 13.8603C29.8597 14.1216 30.1817 14.4903 30.3963 14.9663C30.611 15.4329 30.7183 15.9789 30.7183 16.6043V20.5523C30.7183 20.6456 30.6903 20.7249 30.6343 20.7903C30.5783 20.8463 30.5037 20.8743 30.4103 20.8743H29.7103C29.617 20.8743 29.5377 20.8463 29.4723 20.7903C29.4163 20.7249 29.3883 20.6456 29.3883 20.5523V16.6743C29.3883 16.0209 29.2297 15.5123 28.9123 15.1483C28.595 14.7749 28.1283 14.5883 27.5123 14.5883C26.9337 14.5883 26.467 14.7749 26.1123 15.1483C25.767 15.5123 25.5943 16.0209 25.5943 16.6743V20.5523C25.5943 20.6456 25.5617 20.7249 25.4963 20.7903C25.4403 20.8463 25.3657 20.8743 25.2723 20.8743H24.5723ZM33.0626 20.8743C32.9692 20.8743 32.8899 20.8463 32.8246 20.7903C32.7686 20.7249 32.7406 20.6456 32.7406 20.5523V13.9163C32.7406 13.8229 32.7686 13.7483 32.8246 13.6923C32.8899 13.6269 32.9692 13.5943 33.0626 13.5943H33.7346C33.8279 13.5943 33.9026 13.6269 33.9586 13.6923C34.0146 13.7483 34.0426 13.8229 34.0426 13.9163V20.5523C34.0426 20.6456 34.0146 20.7249 33.9586 20.7903C33.9026 20.8463 33.8279 20.8743 33.7346 20.8743H33.0626ZM32.9506 12.2363C32.8572 12.2363 32.7779 12.2083 32.7126 12.1523C32.6566 12.0869 32.6286 12.0076 32.6286 11.9143V11.1583C32.6286 11.0649 32.6566 10.9903 32.7126 10.9343C32.7779 10.8689 32.8572 10.8363 32.9506 10.8363H33.8326C33.9259 10.8363 34.0006 10.8689 34.0566 10.9343C34.1219 10.9903 34.1546 11.0649 34.1546 11.1583V11.9143C34.1546 12.0076 34.1219 12.0869 34.0566 12.1523C34.0006 12.2083 33.9259 12.2363 33.8326 12.2363H32.9506ZM38.9732 20.8743C38.4505 20.8743 38.0259 20.7763 37.6992 20.5803C37.3725 20.3749 37.1345 20.0903 36.9852 19.7263C36.8359 19.3529 36.7612 18.9143 36.7612 18.4103V14.7143H35.6692C35.5759 14.7143 35.4965 14.6863 35.4312 14.6303C35.3752 14.5649 35.3472 14.4856 35.3472 14.3923V13.9163C35.3472 13.8229 35.3752 13.7483 35.4312 13.6923C35.4965 13.6269 35.5759 13.5943 35.6692 13.5943H36.7612V11.2563C36.7612 11.1629 36.7892 11.0883 36.8452 11.0323C36.9105 10.9669 36.9899 10.9343 37.0832 10.9343H37.7412C37.8345 10.9343 37.9092 10.9669 37.9652 11.0323C38.0305 11.0883 38.0632 11.1629 38.0632 11.2563V13.5943H39.7992C39.8925 13.5943 39.9672 13.6269 40.0232 13.6923C40.0885 13.7483 40.1212 13.8229 40.1212 13.9163V14.3923C40.1212 14.4856 40.0885 14.5649 40.0232 14.6303C39.9672 14.6863 39.8925 14.7143 39.7992 14.7143H38.0632V18.3123C38.0632 18.7509 38.1379 19.0963 38.2872 19.3483C38.4365 19.6003 38.7025 19.7263 39.0852 19.7263H39.9392C40.0325 19.7263 40.1072 19.7589 40.1632 19.8243C40.2285 19.8803 40.2612 19.9549 40.2612 20.0483V20.5523C40.2612 20.6456 40.2285 20.7249 40.1632 20.7903C40.1072 20.8463 40.0325 20.8743 39.9392 20.8743H38.9732ZM44.4979 21.0143C43.5366 21.0143 42.7713 20.7203 42.2019 20.1323C41.6326 19.5349 41.3199 18.7229 41.2639 17.6963C41.2546 17.5749 41.2499 17.4209 41.2499 17.2343C41.2499 17.0383 41.2546 16.8796 41.2639 16.7583C41.3013 16.0956 41.4553 15.5169 41.7259 15.0223C41.9966 14.5183 42.3653 14.1309 42.8319 13.8603C43.3079 13.5896 43.8633 13.4543 44.4979 13.4543C45.2073 13.4543 45.7999 13.6036 46.2759 13.9023C46.7613 14.2009 47.1299 14.6256 47.3819 15.1763C47.6339 15.7269 47.7599 16.3709 47.7599 17.1083V17.3463C47.7599 17.4489 47.7273 17.5283 47.6619 17.5843C47.606 17.6403 47.5313 17.6683 47.4379 17.6683H42.5939C42.5939 17.6776 42.5939 17.6963 42.5939 17.7243C42.5939 17.7523 42.5939 17.7756 42.5939 17.7943C42.6126 18.1769 42.6966 18.5363 42.8459 18.8723C42.9953 19.1989 43.2099 19.4649 43.4899 19.6703C43.7699 19.8756 44.1059 19.9783 44.4979 19.9783C44.8339 19.9783 45.1139 19.9269 45.3379 19.8243C45.5619 19.7216 45.7439 19.6096 45.8839 19.4883C46.0239 19.3576 46.1173 19.2596 46.1639 19.1943C46.2479 19.0729 46.3133 19.0029 46.36 18.9843C46.4066 18.9563 46.4813 18.9423 46.5839 18.9423H47.2559C47.3493 18.9423 47.4239 18.9703 47.4799 19.0263C47.5453 19.0729 47.5733 19.1429 47.5639 19.2363C47.5546 19.3763 47.4799 19.5489 47.3399 19.7543C47.1999 19.9503 46.9993 20.1463 46.7379 20.3423C46.4766 20.5383 46.1593 20.7016 45.7859 20.8323C45.4126 20.9536 44.9833 21.0143 44.4979 21.0143ZM42.5939 16.7023H46.4299V16.6603C46.4299 16.2403 46.3506 15.8669 46.1919 15.5403C46.0426 15.2136 45.8233 14.9569 45.5339 14.7703C45.2446 14.5743 44.8993 14.4763 44.4979 14.4763C44.0966 14.4763 43.7513 14.5743 43.4619 14.7703C43.1819 14.9569 42.9673 15.2136 42.8179 15.5403C42.6686 15.8669 42.5939 16.2403 42.5939 16.6603V16.7023ZM52.0939 21.0143C51.5806 21.0143 51.1373 20.9256 50.7639 20.7483C50.3906 20.5616 50.0826 20.3143 49.8399 20.0063C49.6066 19.6889 49.4293 19.3296 49.3079 18.9283C49.1959 18.5269 49.1306 18.1023 49.1119 17.6543C49.1026 17.5049 49.0979 17.3649 49.0979 17.2343C49.0979 17.1036 49.1026 16.9636 49.1119 16.8143C49.1306 16.3756 49.1959 15.9556 49.3079 15.5543C49.4293 15.1529 49.6066 14.7936 49.8399 14.4763C50.0826 14.1589 50.3906 13.9116 50.7639 13.7343C51.1373 13.5476 51.5806 13.4543 52.0939 13.4543C52.6446 13.4543 53.1019 13.5523 53.4659 13.7483C53.8299 13.9443 54.1286 14.1869 54.3619 14.4763V11.2563C54.3619 11.1629 54.3899 11.0883 54.4459 11.0323C54.5113 10.9669 54.5906 10.9343 54.6839 10.9343H55.3559C55.4493 10.9343 55.5239 10.9669 55.5799 11.0323C55.6453 11.0883 55.6779 11.1629 55.6779 11.2563V20.5523C55.6779 20.6456 55.6453 20.7249 55.5799 20.7903C55.5239 20.8463 55.4493 20.8743 55.3559 20.8743H54.7259C54.6233 20.8743 54.5439 20.8463 54.4879 20.7903C54.4319 20.7249 54.4039 20.6456 54.4039 20.5523V19.9643C54.1706 20.2629 53.8673 20.5149 53.4939 20.7203C53.1206 20.9163 52.6539 21.0143 52.0939 21.0143ZM52.3879 19.8803C52.8546 19.8803 53.2279 19.7729 53.5079 19.5583C53.7879 19.3436 53.9979 19.0729 54.1379 18.7463C54.2779 18.4103 54.3526 18.0696 54.3619 17.7243C54.3713 17.5749 54.3759 17.3976 54.3759 17.1923C54.3759 16.9776 54.3713 16.7956 54.3619 16.6463C54.3526 16.3196 54.2733 15.9976 54.1239 15.6803C53.9839 15.3629 53.7693 15.1016 53.4799 14.8963C53.1999 14.6909 52.8359 14.5883 52.3879 14.5883C51.9119 14.5883 51.5339 14.6956 51.2539 14.9103C50.9739 15.1156 50.7733 15.3909 50.6519 15.7363C50.5306 16.0723 50.4606 16.4363 50.4419 16.8283C50.4326 17.0989 50.4326 17.3696 50.4419 17.6403C50.4606 18.0323 50.5306 18.4009 50.6519 18.7463C50.7733 19.0823 50.9739 19.3576 51.2539 19.5723C51.5339 19.7776 51.9119 19.8803 52.3879 19.8803ZM64.5237 21.0143C63.7117 21.0143 63.0304 20.8929 62.4797 20.6503C61.9291 20.3983 61.5044 20.0763 61.2057 19.6843C60.9164 19.2829 60.7624 18.8583 60.7437 18.4103C60.7437 18.3356 60.7717 18.2703 60.8277 18.2143C60.8931 18.1489 60.9677 18.1163 61.0517 18.1163H61.7657C61.8777 18.1163 61.9617 18.1443 62.0177 18.2003C62.0737 18.2563 62.1111 18.3216 62.1297 18.3963C62.1764 18.6203 62.2884 18.8443 62.4657 19.0683C62.6524 19.2829 62.9091 19.4649 63.2357 19.6143C63.5717 19.7543 64.0011 19.8243 64.5237 19.8243C65.3264 19.8243 65.9144 19.6843 66.2877 19.4043C66.6704 19.1149 66.8617 18.7323 66.8617 18.2563C66.8617 17.9296 66.7591 17.6683 66.5537 17.4723C66.3577 17.2669 66.0544 17.0849 65.6437 16.9263C65.2331 16.7676 64.7011 16.5949 64.0477 16.4083C63.3664 16.2123 62.8017 15.9976 62.3537 15.7643C61.9057 15.5309 61.5697 15.2416 61.3457 14.8963C61.1311 14.5509 61.0237 14.1123 61.0237 13.5803C61.0237 13.0763 61.1591 12.6283 61.4297 12.2363C61.7004 11.8349 62.0877 11.5176 62.5917 11.2843C63.1051 11.0509 63.7257 10.9343 64.4537 10.9343C65.0324 10.9343 65.5364 11.0136 65.9657 11.1723C66.4044 11.3216 66.7684 11.5269 67.0577 11.7883C67.3471 12.0403 67.5664 12.3156 67.7157 12.6143C67.8651 12.9036 67.9444 13.1883 67.9537 13.4683C67.9537 13.5336 67.9304 13.5989 67.8837 13.6643C67.8371 13.7203 67.7624 13.7483 67.6597 13.7483H66.9177C66.8524 13.7483 66.7824 13.7296 66.7077 13.6923C66.6424 13.6549 66.5911 13.5849 66.5537 13.4823C66.4977 13.0996 66.2831 12.7776 65.9097 12.5163C65.5364 12.2549 65.0511 12.1243 64.4537 12.1243C63.8471 12.1243 63.3524 12.2409 62.9697 12.4743C62.5964 12.7076 62.4097 13.0716 62.4097 13.5663C62.4097 13.8836 62.4984 14.1496 62.6757 14.3643C62.8531 14.5696 63.1331 14.7516 63.5157 14.9103C63.8984 15.0689 64.3977 15.2369 65.0137 15.4143C65.7604 15.6196 66.3717 15.8389 66.8477 16.0723C67.3237 16.2963 67.6737 16.5809 67.8977 16.9263C68.1311 17.2623 68.2477 17.6963 68.2477 18.2283C68.2477 18.8163 68.0937 19.3203 67.7857 19.7403C67.4777 20.1509 67.0437 20.4683 66.4837 20.6923C65.9331 20.9069 65.2797 21.0143 64.5237 21.0143ZM72.7427 20.8743C72.2201 20.8743 71.7954 20.7763 71.4687 20.5803C71.1421 20.3749 70.9041 20.0903 70.7547 19.7263C70.6054 19.3529 70.5307 18.9143 70.5307 18.4103V14.7143H69.4387C69.3454 14.7143 69.2661 14.6863 69.2007 14.6303C69.1447 14.5649 69.1167 14.4856 69.1167 14.3923V13.9163C69.1167 13.8229 69.1447 13.7483 69.2007 13.6923C69.2661 13.6269 69.3454 13.5943 69.4387 13.5943H70.5307V11.2563C70.5307 11.1629 70.5587 11.0883 70.6147 11.0323C70.6801 10.9669 70.7594 10.9343 70.8527 10.9343H71.5107C71.6041 10.9343 71.6787 10.9669 71.7347 11.0323C71.8001 11.0883 71.8327 11.1629 71.8327 11.2563V13.5943H73.5687C73.6621 13.5943 73.7367 13.6269 73.7927 13.6923C73.8581 13.7483 73.8907 13.8229 73.8907 13.9163V14.3923C73.8907 14.4856 73.8581 14.5649 73.7927 14.6303C73.7367 14.6863 73.6621 14.7143 73.5687 14.7143H71.8327V18.3123C71.8327 18.7509 71.9074 19.0963 72.0567 19.3483C72.2061 19.6003 72.4721 19.7263 72.8547 19.7263H73.7087C73.8021 19.7263 73.8767 19.7589 73.9327 19.8243C73.9981 19.8803 74.0307 19.9549 74.0307 20.0483V20.5523C74.0307 20.6456 73.9981 20.7249 73.9327 20.7903C73.8767 20.8463 73.8021 20.8743 73.7087 20.8743H72.7427ZM77.3995 21.0143C76.9328 21.0143 76.5081 20.9209 76.1255 20.7343C75.7428 20.5476 75.4348 20.2956 75.2015 19.9783C74.9681 19.6609 74.8515 19.3016 74.8515 18.9003C74.8515 18.2563 75.1128 17.7429 75.6355 17.3603C76.1581 16.9776 76.8395 16.7256 77.6795 16.6043L79.7655 16.3103V15.9043C79.7655 15.4563 79.6348 15.1063 79.3735 14.8543C79.1215 14.6023 78.7061 14.4763 78.1275 14.4763C77.7075 14.4763 77.3668 14.5603 77.1055 14.7283C76.8535 14.8963 76.6761 15.1109 76.5735 15.3723C76.5175 15.5123 76.4195 15.5823 76.2795 15.5823H75.6495C75.5468 15.5823 75.4675 15.5543 75.4115 15.4983C75.3648 15.4329 75.3415 15.3583 75.3415 15.2743C75.3415 15.1343 75.3928 14.9616 75.4955 14.7563C75.6075 14.5509 75.7755 14.3503 75.9995 14.1543C76.2235 13.9583 76.5081 13.7949 76.8535 13.6643C77.2081 13.5243 77.6375 13.4543 78.1415 13.4543C78.7015 13.4543 79.1728 13.5289 79.5555 13.6783C79.9381 13.8183 80.2368 14.0096 80.4515 14.2523C80.6755 14.4949 80.8341 14.7703 80.9275 15.0783C81.0301 15.3863 81.0815 15.6989 81.0815 16.0163V20.5523C81.0815 20.6456 81.0488 20.7249 80.9835 20.7903C80.9275 20.8463 80.8528 20.8743 80.7595 20.8743H80.1155C80.0128 20.8743 79.9335 20.8463 79.8775 20.7903C79.8215 20.7249 79.7935 20.6456 79.7935 20.5523V19.9503C79.6721 20.1183 79.5088 20.2863 79.3035 20.4543C79.0981 20.6129 78.8415 20.7483 78.5335 20.8603C78.2255 20.9629 77.8475 21.0143 77.3995 21.0143ZM77.6935 19.9643C78.0761 19.9643 78.4261 19.8849 78.7435 19.7263C79.0608 19.5583 79.3081 19.3016 79.4855 18.9563C79.6721 18.6109 79.7655 18.1769 79.7655 17.6543V17.2623L78.1415 17.5003C77.4788 17.5936 76.9795 17.7523 76.6435 17.9763C76.3075 18.1909 76.1395 18.4663 76.1395 18.8023C76.1395 19.0636 76.2141 19.2829 76.3635 19.4603C76.5221 19.6283 76.7181 19.7543 76.9515 19.8383C77.1941 19.9223 77.4415 19.9643 77.6935 19.9643ZM85.8677 20.8743C85.3451 20.8743 84.9204 20.7763 84.5937 20.5803C84.2671 20.3749 84.0291 20.0903 83.8797 19.7263C83.7304 19.3529 83.6557 18.9143 83.6557 18.4103V14.7143H82.5637C82.4704 14.7143 82.3911 14.6863 82.3257 14.6303C82.2697 14.5649 82.2417 14.4856 82.2417 14.3923V13.9163C82.2417 13.8229 82.2697 13.7483 82.3257 13.6923C82.3911 13.6269 82.4704 13.5943 82.5637 13.5943H83.6557V11.2563C83.6557 11.1629 83.6837 11.0883 83.7397 11.0323C83.8051 10.9669 83.8844 10.9343 83.9777 10.9343H84.6357C84.7291 10.9343 84.8037 10.9669 84.8597 11.0323C84.9251 11.0883 84.9577 11.1629 84.9577 11.2563V13.5943H86.6937C86.7871 13.5943 86.8617 13.6269 86.9177 13.6923C86.9831 13.7483 87.0157 13.8229 87.0157 13.9163V14.3923C87.0157 14.4856 86.9831 14.5649 86.9177 14.6303C86.8617 14.6863 86.7871 14.7143 86.6937 14.7143H84.9577V18.3123C84.9577 18.7509 85.0324 19.0963 85.1817 19.3483C85.3311 19.6003 85.5971 19.7263 85.9797 19.7263H86.8337C86.9271 19.7263 87.0017 19.7589 87.0577 19.8243C87.1231 19.8803 87.1557 19.9549 87.1557 20.0483V20.5523C87.1557 20.6456 87.1231 20.7249 87.0577 20.7903C87.0017 20.8463 86.9271 20.8743 86.8337 20.8743H85.8677ZM91.3925 21.0143C90.4311 21.0143 89.6658 20.7203 89.0965 20.1323C88.5271 19.5349 88.2145 18.7229 88.1585 17.6963C88.1491 17.5749 88.1445 17.4209 88.1445 17.2343C88.1445 17.0383 88.1491 16.8796 88.1585 16.7583C88.1958 16.0956 88.3498 15.5169 88.6205 15.0223C88.8911 14.5183 89.2598 14.1309 89.7265 13.8603C90.2025 13.5896 90.7578 13.4543 91.3925 13.4543C92.1018 13.4543 92.6945 13.6036 93.1705 13.9023C93.6558 14.2009 94.0245 14.6256 94.2765 15.1763C94.5285 15.7269 94.6545 16.3709 94.6545 17.1083V17.3463C94.6545 17.4489 94.6218 17.5283 94.5565 17.5843C94.5005 17.6403 94.4258 17.6683 94.3325 17.6683H89.4885C89.4885 17.6776 89.4885 17.6963 89.4885 17.7243C89.4885 17.7523 89.4885 17.7756 89.4885 17.7943C89.5071 18.1769 89.5911 18.5363 89.7405 18.8723C89.8898 19.1989 90.1045 19.4649 90.3845 19.6703C90.6645 19.8756 91.0005 19.9783 91.3925 19.9783C91.7285 19.9783 92.0085 19.9269 92.2325 19.8243C92.4565 19.7216 92.6385 19.6096 92.7785 19.4883C92.9185 19.3576 93.0118 19.2596 93.0585 19.1943C93.1425 19.0729 93.2078 19.0029 93.2545 18.9843C93.3011 18.9563 93.3758 18.9423 93.4785 18.9423H94.1505C94.2438 18.9423 94.3185 18.9703 94.3745 19.0263C94.4398 19.0729 94.4678 19.1429 94.4585 19.2363C94.4491 19.3763 94.3745 19.5489 94.2345 19.7543C94.0945 19.9503 93.8938 20.1463 93.6325 20.3423C93.3711 20.5383 93.0538 20.7016 92.6805 20.8323C92.3071 20.9536 91.8778 21.0143 91.3925 21.0143ZM89.4885 16.7023H93.3245V16.6603C93.3245 16.2403 93.2451 15.8669 93.0865 15.5403C92.9371 15.2136 92.7178 14.9569 92.4285 14.7703C92.1391 14.5743 91.7938 14.4763 91.3925 14.4763C90.9911 14.4763 90.6458 14.5743 90.3565 14.7703C90.0765 14.9569 89.8618 15.2136 89.7125 15.5403C89.5631 15.8669 89.4885 16.2403 89.4885 16.6603V16.7023ZM101.79 21.0143C101.323 21.0143 100.899 20.9209 100.516 20.7343C100.133 20.5476 99.8254 20.2956 99.5921 19.9783C99.3588 19.6609 99.2421 19.3016 99.2421 18.9003C99.2421 18.2563 99.5034 17.7429 100.026 17.3603C100.549 16.9776 101.23 16.7256 102.07 16.6043L104.156 16.3103V15.9043C104.156 15.4563 104.025 15.1063 103.764 14.8543C103.512 14.6023 103.097 14.4763 102.518 14.4763C102.098 14.4763 101.757 14.5603 101.496 14.7283C101.244 14.8963 101.067 15.1109 100.964 15.3723C100.908 15.5123 100.81 15.5823 100.67 15.5823H100.04C99.9374 15.5823 99.8581 15.5543 99.8021 15.4983C99.7554 15.4329 99.7321 15.3583 99.7321 15.2743C99.7321 15.1343 99.7834 14.9616 99.8861 14.7563C99.9981 14.5509 100.166 14.3503 100.39 14.1543C100.614 13.9583 100.899 13.7949 101.244 13.6643C101.599 13.5243 102.028 13.4543 102.532 13.4543C103.092 13.4543 103.563 13.5289 103.946 13.6783C104.329 13.8183 104.627 14.0096 104.842 14.2523C105.066 14.4949 105.225 14.7703 105.318 15.0783C105.421 15.3863 105.472 15.6989 105.472 16.0163V20.5523C105.472 20.6456 105.439 20.7249 105.374 20.7903C105.318 20.8463 105.243 20.8743 105.15 20.8743H104.506C104.403 20.8743 104.324 20.8463 104.268 20.7903C104.212 20.7249 104.184 20.6456 104.184 20.5523V19.9503C104.063 20.1183 103.899 20.2863 103.694 20.4543C103.489 20.6129 103.232 20.7483 102.924 20.8603C102.616 20.9629 102.238 21.0143 101.79 21.0143ZM102.084 19.9643C102.467 19.9643 102.817 19.8849 103.134 19.7263C103.451 19.5583 103.699 19.3016 103.876 18.9563C104.063 18.6109 104.156 18.1769 104.156 17.6543V17.2623L102.532 17.5003C101.869 17.5936 101.37 17.7523 101.034 17.9763C100.698 18.1909 100.53 18.4663 100.53 18.8023C100.53 19.0636 100.605 19.2829 100.754 19.4603C100.913 19.6283 101.109 19.7543 101.342 19.8383C101.585 19.9223 101.832 19.9643 102.084 19.9643ZM107.807 20.8743C107.713 20.8743 107.634 20.8463 107.569 20.7903C107.513 20.7249 107.485 20.6456 107.485 20.5523V13.9163C107.485 13.8229 107.513 13.7483 107.569 13.6923C107.634 13.6269 107.713 13.5943 107.807 13.5943H108.465C108.558 13.5943 108.633 13.6269 108.689 13.6923C108.754 13.7483 108.787 13.8229 108.787 13.9163V14.5323C109.029 14.2149 109.333 13.9583 109.697 13.7623C110.07 13.5569 110.546 13.4543 111.125 13.4543C111.731 13.4543 112.245 13.5896 112.665 13.8603C113.094 14.1216 113.416 14.4903 113.631 14.9663C113.845 15.4329 113.953 15.9789 113.953 16.6043V20.5523C113.953 20.6456 113.925 20.7249 113.869 20.7903C113.813 20.8463 113.738 20.8743 113.645 20.8743H112.945C112.851 20.8743 112.772 20.8463 112.707 20.7903C112.651 20.7249 112.623 20.6456 112.623 20.5523V16.6743C112.623 16.0209 112.464 15.5123 112.147 15.1483C111.829 14.7749 111.363 14.5883 110.747 14.5883C110.168 14.5883 109.701 14.7749 109.347 15.1483C109.001 15.5123 108.829 16.0209 108.829 16.6743V20.5523C108.829 20.6456 108.796 20.7249 108.731 20.7903C108.675 20.8463 108.6 20.8743 108.507 20.8743H107.807ZM118.635 21.0143C118.122 21.0143 117.678 20.9256 117.305 20.7483C116.932 20.5616 116.624 20.3143 116.381 20.0063C116.148 19.6889 115.97 19.3296 115.849 18.9283C115.737 18.5269 115.672 18.1023 115.653 17.6543C115.644 17.5049 115.639 17.3649 115.639 17.2343C115.639 17.1036 115.644 16.9636 115.653 16.8143C115.672 16.3756 115.737 15.9556 115.849 15.5543C115.97 15.1529 116.148 14.7936 116.381 14.4763C116.624 14.1589 116.932 13.9116 117.305 13.7343C117.678 13.5476 118.122 13.4543 118.635 13.4543C119.186 13.4543 119.643 13.5523 120.007 13.7483C120.371 13.9443 120.67 14.1869 120.903 14.4763V11.2563C120.903 11.1629 120.931 11.0883 120.987 11.0323C121.052 10.9669 121.132 10.9343 121.225 10.9343H121.897C121.99 10.9343 122.065 10.9669 122.121 11.0323C122.186 11.0883 122.219 11.1629 122.219 11.2563V20.5523C122.219 20.6456 122.186 20.7249 122.121 20.7903C122.065 20.8463 121.99 20.8743 121.897 20.8743H121.267C121.164 20.8743 121.085 20.8463 121.029 20.7903C120.973 20.7249 120.945 20.6456 120.945 20.5523V19.9643C120.712 20.2629 120.408 20.5149 120.035 20.7203C119.662 20.9163 119.195 21.0143 118.635 21.0143ZM118.929 19.8803C119.396 19.8803 119.769 19.7729 120.049 19.5583C120.329 19.3436 120.539 19.0729 120.679 18.7463C120.819 18.4103 120.894 18.0696 120.903 17.7243C120.912 17.5749 120.917 17.3976 120.917 17.1923C120.917 16.9776 120.912 16.7956 120.903 16.6463C120.894 16.3196 120.814 15.9976 120.665 15.6803C120.525 15.3629 120.31 15.1016 120.021 14.8963C119.741 14.6909 119.377 14.5883 118.929 14.5883C118.453 14.5883 118.075 14.6956 117.795 14.9103C117.515 15.1156 117.314 15.3909 117.193 15.7363C117.072 16.0723 117.002 16.4363 116.983 16.8283C116.974 17.0989 116.974 17.3696 116.983 17.6403C117.002 18.0323 117.072 18.4009 117.193 18.7463C117.314 19.0823 117.515 19.3576 117.795 19.5723C118.075 19.7776 118.453 19.8803 118.929 19.8803ZM48.4203 38.0143C47.5616 38.0143 46.8476 37.8556 46.2783 37.5383C45.7183 37.2209 45.2936 36.7776 45.0043 36.2083C44.715 35.6389 44.5563 34.9763 44.5283 34.2203C44.519 33.8376 44.5143 33.4269 44.5143 32.9883C44.5143 32.5496 44.519 32.1296 44.5283 31.7283C44.5563 30.9723 44.715 30.3096 45.0043 29.7403C45.2936 29.1709 45.7183 28.7276 46.2783 28.4103C46.8476 28.0929 47.5616 27.9343 48.4203 27.9343C49.0643 27.9343 49.629 28.0229 50.1143 28.2003C50.5996 28.3776 51.001 28.6156 51.3183 28.9143C51.645 29.2129 51.8923 29.5489 52.0603 29.9223C52.2283 30.2863 52.3216 30.6643 52.3403 31.0563C52.3496 31.1403 52.3216 31.2103 52.2563 31.2663C52.2003 31.3223 52.1303 31.3503 52.0463 31.3503H51.2763C51.1923 31.3503 51.1176 31.3269 51.0523 31.2803C50.9963 31.2336 50.9543 31.1496 50.9263 31.0283C50.7676 30.3003 50.469 29.8009 50.0303 29.5303C49.601 29.2596 49.0596 29.1243 48.4063 29.1243C47.6596 29.1243 47.067 29.3389 46.6283 29.7683C46.1896 30.1883 45.9516 30.8649 45.9143 31.7983C45.8863 32.5636 45.8863 33.3476 45.9143 34.1503C45.9516 35.0836 46.1896 35.7649 46.6283 36.1943C47.067 36.6143 47.6596 36.8243 48.4063 36.8243C49.0596 36.8243 49.601 36.6889 50.0303 36.4183C50.469 36.1476 50.7676 35.6483 50.9263 34.9203C50.9543 34.7989 50.9963 34.7149 51.0523 34.6683C51.1176 34.6216 51.1923 34.5983 51.2763 34.5983H52.0463C52.1303 34.5983 52.2003 34.6263 52.2563 34.6823C52.3216 34.7383 52.3496 34.8083 52.3403 34.8923C52.3216 35.2843 52.2283 35.6669 52.0603 36.0403C51.8923 36.4043 51.645 36.7356 51.3183 37.0343C51.001 37.3329 50.5996 37.5709 50.1143 37.7483C49.629 37.9256 49.0643 38.0143 48.4203 38.0143ZM56.0645 38.0143C55.5979 38.0143 55.1732 37.9209 54.7905 37.7343C54.4079 37.5476 54.0999 37.2956 53.8665 36.9783C53.6332 36.6609 53.5165 36.3016 53.5165 35.9003C53.5165 35.2563 53.7779 34.7429 54.3005 34.3603C54.8232 33.9776 55.5045 33.7256 56.3445 33.6043L58.4305 33.3103V32.9043C58.4305 32.4563 58.2999 32.1063 58.0385 31.8543C57.7865 31.6023 57.3712 31.4763 56.7925 31.4763C56.3725 31.4763 56.0319 31.5603 55.7705 31.7283C55.5185 31.8963 55.3412 32.1109 55.2385 32.3723C55.1825 32.5123 55.0845 32.5823 54.9445 32.5823H54.3145C54.2119 32.5823 54.1325 32.5543 54.0765 32.4983C54.0299 32.4329 54.0065 32.3583 54.0065 32.2743C54.0065 32.1343 54.0579 31.9616 54.1605 31.7563C54.2725 31.5509 54.4405 31.3503 54.6645 31.1543C54.8885 30.9583 55.1732 30.7949 55.5185 30.6643C55.8732 30.5243 56.3025 30.4543 56.8065 30.4543C57.3665 30.4543 57.8379 30.5289 58.2205 30.6783C58.6032 30.8183 58.9019 31.0096 59.1165 31.2523C59.3405 31.4949 59.4992 31.7703 59.5925 32.0783C59.6952 32.3863 59.7465 32.6989 59.7465 33.0163V37.5523C59.7465 37.6456 59.7139 37.7249 59.6485 37.7903C59.5925 37.8463 59.5179 37.8743 59.4245 37.8743H58.7805C58.6779 37.8743 58.5985 37.8463 58.5425 37.7903C58.4865 37.7249 58.4585 37.6456 58.4585 37.5523V36.9503C58.3372 37.1183 58.1739 37.2863 57.9685 37.4543C57.7632 37.6129 57.5065 37.7483 57.1985 37.8603C56.8905 37.9629 56.5125 38.0143 56.0645 38.0143ZM56.3585 36.9643C56.7412 36.9643 57.0912 36.8849 57.4085 36.7263C57.7259 36.5583 57.9732 36.3016 58.1505 35.9563C58.3372 35.6109 58.4305 35.1769 58.4305 34.6543V34.2623L56.8065 34.5003C56.1439 34.5936 55.6445 34.7523 55.3085 34.9763C54.9725 35.1909 54.8045 35.4663 54.8045 35.8023C54.8045 36.0636 54.8792 36.2829 55.0285 36.4603C55.1872 36.6283 55.3832 36.7543 55.6165 36.8383C55.8592 36.9223 56.1065 36.9643 56.3585 36.9643ZM62.0811 37.8743C61.9878 37.8743 61.9085 37.8463 61.8431 37.7903C61.7871 37.7249 61.7591 37.6456 61.7591 37.5523V30.9163C61.7591 30.8229 61.7871 30.7483 61.8431 30.6923C61.9085 30.6269 61.9878 30.5943 62.0811 30.5943H62.7391C62.8325 30.5943 62.9071 30.6269 62.9631 30.6923C63.0285 30.7483 63.0611 30.8229 63.0611 30.9163V31.5323C63.3038 31.2149 63.6071 30.9583 63.9711 30.7623C64.3445 30.5569 64.8205 30.4543 65.3991 30.4543C66.0058 30.4543 66.5191 30.5896 66.9391 30.8603C67.3685 31.1216 67.6905 31.4903 67.9051 31.9663C68.1198 32.4329 68.2271 32.9789 68.2271 33.6043V37.5523C68.2271 37.6456 68.1991 37.7249 68.1431 37.7903C68.0871 37.8463 68.0125 37.8743 67.9191 37.8743H67.2191C67.1258 37.8743 67.0465 37.8463 66.9811 37.7903C66.9251 37.7249 66.8971 37.6456 66.8971 37.5523V33.6743C66.8971 33.0209 66.7385 32.5123 66.4211 32.1483C66.1038 31.7749 65.6371 31.5883 65.0211 31.5883C64.4425 31.5883 63.9758 31.7749 63.6211 32.1483C63.2758 32.5123 63.1031 33.0209 63.1031 33.6743V37.5523C63.1031 37.6456 63.0705 37.7249 63.0051 37.7903C62.9491 37.8463 62.8745 37.8743 62.7811 37.8743H62.0811ZM72.2794 38.0143C71.8127 38.0143 71.388 37.9209 71.0054 37.7343C70.6227 37.5476 70.3147 37.2956 70.0814 36.9783C69.848 36.6609 69.7314 36.3016 69.7314 35.9003C69.7314 35.2563 69.9927 34.7429 70.5154 34.3603C71.038 33.9776 71.7194 33.7256 72.5594 33.6043L74.6454 33.3103V32.9043C74.6454 32.4563 74.5147 32.1063 74.2534 31.8543C74.0014 31.6023 73.586 31.4763 73.0074 31.4763C72.5874 31.4763 72.2467 31.5603 71.9854 31.7283C71.7334 31.8963 71.556 32.1109 71.4534 32.3723C71.3974 32.5123 71.2994 32.5823 71.1594 32.5823H70.5294C70.4267 32.5823 70.3474 32.5543 70.2914 32.4983C70.2447 32.4329 70.2214 32.3583 70.2214 32.2743C70.2214 32.1343 70.2727 31.9616 70.3754 31.7563C70.4874 31.5509 70.6554 31.3503 70.8794 31.1543C71.1034 30.9583 71.388 30.7949 71.7334 30.6643C72.088 30.5243 72.5174 30.4543 73.0214 30.4543C73.5814 30.4543 74.0527 30.5289 74.4354 30.6783C74.818 30.8183 75.1167 31.0096 75.3314 31.2523C75.5554 31.4949 75.714 31.7703 75.8074 32.0783C75.91 32.3863 75.9614 32.6989 75.9614 33.0163V37.5523C75.9614 37.6456 75.9287 37.7249 75.8634 37.7903C75.8074 37.8463 75.7327 37.8743 75.6394 37.8743H74.9954C74.8927 37.8743 74.8134 37.8463 74.7574 37.7903C74.7014 37.7249 74.6734 37.6456 74.6734 37.5523V36.9503C74.552 37.1183 74.3887 37.2863 74.1834 37.4543C73.978 37.6129 73.7214 37.7483 73.4134 37.8603C73.1054 37.9629 72.7274 38.0143 72.2794 38.0143ZM72.5734 36.9643C72.956 36.9643 73.306 36.8849 73.6234 36.7263C73.9407 36.5583 74.188 36.3016 74.3654 35.9563C74.552 35.6109 74.6454 35.1769 74.6454 34.6543V34.2623L73.0214 34.5003C72.3587 34.5936 71.8594 34.7523 71.5234 34.9763C71.1874 35.1909 71.0194 35.4663 71.0194 35.8023C71.0194 36.0636 71.094 36.2829 71.2434 36.4603C71.402 36.6283 71.598 36.7543 71.8314 36.8383C72.074 36.9223 72.3214 36.9643 72.5734 36.9643ZM80.634 38.0143C80.1206 38.0143 79.6773 37.9256 79.304 37.7483C78.9306 37.5616 78.6226 37.3143 78.38 37.0063C78.1466 36.6889 77.9693 36.3296 77.848 35.9283C77.736 35.5269 77.6706 35.1023 77.652 34.6543C77.6426 34.5049 77.638 34.3649 77.638 34.2343C77.638 34.1036 77.6426 33.9636 77.652 33.8143C77.6706 33.3756 77.736 32.9556 77.848 32.5543C77.9693 32.1529 78.1466 31.7936 78.38 31.4763C78.6226 31.1589 78.9306 30.9116 79.304 30.7343C79.6773 30.5476 80.1206 30.4543 80.634 30.4543C81.1846 30.4543 81.642 30.5523 82.006 30.7483C82.37 30.9443 82.6686 31.1869 82.902 31.4763V28.2563C82.902 28.1629 82.93 28.0883 82.986 28.0323C83.0513 27.9669 83.1306 27.9343 83.224 27.9343H83.896C83.9893 27.9343 84.064 27.9669 84.12 28.0323C84.1853 28.0883 84.218 28.1629 84.218 28.2563V37.5523C84.218 37.6456 84.1853 37.7249 84.12 37.7903C84.064 37.8463 83.9893 37.8743 83.896 37.8743H83.266C83.1633 37.8743 83.084 37.8463 83.028 37.7903C82.972 37.7249 82.944 37.6456 82.944 37.5523V36.9643C82.7106 37.2629 82.4073 37.5149 82.034 37.7203C81.6606 37.9163 81.194 38.0143 80.634 38.0143ZM80.928 36.8803C81.3946 36.8803 81.768 36.7729 82.048 36.5583C82.328 36.3436 82.538 36.0729 82.678 35.7463C82.818 35.4103 82.8926 35.0696 82.902 34.7243C82.9113 34.5749 82.916 34.3976 82.916 34.1923C82.916 33.9776 82.9113 33.7956 82.902 33.6463C82.8926 33.3196 82.8133 32.9976 82.664 32.6803C82.524 32.3629 82.3093 32.1016 82.02 31.8963C81.74 31.6909 81.376 31.5883 80.928 31.5883C80.452 31.5883 80.074 31.6956 79.794 31.9103C79.514 32.1156 79.3133 32.3909 79.192 32.7363C79.0706 33.0723 79.0006 33.4363 78.982 33.8283C78.9726 34.0989 78.9726 34.3696 78.982 34.6403C79.0006 35.0323 79.0706 35.4009 79.192 35.7463C79.3133 36.0823 79.514 36.3576 79.794 36.5723C80.074 36.7776 80.452 36.8803 80.928 36.8803ZM88.3301 38.0143C87.8635 38.0143 87.4388 37.9209 87.0561 37.7343C86.6735 37.5476 86.3655 37.2956 86.1321 36.9783C85.8988 36.6609 85.7821 36.3016 85.7821 35.9003C85.7821 35.2563 86.0435 34.7429 86.5661 34.3603C87.0888 33.9776 87.7701 33.7256 88.6101 33.6043L90.6961 33.3103V32.9043C90.6961 32.4563 90.5655 32.1063 90.3041 31.8543C90.0521 31.6023 89.6368 31.4763 89.0581 31.4763C88.6381 31.4763 88.2975 31.5603 88.0361 31.7283C87.7841 31.8963 87.6068 32.1109 87.5041 32.3723C87.4481 32.5123 87.3501 32.5823 87.2101 32.5823H86.5801C86.4775 32.5823 86.3981 32.5543 86.3421 32.4983C86.2955 32.4329 86.2721 32.3583 86.2721 32.2743C86.2721 32.1343 86.3235 31.9616 86.4261 31.7563C86.5381 31.5509 86.7061 31.3503 86.9301 31.1543C87.1541 30.9583 87.4388 30.7949 87.7841 30.6643C88.1388 30.5243 88.5681 30.4543 89.0721 30.4543C89.6321 30.4543 90.1035 30.5289 90.4861 30.6783C90.8688 30.8183 91.1675 31.0096 91.3821 31.2523C91.6061 31.4949 91.7648 31.7703 91.8581 32.0783C91.9608 32.3863 92.0121 32.6989 92.0121 33.0163V37.5523C92.0121 37.6456 91.9795 37.7249 91.9141 37.7903C91.8581 37.8463 91.7835 37.8743 91.6901 37.8743H91.0461C90.9435 37.8743 90.8641 37.8463 90.8081 37.7903C90.7521 37.7249 90.7241 37.6456 90.7241 37.5523V36.9503C90.6028 37.1183 90.4395 37.2863 90.2341 37.4543C90.0288 37.6129 89.7721 37.7483 89.4641 37.8603C89.1561 37.9629 88.7781 38.0143 88.3301 38.0143ZM88.6241 36.9643C89.0068 36.9643 89.3568 36.8849 89.6741 36.7263C89.9915 36.5583 90.2388 36.3016 90.4161 35.9563C90.6028 35.6109 90.6961 35.1769 90.6961 34.6543V34.2623L89.0721 34.5003C88.4095 34.5936 87.9101 34.7523 87.5741 34.9763C87.2381 35.1909 87.0701 35.4663 87.0701 35.8023C87.0701 36.0636 87.1448 36.2829 87.2941 36.4603C87.4528 36.6283 87.6488 36.7543 87.8821 36.8383C88.1248 36.9223 88.3721 36.9643 88.6241 36.9643Z" fill="white"/>
</g>
<defs>
<filter id="filter0_b_212_7" x="-18.7429" y="-18.7429" width="173.371" height="87.1542" filterUnits="userSpaceOnUse" color-interpolation-filters="sRGB">
<feFlood flood-opacity="0" result="BackgroundImageFix"/>
<feGaussianBlur in="BackgroundImageFix" stdDeviation="9.37143"/>
<feComposite in2="SourceAlpha" operator="in" result="effect1_backgroundBlur_212_7"/>
<feBlend mode="normal" in="SourceGraphic" in2="effect1_backgroundBlur_212_7" result="shape"/>
</filter>
<clipPath id="clip0_212_7">
<rect width="135.886" height="49.6686" fill="white"/>
</clipPath>
</defs>
</svg>
