<svg width="93" height="92" viewBox="0 0 93 92" fill="none" xmlns="http://www.w3.org/2000/svg">
<path fill-rule="evenodd" clip-rule="evenodd" d="M43.9697 4.26476C38.7861 12.4935 36.5957 14.815 32.0209 16.9288C27.8046 18.8769 23.7212 19.546 16.9398 19.4006L12.415 19.3036L12.0998 20.7743C11.0485 25.6834 10.1662 35.923 10.4472 39.954C11.3076 52.2964 14.0116 61.1949 19.4756 69.6646C21.2722 72.4497 24.684 76.8862 25.0428 76.9042C25.1661 76.9101 25.2673 76.1745 25.2673 75.2692V73.6231H27.373H29.4788L27.4685 71.1541C21.0139 63.2273 17.4573 54.7065 16.2724 44.3325C15.863 40.7477 16.0372 31.7109 16.5911 27.8017L16.956 25.2264L20.8873 25.0495C26.7568 24.7853 30.8576 23.8306 34.9939 21.7646C39.2329 19.6475 43.7072 15.6596 45.6492 12.2678C46.2086 11.2916 46.7332 10.4925 46.8155 10.4925C46.8978 10.4925 47.4297 11.3035 47.9971 12.2945C49.9245 15.6596 54.414 19.6553 58.6371 21.7646C62.7735 23.8306 66.8743 24.7853 72.7438 25.0495L76.6751 25.2264L77.0399 27.8017C77.5939 31.7109 77.7681 40.7477 77.3587 44.3325C76.1738 54.7065 72.6172 63.2273 66.1626 71.1541L64.1523 73.6231H66.258H68.3638V75.2692C68.3638 76.1745 68.4649 76.9101 68.5882 76.9042C68.7115 76.8979 69.6318 75.854 70.6329 74.5847C78.536 64.5624 82.1666 54.5446 83.1839 39.954C83.4652 35.9197 82.5805 25.6619 81.53 20.7743L81.214 19.3036L75.1628 19.2875C68.3006 19.2689 65.6951 18.8161 61.621 16.9339C57.0345 14.8147 54.8482 12.4986 49.6614 4.26476C48.1838 1.91899 46.9032 0 46.8155 0C46.7278 0 45.4472 1.91899 43.9697 4.26476ZM46.0084 24.1669C44.9495 25.8369 43.0488 28.283 42.1767 29.0982C41.0741 30.1289 37.5983 31.8288 35.6305 32.2999C34.8281 32.4917 32.9307 32.6489 31.4139 32.6489H28.6561L28.2847 34.2063C27.6987 36.6652 27.5257 42.7254 27.9527 45.849C29.0245 53.6916 32.9849 61.2503 38.3561 65.7045C40.2221 67.2517 45.8216 70.331 46.7694 70.331C47.4012 70.331 52.0024 68.1032 53.5036 67.0704C55.4821 65.7093 58.492 62.6108 60.2236 60.1528C64.8756 53.5501 67.061 43.0435 65.4206 35.1655L64.922 32.7713L62.0789 32.6938C58.8212 32.6049 56.4823 32.0823 54.2272 30.9406C51.765 29.6935 50.8938 28.8941 48.8656 26.0204C47.8265 24.5482 46.876 23.3439 46.7533 23.3439C46.6306 23.3439 46.2954 23.7141 46.0084 24.1669ZM58.3798 41.9918C58.0733 42.1879 57.2527 42.7176 56.5556 43.1686C54.1476 44.7276 48.7336 50.7638 45.8758 55.0755L45.3853 55.8159L44.6867 54.9181C43.6473 53.5824 41.1238 51.1821 39.9321 50.3953C39.356 50.015 38.1654 49.5205 37.2864 49.2964L35.6883 48.8888L37.5564 48.0505C39.7971 47.0449 41.7092 47.1086 43.9834 48.2645L45.42 48.9944L47.0918 47.2858C50.2106 44.0985 54.9231 41.7371 58.3379 41.6503C58.9128 41.636 58.9143 41.6495 58.3798 41.9918ZM28.8587 82.003V87.3901H46.8155H64.7724V82.003V76.616H46.8155H28.8587V82.003ZM47.5449 79.5725C48.0264 80.5033 48.5508 80.8059 49.6832 80.8059C50.6424 80.8059 50.6113 81.5008 49.6231 82.1485C48.9279 82.604 48.856 82.809 48.9865 83.9666C49.0673 84.6843 49.0628 85.3424 48.976 85.4289C48.8896 85.5157 48.3679 85.308 47.8172 84.9674L46.8155 84.3485L45.8138 84.9674C44.6104 85.7111 44.374 85.5474 44.6003 84.1267C44.743 83.2313 44.6419 82.9287 43.9978 82.325C43.0266 81.4143 43.0066 80.8059 43.9478 80.8059C45.0803 80.8059 45.6046 80.5033 46.0862 79.5725C46.331 79.0985 46.6593 78.7109 46.8155 78.7109C46.9718 78.7109 47.3001 79.0985 47.5449 79.5725ZM15.9896 79.7671C15.9896 79.8539 16.9323 81.1204 18.0846 82.5809C19.2368 84.0417 20.1795 85.4064 20.1795 85.6135C20.1795 85.8209 19.3481 87.0797 18.3321 88.4112C17.3157 89.7424 16.3565 91.0003 16.2003 91.2059C15.9761 91.5013 16.8994 91.58 20.5919 91.58H25.2673V85.5944V79.6088H20.6284C18.0771 79.6088 15.9896 79.68 15.9896 79.7671ZM35.9184 80.357C36.0516 80.8876 36.3093 81.1052 36.8043 81.1052C37.7434 81.1052 37.9398 81.5179 37.2831 82.1122C36.9132 82.4468 36.7854 82.8862 36.8767 83.5087C37.0063 84.3916 36.9883 84.4068 36.2264 84.0597C35.6347 83.79 35.2597 83.7861 34.6947 84.0435C33.9857 84.3667 33.9464 84.3368 33.9464 83.4716C33.9464 82.9697 33.7444 82.3568 33.4975 82.1099C32.8412 81.4535 32.9471 81.1052 33.8031 81.1052C34.3179 81.1052 34.6662 80.8669 34.8988 80.357C35.0861 79.9454 35.3501 79.6088 35.4851 79.6088C35.6203 79.6088 35.8152 79.9454 35.9184 80.357ZM58.7323 80.357C58.9648 80.8669 59.3132 81.1052 59.828 81.1052C60.6839 81.1052 60.7899 81.4535 60.1335 82.1099C59.8866 82.3568 59.6846 82.9697 59.6846 83.4716C59.6846 84.3368 59.6454 84.3667 58.9364 84.0435C58.3714 83.7861 57.9964 83.79 57.4047 84.0597C56.6427 84.4068 56.6248 84.3916 56.7544 83.5087C56.8456 82.8862 56.7178 82.4468 56.3479 82.1122C55.7191 81.5433 55.8793 81.1052 56.7158 81.1052C57.0518 81.1052 57.449 80.7849 57.6441 80.357C57.8315 79.9454 58.0766 79.6088 58.1882 79.6088C58.2998 79.6088 58.545 79.9454 58.7323 80.357ZM68.3638 85.5944V91.58H73.0391C76.7317 91.58 77.655 91.5013 77.4308 91.2059C77.2746 91.0003 76.3154 89.7424 75.299 88.4112C74.283 87.0797 73.4515 85.8209 73.4515 85.6135C73.4515 85.4064 74.3943 84.0417 75.5465 82.5809C76.6988 81.1204 77.6415 79.8539 77.6415 79.7671C77.6415 79.68 75.554 79.6088 73.0026 79.6088H68.3638V85.5944Z" fill="url(#paint0_linear_2_10388)"/>
<defs>
<linearGradient id="paint0_linear_2_10388" x1="17.9821" y1="12.4015" x2="97.2856" y2="73.2787" gradientUnits="userSpaceOnUse">
<stop stop-color="#0076BE"/>
<stop offset="1" stop-color="#95D8EB"/>
</linearGradient>
</defs>
</svg>
